M48
; DRILL file {KiCad 5.1.10} date Fri Oct 29 17:16:26 2021
; FORMAT={-:-/ absolute / inch / decimal}
; #@! TF.CreationDate,2021-10-29T17:16:26+02:00
; #@! TF.GenerationSoftware,Kicad,Pcbnew,5.1.10
; #@! TF.FileFunction,Plated,1,2,PTH
FMAT,2
INCH
T1C0.0157
T2C0.0236
T3C0.0276
T4C0.0315
T5C0.0394
%
G90
G05
T1
X4.7244Y-2.1457
X4.7244Y-2.3819
X4.8425Y-2.1457
X5.0984Y-2.2441
X5.2165Y-2.2638
X5.3543Y-1.6339
X5.374Y-2.1457
X5.4921Y-1.5354
X5.4921Y-1.5748
X5.4921Y-1.6142
X5.4921Y-1.6535
X5.4921Y-1.6929
X5.4921Y-1.7323
X5.4921Y-1.7717
X5.4921Y-1.811
X5.4921Y-1.8504
X5.4921Y-1.8898
X5.4921Y-1.9291
X5.4921Y-1.9685
X5.4921Y-2.0079
X5.4921Y-2.0472
X5.4921Y-2.0866
X5.4921Y-2.126
X5.4921Y-2.1654
X5.4921Y-2.2047
X5.4921Y-2.2441
X5.4921Y-2.2835
X5.4921Y-2.3228
X5.4921Y-2.3622
X5.4921Y-2.4016
X5.4921Y-2.4409
X5.4921Y-2.4803
X5.4921Y-2.5197
X5.6299Y-2.1457
X5.8268Y-2.7362
X5.8661Y-2.7165
X5.8858Y-2.2835
X5.8858Y-2.3228
X5.8858Y-2.3622
X5.9252Y-2.9724
X5.9843Y-2.6378
X6.1024Y-2.5394
X6.1024Y-2.8346
X6.1024Y-3.1693
T2
X5.6102Y-1.5945
X5.6102Y-1.6535
X5.6102Y-1.7126
X5.6102Y-1.7717
X5.6102Y-1.8307
T4
X5.9252Y-3.6551
X5.9252Y-4.0551
X5.9646Y-1.5945
X5.9646Y-1.6929
X6.1417Y-3.6551
X6.1417Y-4.0551
X6.3189Y-1.5945
X6.3189Y-1.6929
T5
X4.5866Y-2.0276
X4.6866Y-2.0276
X4.7866Y-2.0276
X4.8866Y-2.0276
X4.9866Y-2.0276
X5.0866Y-2.0276
X5.1866Y-2.0276
X5.2866Y-2.0276
X5.3866Y-2.0276
X5.5642Y-2.5358
X5.5642Y-2.6358
X5.5642Y-2.7358
X5.5642Y-2.8358
X5.5642Y-2.9358
X5.5642Y-3.0358
X5.5642Y-3.1358
X5.5642Y-3.2358
X5.5642Y-3.3358
X5.5642Y-3.4358
X5.5642Y-3.5358
X5.5642Y-3.6358
X5.5642Y-3.7358
X5.5642Y-3.8358
X5.5642Y-3.9358
X5.7756Y-3.4961
X5.8205Y-3.0504
X5.8756Y-3.4961
X5.9205Y-1.8504
X5.9205Y-3.0504
X5.9756Y-3.4961
X6.0205Y-1.8504
X6.0205Y-3.0504
X6.0756Y-3.4961
X6.1205Y-1.8504
X6.1205Y-3.0504
X6.1756Y-3.4961
X6.2205Y-1.8504
X6.2205Y-3.0504
X6.2756Y-3.4961
X6.4642Y-2.5358
X6.4642Y-2.6358
X6.4642Y-2.7358
X6.4642Y-2.8358
X6.4642Y-2.9358
X6.4642Y-3.0358
X6.4642Y-3.1358
X6.4642Y-3.2358
X6.4642Y-3.3358
X6.4642Y-3.4358
X6.4642Y-3.5358
X6.4642Y-3.6358
X6.4642Y-3.7358
X6.4642Y-3.8358
X6.4642Y-3.9358
T3
G00X4.8327Y-1.6831
M15
G01X4.7736Y-1.6831
M16
G05
G00X4.8327Y-1.7815
M15
G01X4.7736Y-1.7815
M16
G05
G00X4.9902Y-1.6831
M15
G01X4.9311Y-1.6831
M16
G05
G00X4.9902Y-1.7815
M15
G01X4.9311Y-1.7815
M16
G05
G00X5.1476Y-1.6831
M15
G01X5.0886Y-1.6831
M16
G05
G00X5.1476Y-1.7815
M15
G01X5.0886Y-1.7815
M16
G05
T0
M30
