%TF.GenerationSoftware,KiCad,Pcbnew,5.1.10*%
%TF.CreationDate,2021-11-06T09:54:13+01:00*%
%TF.ProjectId,air_quality_box,6169725f-7175-4616-9c69-74795f626f78,rev?*%
%TF.SameCoordinates,Original*%
%TF.FileFunction,Copper,L1,Top*%
%TF.FilePolarity,Positive*%
%FSLAX46Y46*%
G04 Gerber Fmt 4.6, Leading zero omitted, Abs format (unit mm)*
G04 Created by KiCad (PCBNEW 5.1.10) date 2021-11-06 09:54:13*
%MOMM*%
%LPD*%
G01*
G04 APERTURE LIST*
%TA.AperFunction,ComponentPad*%
%ADD10C,1.250000*%
%TD*%
%TA.AperFunction,ComponentPad*%
%ADD11R,1.600000X1.600000*%
%TD*%
%TA.AperFunction,ComponentPad*%
%ADD12C,1.600000*%
%TD*%
%TA.AperFunction,ComponentPad*%
%ADD13R,1.700000X1.700000*%
%TD*%
%TA.AperFunction,ComponentPad*%
%ADD14C,1.700000*%
%TD*%
%TA.AperFunction,ComponentPad*%
%ADD15O,1.700000X1.700000*%
%TD*%
%TA.AperFunction,ComponentPad*%
%ADD16O,1.600000X1.600000*%
%TD*%
%TA.AperFunction,ViaPad*%
%ADD17C,0.800000*%
%TD*%
%TA.AperFunction,Conductor*%
%ADD18C,2.000000*%
%TD*%
%TA.AperFunction,Conductor*%
%ADD19C,0.500000*%
%TD*%
%TA.AperFunction,Conductor*%
%ADD20C,1.000000*%
%TD*%
%TA.AperFunction,Conductor*%
%ADD21C,0.254000*%
%TD*%
%TA.AperFunction,Conductor*%
%ADD22C,0.100000*%
%TD*%
G04 APERTURE END LIST*
D10*
%TO.P,J3,5*%
%TO.N,+5V*%
X142500000Y-46500000D03*
%TO.P,J3,4*%
%TO.N,I2C_SDA*%
X142500000Y-45000000D03*
%TO.P,J3,3*%
%TO.N,I2C_SCL*%
X142500000Y-43500000D03*
%TO.P,J3,2*%
%TO.N,GND*%
X142500000Y-42000000D03*
%TO.P,J3,1*%
X142500000Y-40500000D03*
%TD*%
%TO.P,SW1,3*%
%TO.N,+5V*%
%TA.AperFunction,ComponentPad*%
G36*
G01*
X123750000Y-42375000D02*
X123750000Y-43125000D01*
G75*
G02*
X123375000Y-43500000I-375000J0D01*
G01*
X120625000Y-43500000D01*
G75*
G02*
X120250000Y-43125000I0J375000D01*
G01*
X120250000Y-42375000D01*
G75*
G02*
X120625000Y-42000000I375000J0D01*
G01*
X123375000Y-42000000D01*
G75*
G02*
X123750000Y-42375000I0J-375000D01*
G01*
G37*
%TD.AperFunction*%
%TO.P,SW1,2*%
%TO.N,Net-(R3-Pad2)*%
%TA.AperFunction,ComponentPad*%
G36*
G01*
X127750000Y-42375000D02*
X127750000Y-43125000D01*
G75*
G02*
X127375000Y-43500000I-375000J0D01*
G01*
X124625000Y-43500000D01*
G75*
G02*
X124250000Y-43125000I0J375000D01*
G01*
X124250000Y-42375000D01*
G75*
G02*
X124625000Y-42000000I375000J0D01*
G01*
X127375000Y-42000000D01*
G75*
G02*
X127750000Y-42375000I0J-375000D01*
G01*
G37*
%TD.AperFunction*%
%TO.P,SW1,1*%
%TO.N,Net-(SW1-Pad1)*%
%TA.AperFunction,ComponentPad*%
G36*
G01*
X131750000Y-42375000D02*
X131750000Y-43125000D01*
G75*
G02*
X131375000Y-43500000I-375000J0D01*
G01*
X128625000Y-43500000D01*
G75*
G02*
X128250000Y-43125000I0J375000D01*
G01*
X128250000Y-42375000D01*
G75*
G02*
X128625000Y-42000000I375000J0D01*
G01*
X131375000Y-42000000D01*
G75*
G02*
X131750000Y-42375000I0J-375000D01*
G01*
G37*
%TD.AperFunction*%
%TO.P,SW1,3*%
%TO.N,+5V*%
%TA.AperFunction,ComponentPad*%
G36*
G01*
X123750000Y-44875000D02*
X123750000Y-45625000D01*
G75*
G02*
X123375000Y-46000000I-375000J0D01*
G01*
X120625000Y-46000000D01*
G75*
G02*
X120250000Y-45625000I0J375000D01*
G01*
X120250000Y-44875000D01*
G75*
G02*
X120625000Y-44500000I375000J0D01*
G01*
X123375000Y-44500000D01*
G75*
G02*
X123750000Y-44875000I0J-375000D01*
G01*
G37*
%TD.AperFunction*%
%TO.P,SW1,2*%
%TO.N,Net-(R3-Pad2)*%
%TA.AperFunction,ComponentPad*%
G36*
G01*
X127750000Y-44875000D02*
X127750000Y-45625000D01*
G75*
G02*
X127375000Y-46000000I-375000J0D01*
G01*
X124625000Y-46000000D01*
G75*
G02*
X124250000Y-45625000I0J375000D01*
G01*
X124250000Y-44875000D01*
G75*
G02*
X124625000Y-44500000I375000J0D01*
G01*
X127375000Y-44500000D01*
G75*
G02*
X127750000Y-44875000I0J-375000D01*
G01*
G37*
%TD.AperFunction*%
%TO.P,SW1,1*%
%TO.N,Net-(SW1-Pad1)*%
%TA.AperFunction,ComponentPad*%
G36*
G01*
X131750000Y-44875000D02*
X131750000Y-45625000D01*
G75*
G02*
X131375000Y-46000000I-375000J0D01*
G01*
X128625000Y-46000000D01*
G75*
G02*
X128250000Y-45625000I0J375000D01*
G01*
X128250000Y-44875000D01*
G75*
G02*
X128625000Y-44500000I375000J0D01*
G01*
X131375000Y-44500000D01*
G75*
G02*
X131750000Y-44875000I0J-375000D01*
G01*
G37*
%TD.AperFunction*%
%TD*%
D11*
%TO.P,C1,1*%
%TO.N,+5V*%
X160500000Y-43000000D03*
D12*
%TO.P,C1,2*%
%TO.N,GND*%
X160500000Y-40500000D03*
%TD*%
%TO.P,C2,2*%
%TO.N,GND*%
X151500000Y-40500000D03*
D11*
%TO.P,C2,1*%
%TO.N,+5V*%
X151500000Y-43000000D03*
%TD*%
D13*
%TO.P,J1,1*%
%TO.N,+5V*%
X158000000Y-47000000D03*
D14*
%TO.P,J1,2*%
%TO.N,GND*%
X155460000Y-47000000D03*
%TO.P,J1,3*%
%TO.N,Net-(J1-Pad3)*%
X152920000Y-47000000D03*
%TO.P,J1,4*%
%TO.N,Net-(J1-Pad4)*%
X150380000Y-47000000D03*
%TO.P,J1,5*%
%TO.N,Net-(J1-Pad5)*%
X147840000Y-77480000D03*
%TO.P,J1,6*%
%TO.N,Net-(J1-Pad6)*%
X150380000Y-77480000D03*
%TO.P,J1,7*%
%TO.N,UART_1_RX*%
X152920000Y-77480000D03*
%TO.P,J1,8*%
%TO.N,UART_1_TX*%
X155460000Y-77480000D03*
%TO.P,J1,9*%
%TO.N,Net-(J1-Pad9)*%
X158000000Y-77480000D03*
%TD*%
D13*
%TO.P,J2,1*%
%TO.N,Net-(J2-Pad1)*%
X159400000Y-88800000D03*
D15*
%TO.P,J2,2*%
%TO.N,Net-(J2-Pad2)*%
X156860000Y-88800000D03*
%TO.P,J2,3*%
%TO.N,I2C_SDA*%
X154320000Y-88800000D03*
%TO.P,J2,4*%
%TO.N,I2C_SCL*%
X151780000Y-88800000D03*
%TO.P,J2,5*%
%TO.N,GND*%
X149240000Y-88800000D03*
%TO.P,J2,6*%
%TO.N,+5V*%
X146700000Y-88800000D03*
%TD*%
D13*
%TO.P,J4,1*%
%TO.N,LCD_CS*%
X116500000Y-51500000D03*
D15*
%TO.P,J4,2*%
%TO.N,LCD_RST*%
X119040000Y-51500000D03*
%TO.P,J4,3*%
%TO.N,LCD_DC*%
X121580000Y-51500000D03*
%TO.P,J4,4*%
%TO.N,SPI_SCL*%
X124120000Y-51500000D03*
%TO.P,J4,5*%
%TO.N,SPI_MOSI*%
X126660000Y-51500000D03*
%TO.P,J4,6*%
%TO.N,+5V*%
X129200000Y-51500000D03*
%TO.P,J4,7*%
%TO.N,GND*%
X131740000Y-51500000D03*
%TO.P,J4,8*%
%TO.N,Net-(J4-Pad8)*%
X134280000Y-51500000D03*
%TO.P,J4,9*%
%TO.N,GND*%
X136820000Y-51500000D03*
%TD*%
D16*
%TO.P,R1,2*%
%TO.N,I2C_SCL*%
X150500000Y-92840000D03*
D12*
%TO.P,R1,1*%
%TO.N,+5V*%
X150500000Y-103000000D03*
%TD*%
%TO.P,R2,1*%
%TO.N,+5V*%
X156000000Y-103000000D03*
D16*
%TO.P,R2,2*%
%TO.N,I2C_SDA*%
X156000000Y-92840000D03*
%TD*%
D13*
%TO.P,U1,1*%
%TO.N,Net-(U1-Pad1)*%
X141330001Y-64410001D03*
D14*
%TO.P,U1,2*%
%TO.N,Net-(U1-Pad2)*%
X141330001Y-66950001D03*
%TO.P,U1,3*%
%TO.N,Net-(U1-Pad3)*%
X141330001Y-69490001D03*
%TO.P,U1,4*%
%TO.N,Net-(U1-Pad4)*%
X141330001Y-72030001D03*
%TO.P,U1,5*%
%TO.N,Net-(U1-Pad5)*%
X141330001Y-74570001D03*
%TO.P,U1,6*%
%TO.N,Net-(U1-Pad6)*%
X141330001Y-77110001D03*
%TO.P,U1,7*%
%TO.N,Net-(U1-Pad7)*%
X141330001Y-79650001D03*
%TO.P,U1,8*%
%TO.N,Net-(U1-Pad8)*%
X141330001Y-82190001D03*
%TO.P,U1,9*%
%TO.N,Net-(U1-Pad9)*%
X141330001Y-84730001D03*
%TO.P,U1,10*%
%TO.N,GND*%
X141330001Y-87270001D03*
%TO.P,U1,11*%
%TO.N,Net-(U1-Pad11)*%
X141330001Y-89810001D03*
%TO.P,U1,12*%
%TO.N,Net-(U1-Pad12)*%
X141330001Y-92350001D03*
%TO.P,U1,13*%
%TO.N,Net-(U1-Pad13)*%
X141330001Y-94890001D03*
%TO.P,U1,14*%
%TO.N,GND*%
X141330001Y-97430001D03*
%TO.P,U1,15*%
%TO.N,+5V*%
X141330001Y-99970001D03*
%TO.P,U1,16*%
%TO.N,LCD_RST*%
X164190001Y-64410001D03*
%TO.P,U1,17*%
%TO.N,I2C_SCL*%
X164190001Y-66950001D03*
%TO.P,U1,18*%
%TO.N,I2C_SDA*%
X164190001Y-69490001D03*
%TO.P,U1,19*%
%TO.N,UART_1_RX*%
X164190001Y-72030001D03*
%TO.P,U1,20*%
%TO.N,UART_1_TX*%
X164190001Y-74570001D03*
%TO.P,U1,21*%
%TO.N,Net-(U1-Pad21)*%
X164190001Y-77110001D03*
%TO.P,U1,22*%
%TO.N,GND*%
X164190001Y-79650001D03*
%TO.P,U1,23*%
%TO.N,SPI_SCL*%
X164190001Y-82190001D03*
%TO.P,U1,24*%
%TO.N,SPI_MOSI*%
X164190001Y-84730001D03*
%TO.P,U1,25*%
%TO.N,LCD_DC*%
X164190001Y-87270001D03*
%TO.P,U1,26*%
%TO.N,LCD_CS*%
X164190001Y-89810001D03*
%TO.P,U1,27*%
%TO.N,Net-(U1-Pad27)*%
X164190001Y-92350001D03*
%TO.P,U1,28*%
%TO.N,Net-(U1-Pad28)*%
X164190001Y-94890001D03*
%TO.P,U1,29*%
%TO.N,GND*%
X164190001Y-97430001D03*
%TO.P,U1,30*%
%TO.N,Net-(U1-Pad30)*%
X164190001Y-99970001D03*
%TD*%
D16*
%TO.P,R3,2*%
%TO.N,Net-(R3-Pad2)*%
X112160000Y-46500000D03*
D12*
%TO.P,R3,1*%
%TO.N,Net-(R3-Pad1)*%
X102000000Y-46500000D03*
%TD*%
%TO.P,R4,1*%
%TO.N,Net-(J4-Pad8)*%
X112160000Y-43000000D03*
D16*
%TO.P,R4,2*%
%TO.N,Net-(R3-Pad1)*%
X102000000Y-43000000D03*
%TD*%
D17*
%TO.N,*%
X139500000Y-44000000D03*
X139500000Y-57000000D03*
X139500000Y-63000000D03*
X139500000Y-49000000D03*
X139500000Y-64000000D03*
X139500000Y-50000000D03*
X139500000Y-51000000D03*
X139500000Y-52000000D03*
X139500000Y-45000000D03*
X139500000Y-46000000D03*
X139500000Y-47000000D03*
X139500000Y-48000000D03*
X139500000Y-39000000D03*
%TO.N,+5V*%
X139500000Y-54000000D03*
X139500000Y-55000000D03*
X139500000Y-53000000D03*
X136500000Y-54500000D03*
X139500000Y-56000000D03*
X143000000Y-54500000D03*
%TO.N,GND*%
X139500000Y-43000000D03*
X139500000Y-42000000D03*
X139500000Y-41000000D03*
X139500000Y-40000000D03*
X120000000Y-54500000D03*
X123000000Y-54500000D03*
X150500000Y-75500000D03*
X155000000Y-72000000D03*
X155000000Y-80500000D03*
X155000000Y-64500000D03*
X120000000Y-60500000D03*
X136000000Y-41500000D03*
%TO.N,I2C_SDA*%
X152000000Y-67000000D03*
%TO.N,LCD_CS*%
X139500000Y-62000000D03*
X148000000Y-69500000D03*
%TO.N,LCD_RST*%
X139500000Y-58000000D03*
X149500000Y-58000000D03*
X132500000Y-57500000D03*
%TO.N,LCD_DC*%
X139500000Y-61000000D03*
X149000000Y-69000000D03*
%TO.N,SPI_SCL*%
X139500000Y-59000000D03*
X149500000Y-59000000D03*
X129500000Y-57000000D03*
%TO.N,SPI_MOSI*%
X139500000Y-60000000D03*
X149500000Y-60000000D03*
%TD*%
D18*
%TO.N,+5V*%
X147000000Y-53960002D02*
X147000000Y-53500000D01*
X147470001Y-99970001D02*
X150500000Y-103000000D01*
X150500000Y-103000000D02*
X156000000Y-103000000D01*
X142532082Y-99970001D02*
X145500000Y-97002083D01*
X141330001Y-99970001D02*
X142532082Y-99970001D01*
X145500000Y-99500000D02*
X145029999Y-99970001D01*
X145500000Y-97002083D02*
X145500000Y-99500000D01*
X145029999Y-99970001D02*
X147470001Y-99970001D01*
X141330001Y-99970001D02*
X145029999Y-99970001D01*
X145500000Y-98000000D02*
X147470001Y-99970001D01*
X145500000Y-97002083D02*
X145500000Y-98000000D01*
D19*
X139500000Y-53000000D02*
X141500000Y-53000000D01*
X137000000Y-54000000D02*
X136500000Y-54500000D01*
X139500000Y-54000000D02*
X137000000Y-54000000D01*
X139500000Y-55000000D02*
X137000000Y-55000000D01*
X137000000Y-55000000D02*
X136500000Y-54500000D01*
X138000000Y-53000000D02*
X136500000Y-54500000D01*
X139500000Y-53000000D02*
X138000000Y-53000000D01*
X139500000Y-56000000D02*
X141500000Y-56000000D01*
X138000000Y-56000000D02*
X136500000Y-54500000D01*
X139500000Y-56000000D02*
X138000000Y-56000000D01*
D20*
X136500000Y-54500000D02*
X130000000Y-54500000D01*
X129200000Y-53700000D02*
X129200000Y-51500000D01*
X130000000Y-54500000D02*
X129200000Y-53700000D01*
D19*
X139500000Y-54000000D02*
X142500000Y-54000000D01*
X141500000Y-53000000D02*
X143000000Y-54500000D01*
X142500000Y-55000000D02*
X143000000Y-54500000D01*
X139500000Y-55000000D02*
X142500000Y-55000000D01*
X141500000Y-56000000D02*
X143000000Y-54500000D01*
D20*
X143000000Y-54500000D02*
X147000000Y-54500000D01*
D18*
X147000000Y-53500000D02*
X147000000Y-54500000D01*
X151500000Y-43000000D02*
X156000000Y-43000000D01*
X158000000Y-45000000D02*
X158000000Y-47000000D01*
X156000000Y-43000000D02*
X158000000Y-45000000D01*
X158000000Y-45000000D02*
X158000000Y-44500000D01*
X159500000Y-43000000D02*
X160500000Y-43000000D01*
X158000000Y-44500000D02*
X159500000Y-43000000D01*
X147000000Y-53500000D02*
X147000000Y-51500000D01*
X147000000Y-51500000D02*
X148500000Y-50000000D01*
X148500000Y-50000000D02*
X156000000Y-50000000D01*
X158000000Y-48000000D02*
X158000000Y-47000000D01*
X156000000Y-50000000D02*
X158000000Y-48000000D01*
D20*
X142500000Y-54000000D02*
X143000000Y-54500000D01*
X142500000Y-46500000D02*
X142500000Y-54000000D01*
X129200000Y-51500000D02*
X126700000Y-49000000D01*
X126700000Y-49000000D02*
X123000000Y-49000000D01*
X122000000Y-48000000D02*
X122000000Y-45250000D01*
X123000000Y-49000000D02*
X122000000Y-48000000D01*
D18*
X145000000Y-87100000D02*
X146700000Y-88800000D01*
X145000000Y-69500000D02*
X145000000Y-87100000D01*
X147000000Y-67500000D02*
X145000000Y-69500000D01*
X147000000Y-54500000D02*
X147000000Y-67500000D01*
X145500000Y-90000000D02*
X146700000Y-88800000D01*
X145500000Y-97002083D02*
X145500000Y-90000000D01*
X145500000Y-87600000D02*
X145000000Y-87100000D01*
X145500000Y-90000000D02*
X145500000Y-87600000D01*
D19*
%TO.N,GND*%
X139500000Y-40000000D02*
X141000000Y-40000000D01*
X141500000Y-40500000D02*
X142500000Y-40500000D01*
X141000000Y-40000000D02*
X141500000Y-40500000D01*
X139500000Y-41000000D02*
X141000000Y-41000000D01*
X141000000Y-41000000D02*
X141500000Y-40500000D01*
X139500000Y-43000000D02*
X141000000Y-43000000D01*
X141000000Y-43000000D02*
X142000000Y-42000000D01*
X142000000Y-42000000D02*
X142500000Y-42000000D01*
X139500000Y-42000000D02*
X142000000Y-42000000D01*
X136500000Y-41000000D02*
X136000000Y-41500000D01*
X139500000Y-41000000D02*
X136500000Y-41000000D01*
X137500000Y-40000000D02*
X136000000Y-41500000D01*
X139500000Y-40000000D02*
X137500000Y-40000000D01*
X136500000Y-42000000D02*
X136000000Y-41500000D01*
X139500000Y-42000000D02*
X136500000Y-42000000D01*
X137500000Y-43000000D02*
X136000000Y-41500000D01*
X139500000Y-43000000D02*
X137500000Y-43000000D01*
D20*
%TO.N,I2C_SDA*%
X154320000Y-91160000D02*
X156000000Y-92840000D01*
X154320000Y-88800000D02*
X154320000Y-91160000D01*
X153490001Y-69490001D02*
X164190001Y-69490001D01*
X152000000Y-68000000D02*
X153490001Y-69490001D01*
X152000000Y-67000000D02*
X152000000Y-68000000D01*
%TO.N,I2C_SCL*%
X151780000Y-91560000D02*
X150500000Y-92840000D01*
X151780000Y-88800000D02*
X151780000Y-91560000D01*
D19*
%TO.N,LCD_CS*%
X159300001Y-76855999D02*
X158544035Y-76100033D01*
X159300001Y-84920001D02*
X159300001Y-76855999D01*
X164190001Y-89810001D02*
X159300001Y-84920001D01*
X158544035Y-76100033D02*
X153100033Y-76100033D01*
X148000000Y-71000000D02*
X148000000Y-69500000D01*
X153100033Y-76100033D02*
X148000000Y-71000000D01*
%TO.N,LCD_RST*%
X164190001Y-64410001D02*
X164190001Y-62190001D01*
X160000000Y-58000000D02*
X149500000Y-58000000D01*
X164190001Y-62190001D02*
X160000000Y-58000000D01*
X132500000Y-57500000D02*
X131500000Y-58500000D01*
X131500000Y-58500000D02*
X121500000Y-58500000D01*
X119040000Y-56040000D02*
X119040000Y-51500000D01*
X121500000Y-58500000D02*
X119040000Y-56040000D01*
%TO.N,LCD_DC*%
X160000010Y-76500010D02*
X158900022Y-75400022D01*
X160000010Y-83080010D02*
X160000010Y-76500010D01*
X164190001Y-87270001D02*
X160000010Y-83080010D01*
X158900022Y-75400022D02*
X153400022Y-75400022D01*
X153400022Y-75400022D02*
X150000000Y-72000000D01*
X149000000Y-71000000D02*
X149000000Y-69000000D01*
X150000000Y-72000000D02*
X149000000Y-71000000D01*
%TO.N,SPI_SCL*%
X162690001Y-82190001D02*
X161400032Y-80900032D01*
X161400032Y-80900032D02*
X161400032Y-75900032D01*
X150500000Y-59000000D02*
X149500000Y-59000000D01*
X161400032Y-75900032D02*
X159500000Y-74000000D01*
X151000000Y-60000000D02*
X151000000Y-59500000D01*
X164190001Y-82190001D02*
X162690001Y-82190001D01*
X154500000Y-74000000D02*
X154000000Y-74000000D01*
X159500000Y-74000000D02*
X154500000Y-74000000D01*
X154000000Y-74000000D02*
X151000000Y-71000000D01*
X151000000Y-71000000D02*
X151000000Y-60000000D01*
X151000000Y-59500000D02*
X150500000Y-59000000D01*
X129500000Y-57000000D02*
X129000000Y-56500000D01*
X129000000Y-56500000D02*
X125500000Y-56500000D01*
X124120000Y-55120000D02*
X124120000Y-51500000D01*
X125500000Y-56500000D02*
X124120000Y-55120000D01*
%TO.N,SPI_MOSI*%
X150000000Y-60000000D02*
X149500000Y-60000000D01*
X150299990Y-60299990D02*
X150000000Y-60000000D01*
X150299990Y-71289953D02*
X150299990Y-60299990D01*
X160700021Y-81240021D02*
X160700021Y-76200021D01*
X150500000Y-71489963D02*
X150299990Y-71289953D01*
X153700011Y-74700011D02*
X150500000Y-71500000D01*
X159200011Y-74700011D02*
X153700011Y-74700011D01*
X160700021Y-76200021D02*
X159200011Y-74700011D01*
X150500000Y-71500000D02*
X150500000Y-71489963D01*
X164190001Y-84730001D02*
X160700021Y-81240021D01*
D20*
%TO.N,Net-(R3-Pad2)*%
X112160000Y-46500000D02*
X113500000Y-46500000D01*
X113500000Y-46500000D02*
X119500000Y-40500000D01*
X119500000Y-40500000D02*
X125500000Y-40500000D01*
X126000000Y-41000000D02*
X126000000Y-42750000D01*
X125500000Y-40500000D02*
X126000000Y-41000000D01*
D18*
%TO.N,Net-(R3-Pad1)*%
X102000000Y-43000000D02*
X102000000Y-46500000D01*
%TD*%
D21*
%TO.N,GND*%
X156846525Y-78426632D02*
X157053368Y-78633475D01*
X157296589Y-78795990D01*
X157566842Y-78907932D01*
X157853740Y-78965000D01*
X158146260Y-78965000D01*
X158415002Y-78911544D01*
X158415001Y-84876532D01*
X158410720Y-84920001D01*
X158415001Y-84963470D01*
X158415001Y-84963477D01*
X158427806Y-85093490D01*
X158478412Y-85260313D01*
X158560590Y-85414059D01*
X158671184Y-85548818D01*
X158704957Y-85576535D01*
X160486629Y-87358207D01*
X160374482Y-87324188D01*
X160250000Y-87311928D01*
X158550000Y-87311928D01*
X158425518Y-87324188D01*
X158305820Y-87360498D01*
X158195506Y-87419463D01*
X158098815Y-87498815D01*
X158019463Y-87595506D01*
X157960498Y-87705820D01*
X157938487Y-87778380D01*
X157806632Y-87646525D01*
X157563411Y-87484010D01*
X157293158Y-87372068D01*
X157006260Y-87315000D01*
X156713740Y-87315000D01*
X156426842Y-87372068D01*
X156156589Y-87484010D01*
X155913368Y-87646525D01*
X155706525Y-87853368D01*
X155590000Y-88027760D01*
X155473475Y-87853368D01*
X155266632Y-87646525D01*
X155023411Y-87484010D01*
X154753158Y-87372068D01*
X154466260Y-87315000D01*
X154173740Y-87315000D01*
X153886842Y-87372068D01*
X153616589Y-87484010D01*
X153373368Y-87646525D01*
X153166525Y-87853368D01*
X153050000Y-88027760D01*
X152933475Y-87853368D01*
X152726632Y-87646525D01*
X152483411Y-87484010D01*
X152213158Y-87372068D01*
X151926260Y-87315000D01*
X151633740Y-87315000D01*
X151346842Y-87372068D01*
X151076589Y-87484010D01*
X150833368Y-87646525D01*
X150626525Y-87853368D01*
X150504805Y-88035534D01*
X150435178Y-87918645D01*
X150240269Y-87702412D01*
X150006920Y-87528359D01*
X149744099Y-87403175D01*
X149596890Y-87358524D01*
X149367000Y-87479845D01*
X149367000Y-88673000D01*
X149387000Y-88673000D01*
X149387000Y-88927000D01*
X149367000Y-88927000D01*
X149367000Y-90120155D01*
X149596890Y-90241476D01*
X149744099Y-90196825D01*
X150006920Y-90071641D01*
X150240269Y-89897588D01*
X150435178Y-89681355D01*
X150504805Y-89564466D01*
X150626525Y-89746632D01*
X150645000Y-89765107D01*
X150645001Y-91089867D01*
X150322718Y-91412150D01*
X150081426Y-91460147D01*
X149820273Y-91568320D01*
X149585241Y-91725363D01*
X149385363Y-91925241D01*
X149228320Y-92160273D01*
X149120147Y-92421426D01*
X149065000Y-92698665D01*
X149065000Y-92981335D01*
X149120147Y-93258574D01*
X149228320Y-93519727D01*
X149385363Y-93754759D01*
X149585241Y-93954637D01*
X149820273Y-94111680D01*
X150081426Y-94219853D01*
X150358665Y-94275000D01*
X150641335Y-94275000D01*
X150918574Y-94219853D01*
X151179727Y-94111680D01*
X151414759Y-93954637D01*
X151614637Y-93754759D01*
X151771680Y-93519727D01*
X151879853Y-93258574D01*
X151927850Y-93017282D01*
X152543140Y-92401992D01*
X152586449Y-92366449D01*
X152728284Y-92193623D01*
X152833676Y-91996447D01*
X152898577Y-91782499D01*
X152915000Y-91615752D01*
X152915000Y-91615743D01*
X152920490Y-91560001D01*
X152915000Y-91504259D01*
X152915000Y-89765107D01*
X152933475Y-89746632D01*
X153050000Y-89572240D01*
X153166525Y-89746632D01*
X153185000Y-89765107D01*
X153185001Y-91104239D01*
X153179509Y-91160000D01*
X153201423Y-91382498D01*
X153266324Y-91596446D01*
X153291160Y-91642911D01*
X153371717Y-91793623D01*
X153513552Y-91966449D01*
X153556860Y-92001991D01*
X154572150Y-93017282D01*
X154620147Y-93258574D01*
X154728320Y-93519727D01*
X154885363Y-93754759D01*
X155085241Y-93954637D01*
X155320273Y-94111680D01*
X155581426Y-94219853D01*
X155858665Y-94275000D01*
X156141335Y-94275000D01*
X156418574Y-94219853D01*
X156679727Y-94111680D01*
X156914759Y-93954637D01*
X157114637Y-93754759D01*
X157271680Y-93519727D01*
X157379853Y-93258574D01*
X157435000Y-92981335D01*
X157435000Y-92698665D01*
X157379853Y-92421426D01*
X157271680Y-92160273D01*
X157114637Y-91925241D01*
X156914759Y-91725363D01*
X156679727Y-91568320D01*
X156418574Y-91460147D01*
X156177282Y-91412150D01*
X155455000Y-90689869D01*
X155455000Y-89765107D01*
X155473475Y-89746632D01*
X155590000Y-89572240D01*
X155706525Y-89746632D01*
X155913368Y-89953475D01*
X156156589Y-90115990D01*
X156426842Y-90227932D01*
X156713740Y-90285000D01*
X157006260Y-90285000D01*
X157293158Y-90227932D01*
X157563411Y-90115990D01*
X157806632Y-89953475D01*
X157938487Y-89821620D01*
X157960498Y-89894180D01*
X158019463Y-90004494D01*
X158098815Y-90101185D01*
X158195506Y-90180537D01*
X158305820Y-90239502D01*
X158425518Y-90275812D01*
X158550000Y-90288072D01*
X160250000Y-90288072D01*
X160374482Y-90275812D01*
X160494180Y-90239502D01*
X160604494Y-90180537D01*
X160701185Y-90101185D01*
X160780537Y-90004494D01*
X160839502Y-89894180D01*
X160875812Y-89774482D01*
X160888072Y-89650000D01*
X160888072Y-87950000D01*
X160875812Y-87825518D01*
X160841793Y-87713371D01*
X162719462Y-89591041D01*
X162705001Y-89663741D01*
X162705001Y-89956261D01*
X162762069Y-90243159D01*
X162874011Y-90513412D01*
X163036526Y-90756633D01*
X163243369Y-90963476D01*
X163417761Y-91080001D01*
X163243369Y-91196526D01*
X163036526Y-91403369D01*
X162874011Y-91646590D01*
X162762069Y-91916843D01*
X162705001Y-92203741D01*
X162705001Y-92496261D01*
X162762069Y-92783159D01*
X162874011Y-93053412D01*
X163036526Y-93296633D01*
X163243369Y-93503476D01*
X163417761Y-93620001D01*
X163243369Y-93736526D01*
X163036526Y-93943369D01*
X162874011Y-94186590D01*
X162762069Y-94456843D01*
X162705001Y-94743741D01*
X162705001Y-95036261D01*
X162762069Y-95323159D01*
X162874011Y-95593412D01*
X163036526Y-95836633D01*
X163243369Y-96043476D01*
X163416730Y-96159312D01*
X163341209Y-96401604D01*
X164190001Y-97250396D01*
X165038793Y-96401604D01*
X164963272Y-96159312D01*
X165136633Y-96043476D01*
X165340000Y-95840109D01*
X165340000Y-96619112D01*
X165218398Y-96581209D01*
X164369606Y-97430001D01*
X165218398Y-98278793D01*
X165340000Y-98240890D01*
X165340000Y-99019893D01*
X165136633Y-98816526D01*
X164963272Y-98700690D01*
X165038793Y-98458398D01*
X164190001Y-97609606D01*
X163341209Y-98458398D01*
X163416730Y-98700690D01*
X163243369Y-98816526D01*
X163036526Y-99023369D01*
X162874011Y-99266590D01*
X162762069Y-99536843D01*
X162705001Y-99823741D01*
X162705001Y-100116261D01*
X162762069Y-100403159D01*
X162874011Y-100673412D01*
X163036526Y-100916633D01*
X163243369Y-101123476D01*
X163486590Y-101285991D01*
X163756843Y-101397933D01*
X164043741Y-101455001D01*
X164336261Y-101455001D01*
X164623159Y-101397933D01*
X164893412Y-101285991D01*
X165136633Y-101123476D01*
X165340000Y-100920109D01*
X165340000Y-105840000D01*
X140160000Y-105840000D01*
X140160000Y-101121617D01*
X140168287Y-101131715D01*
X140417249Y-101336032D01*
X140701286Y-101487853D01*
X141009485Y-101581344D01*
X141249679Y-101605001D01*
X142451763Y-101605001D01*
X142532082Y-101612912D01*
X142612401Y-101605001D01*
X144949680Y-101605001D01*
X145029999Y-101612912D01*
X145110318Y-101605001D01*
X146792763Y-101605001D01*
X149287084Y-104099324D01*
X149338286Y-104161714D01*
X149587248Y-104366031D01*
X149716280Y-104435000D01*
X149871285Y-104517852D01*
X150179483Y-104611343D01*
X150500000Y-104642911D01*
X150580322Y-104635000D01*
X156080322Y-104635000D01*
X156320516Y-104611343D01*
X156628715Y-104517852D01*
X156912752Y-104366031D01*
X157161714Y-104161714D01*
X157366031Y-103912752D01*
X157517852Y-103628715D01*
X157611343Y-103320516D01*
X157642911Y-103000000D01*
X157611343Y-102679484D01*
X157517852Y-102371285D01*
X157366031Y-102087248D01*
X157161714Y-101838286D01*
X156912752Y-101633969D01*
X156628715Y-101482148D01*
X156320516Y-101388657D01*
X156080322Y-101365000D01*
X151177240Y-101365000D01*
X148682925Y-98870687D01*
X148631715Y-98808287D01*
X148569319Y-98757081D01*
X147310770Y-97498532D01*
X162699390Y-97498532D01*
X162741402Y-97788020D01*
X162839082Y-98063748D01*
X162912529Y-98201158D01*
X163161604Y-98278793D01*
X164010396Y-97430001D01*
X163161604Y-96581209D01*
X162912529Y-96658844D01*
X162786630Y-96922884D01*
X162714662Y-97206412D01*
X162699390Y-97498532D01*
X147310770Y-97498532D01*
X147135000Y-97322762D01*
X147135000Y-97082403D01*
X147142911Y-97002083D01*
X147135000Y-96921761D01*
X147135000Y-90677238D01*
X147799327Y-90012912D01*
X147861713Y-89961713D01*
X147912911Y-89899328D01*
X147912915Y-89899324D01*
X148066030Y-89712753D01*
X148068671Y-89707813D01*
X148239731Y-89897588D01*
X148473080Y-90071641D01*
X148735901Y-90196825D01*
X148883110Y-90241476D01*
X149113000Y-90120155D01*
X149113000Y-88927000D01*
X149093000Y-88927000D01*
X149093000Y-88673000D01*
X149113000Y-88673000D01*
X149113000Y-87479845D01*
X148883110Y-87358524D01*
X148735901Y-87403175D01*
X148473080Y-87528359D01*
X148239731Y-87702412D01*
X148068671Y-87892187D01*
X148066030Y-87887247D01*
X147912915Y-87700676D01*
X147912911Y-87700672D01*
X147861713Y-87638287D01*
X147799327Y-87587088D01*
X146712923Y-86500685D01*
X146661714Y-86438286D01*
X146635000Y-86416362D01*
X146635000Y-78349519D01*
X146686525Y-78426632D01*
X146893368Y-78633475D01*
X147136589Y-78795990D01*
X147406842Y-78907932D01*
X147693740Y-78965000D01*
X147986260Y-78965000D01*
X148273158Y-78907932D01*
X148543411Y-78795990D01*
X148786632Y-78633475D01*
X148993475Y-78426632D01*
X149110000Y-78252240D01*
X149226525Y-78426632D01*
X149433368Y-78633475D01*
X149676589Y-78795990D01*
X149946842Y-78907932D01*
X150233740Y-78965000D01*
X150526260Y-78965000D01*
X150813158Y-78907932D01*
X151083411Y-78795990D01*
X151326632Y-78633475D01*
X151533475Y-78426632D01*
X151650000Y-78252240D01*
X151766525Y-78426632D01*
X151973368Y-78633475D01*
X152216589Y-78795990D01*
X152486842Y-78907932D01*
X152773740Y-78965000D01*
X153066260Y-78965000D01*
X153353158Y-78907932D01*
X153623411Y-78795990D01*
X153866632Y-78633475D01*
X154073475Y-78426632D01*
X154190000Y-78252240D01*
X154306525Y-78426632D01*
X154513368Y-78633475D01*
X154756589Y-78795990D01*
X155026842Y-78907932D01*
X155313740Y-78965000D01*
X155606260Y-78965000D01*
X155893158Y-78907932D01*
X156163411Y-78795990D01*
X156406632Y-78633475D01*
X156613475Y-78426632D01*
X156730000Y-78252240D01*
X156846525Y-78426632D01*
%TA.AperFunction,Conductor*%
D22*
G36*
X156846525Y-78426632D02*
G01*
X157053368Y-78633475D01*
X157296589Y-78795990D01*
X157566842Y-78907932D01*
X157853740Y-78965000D01*
X158146260Y-78965000D01*
X158415002Y-78911544D01*
X158415001Y-84876532D01*
X158410720Y-84920001D01*
X158415001Y-84963470D01*
X158415001Y-84963477D01*
X158427806Y-85093490D01*
X158478412Y-85260313D01*
X158560590Y-85414059D01*
X158671184Y-85548818D01*
X158704957Y-85576535D01*
X160486629Y-87358207D01*
X160374482Y-87324188D01*
X160250000Y-87311928D01*
X158550000Y-87311928D01*
X158425518Y-87324188D01*
X158305820Y-87360498D01*
X158195506Y-87419463D01*
X158098815Y-87498815D01*
X158019463Y-87595506D01*
X157960498Y-87705820D01*
X157938487Y-87778380D01*
X157806632Y-87646525D01*
X157563411Y-87484010D01*
X157293158Y-87372068D01*
X157006260Y-87315000D01*
X156713740Y-87315000D01*
X156426842Y-87372068D01*
X156156589Y-87484010D01*
X155913368Y-87646525D01*
X155706525Y-87853368D01*
X155590000Y-88027760D01*
X155473475Y-87853368D01*
X155266632Y-87646525D01*
X155023411Y-87484010D01*
X154753158Y-87372068D01*
X154466260Y-87315000D01*
X154173740Y-87315000D01*
X153886842Y-87372068D01*
X153616589Y-87484010D01*
X153373368Y-87646525D01*
X153166525Y-87853368D01*
X153050000Y-88027760D01*
X152933475Y-87853368D01*
X152726632Y-87646525D01*
X152483411Y-87484010D01*
X152213158Y-87372068D01*
X151926260Y-87315000D01*
X151633740Y-87315000D01*
X151346842Y-87372068D01*
X151076589Y-87484010D01*
X150833368Y-87646525D01*
X150626525Y-87853368D01*
X150504805Y-88035534D01*
X150435178Y-87918645D01*
X150240269Y-87702412D01*
X150006920Y-87528359D01*
X149744099Y-87403175D01*
X149596890Y-87358524D01*
X149367000Y-87479845D01*
X149367000Y-88673000D01*
X149387000Y-88673000D01*
X149387000Y-88927000D01*
X149367000Y-88927000D01*
X149367000Y-90120155D01*
X149596890Y-90241476D01*
X149744099Y-90196825D01*
X150006920Y-90071641D01*
X150240269Y-89897588D01*
X150435178Y-89681355D01*
X150504805Y-89564466D01*
X150626525Y-89746632D01*
X150645000Y-89765107D01*
X150645001Y-91089867D01*
X150322718Y-91412150D01*
X150081426Y-91460147D01*
X149820273Y-91568320D01*
X149585241Y-91725363D01*
X149385363Y-91925241D01*
X149228320Y-92160273D01*
X149120147Y-92421426D01*
X149065000Y-92698665D01*
X149065000Y-92981335D01*
X149120147Y-93258574D01*
X149228320Y-93519727D01*
X149385363Y-93754759D01*
X149585241Y-93954637D01*
X149820273Y-94111680D01*
X150081426Y-94219853D01*
X150358665Y-94275000D01*
X150641335Y-94275000D01*
X150918574Y-94219853D01*
X151179727Y-94111680D01*
X151414759Y-93954637D01*
X151614637Y-93754759D01*
X151771680Y-93519727D01*
X151879853Y-93258574D01*
X151927850Y-93017282D01*
X152543140Y-92401992D01*
X152586449Y-92366449D01*
X152728284Y-92193623D01*
X152833676Y-91996447D01*
X152898577Y-91782499D01*
X152915000Y-91615752D01*
X152915000Y-91615743D01*
X152920490Y-91560001D01*
X152915000Y-91504259D01*
X152915000Y-89765107D01*
X152933475Y-89746632D01*
X153050000Y-89572240D01*
X153166525Y-89746632D01*
X153185000Y-89765107D01*
X153185001Y-91104239D01*
X153179509Y-91160000D01*
X153201423Y-91382498D01*
X153266324Y-91596446D01*
X153291160Y-91642911D01*
X153371717Y-91793623D01*
X153513552Y-91966449D01*
X153556860Y-92001991D01*
X154572150Y-93017282D01*
X154620147Y-93258574D01*
X154728320Y-93519727D01*
X154885363Y-93754759D01*
X155085241Y-93954637D01*
X155320273Y-94111680D01*
X155581426Y-94219853D01*
X155858665Y-94275000D01*
X156141335Y-94275000D01*
X156418574Y-94219853D01*
X156679727Y-94111680D01*
X156914759Y-93954637D01*
X157114637Y-93754759D01*
X157271680Y-93519727D01*
X157379853Y-93258574D01*
X157435000Y-92981335D01*
X157435000Y-92698665D01*
X157379853Y-92421426D01*
X157271680Y-92160273D01*
X157114637Y-91925241D01*
X156914759Y-91725363D01*
X156679727Y-91568320D01*
X156418574Y-91460147D01*
X156177282Y-91412150D01*
X155455000Y-90689869D01*
X155455000Y-89765107D01*
X155473475Y-89746632D01*
X155590000Y-89572240D01*
X155706525Y-89746632D01*
X155913368Y-89953475D01*
X156156589Y-90115990D01*
X156426842Y-90227932D01*
X156713740Y-90285000D01*
X157006260Y-90285000D01*
X157293158Y-90227932D01*
X157563411Y-90115990D01*
X157806632Y-89953475D01*
X157938487Y-89821620D01*
X157960498Y-89894180D01*
X158019463Y-90004494D01*
X158098815Y-90101185D01*
X158195506Y-90180537D01*
X158305820Y-90239502D01*
X158425518Y-90275812D01*
X158550000Y-90288072D01*
X160250000Y-90288072D01*
X160374482Y-90275812D01*
X160494180Y-90239502D01*
X160604494Y-90180537D01*
X160701185Y-90101185D01*
X160780537Y-90004494D01*
X160839502Y-89894180D01*
X160875812Y-89774482D01*
X160888072Y-89650000D01*
X160888072Y-87950000D01*
X160875812Y-87825518D01*
X160841793Y-87713371D01*
X162719462Y-89591041D01*
X162705001Y-89663741D01*
X162705001Y-89956261D01*
X162762069Y-90243159D01*
X162874011Y-90513412D01*
X163036526Y-90756633D01*
X163243369Y-90963476D01*
X163417761Y-91080001D01*
X163243369Y-91196526D01*
X163036526Y-91403369D01*
X162874011Y-91646590D01*
X162762069Y-91916843D01*
X162705001Y-92203741D01*
X162705001Y-92496261D01*
X162762069Y-92783159D01*
X162874011Y-93053412D01*
X163036526Y-93296633D01*
X163243369Y-93503476D01*
X163417761Y-93620001D01*
X163243369Y-93736526D01*
X163036526Y-93943369D01*
X162874011Y-94186590D01*
X162762069Y-94456843D01*
X162705001Y-94743741D01*
X162705001Y-95036261D01*
X162762069Y-95323159D01*
X162874011Y-95593412D01*
X163036526Y-95836633D01*
X163243369Y-96043476D01*
X163416730Y-96159312D01*
X163341209Y-96401604D01*
X164190001Y-97250396D01*
X165038793Y-96401604D01*
X164963272Y-96159312D01*
X165136633Y-96043476D01*
X165340000Y-95840109D01*
X165340000Y-96619112D01*
X165218398Y-96581209D01*
X164369606Y-97430001D01*
X165218398Y-98278793D01*
X165340000Y-98240890D01*
X165340000Y-99019893D01*
X165136633Y-98816526D01*
X164963272Y-98700690D01*
X165038793Y-98458398D01*
X164190001Y-97609606D01*
X163341209Y-98458398D01*
X163416730Y-98700690D01*
X163243369Y-98816526D01*
X163036526Y-99023369D01*
X162874011Y-99266590D01*
X162762069Y-99536843D01*
X162705001Y-99823741D01*
X162705001Y-100116261D01*
X162762069Y-100403159D01*
X162874011Y-100673412D01*
X163036526Y-100916633D01*
X163243369Y-101123476D01*
X163486590Y-101285991D01*
X163756843Y-101397933D01*
X164043741Y-101455001D01*
X164336261Y-101455001D01*
X164623159Y-101397933D01*
X164893412Y-101285991D01*
X165136633Y-101123476D01*
X165340000Y-100920109D01*
X165340000Y-105840000D01*
X140160000Y-105840000D01*
X140160000Y-101121617D01*
X140168287Y-101131715D01*
X140417249Y-101336032D01*
X140701286Y-101487853D01*
X141009485Y-101581344D01*
X141249679Y-101605001D01*
X142451763Y-101605001D01*
X142532082Y-101612912D01*
X142612401Y-101605001D01*
X144949680Y-101605001D01*
X145029999Y-101612912D01*
X145110318Y-101605001D01*
X146792763Y-101605001D01*
X149287084Y-104099324D01*
X149338286Y-104161714D01*
X149587248Y-104366031D01*
X149716280Y-104435000D01*
X149871285Y-104517852D01*
X150179483Y-104611343D01*
X150500000Y-104642911D01*
X150580322Y-104635000D01*
X156080322Y-104635000D01*
X156320516Y-104611343D01*
X156628715Y-104517852D01*
X156912752Y-104366031D01*
X157161714Y-104161714D01*
X157366031Y-103912752D01*
X157517852Y-103628715D01*
X157611343Y-103320516D01*
X157642911Y-103000000D01*
X157611343Y-102679484D01*
X157517852Y-102371285D01*
X157366031Y-102087248D01*
X157161714Y-101838286D01*
X156912752Y-101633969D01*
X156628715Y-101482148D01*
X156320516Y-101388657D01*
X156080322Y-101365000D01*
X151177240Y-101365000D01*
X148682925Y-98870687D01*
X148631715Y-98808287D01*
X148569319Y-98757081D01*
X147310770Y-97498532D01*
X162699390Y-97498532D01*
X162741402Y-97788020D01*
X162839082Y-98063748D01*
X162912529Y-98201158D01*
X163161604Y-98278793D01*
X164010396Y-97430001D01*
X163161604Y-96581209D01*
X162912529Y-96658844D01*
X162786630Y-96922884D01*
X162714662Y-97206412D01*
X162699390Y-97498532D01*
X147310770Y-97498532D01*
X147135000Y-97322762D01*
X147135000Y-97082403D01*
X147142911Y-97002083D01*
X147135000Y-96921761D01*
X147135000Y-90677238D01*
X147799327Y-90012912D01*
X147861713Y-89961713D01*
X147912911Y-89899328D01*
X147912915Y-89899324D01*
X148066030Y-89712753D01*
X148068671Y-89707813D01*
X148239731Y-89897588D01*
X148473080Y-90071641D01*
X148735901Y-90196825D01*
X148883110Y-90241476D01*
X149113000Y-90120155D01*
X149113000Y-88927000D01*
X149093000Y-88927000D01*
X149093000Y-88673000D01*
X149113000Y-88673000D01*
X149113000Y-87479845D01*
X148883110Y-87358524D01*
X148735901Y-87403175D01*
X148473080Y-87528359D01*
X148239731Y-87702412D01*
X148068671Y-87892187D01*
X148066030Y-87887247D01*
X147912915Y-87700676D01*
X147912911Y-87700672D01*
X147861713Y-87638287D01*
X147799327Y-87587088D01*
X146712923Y-86500685D01*
X146661714Y-86438286D01*
X146635000Y-86416362D01*
X146635000Y-78349519D01*
X146686525Y-78426632D01*
X146893368Y-78633475D01*
X147136589Y-78795990D01*
X147406842Y-78907932D01*
X147693740Y-78965000D01*
X147986260Y-78965000D01*
X148273158Y-78907932D01*
X148543411Y-78795990D01*
X148786632Y-78633475D01*
X148993475Y-78426632D01*
X149110000Y-78252240D01*
X149226525Y-78426632D01*
X149433368Y-78633475D01*
X149676589Y-78795990D01*
X149946842Y-78907932D01*
X150233740Y-78965000D01*
X150526260Y-78965000D01*
X150813158Y-78907932D01*
X151083411Y-78795990D01*
X151326632Y-78633475D01*
X151533475Y-78426632D01*
X151650000Y-78252240D01*
X151766525Y-78426632D01*
X151973368Y-78633475D01*
X152216589Y-78795990D01*
X152486842Y-78907932D01*
X152773740Y-78965000D01*
X153066260Y-78965000D01*
X153353158Y-78907932D01*
X153623411Y-78795990D01*
X153866632Y-78633475D01*
X154073475Y-78426632D01*
X154190000Y-78252240D01*
X154306525Y-78426632D01*
X154513368Y-78633475D01*
X154756589Y-78795990D01*
X155026842Y-78907932D01*
X155313740Y-78965000D01*
X155606260Y-78965000D01*
X155893158Y-78907932D01*
X156163411Y-78795990D01*
X156406632Y-78633475D01*
X156613475Y-78426632D01*
X156730000Y-78252240D01*
X156846525Y-78426632D01*
G37*
%TD.AperFunction*%
D21*
X145365001Y-66822760D02*
X143900687Y-68287075D01*
X143838286Y-68338286D01*
X143633969Y-68587249D01*
X143482148Y-68871286D01*
X143388657Y-69179485D01*
X143367129Y-69398061D01*
X143357089Y-69500000D01*
X143365000Y-69580319D01*
X143365001Y-87019671D01*
X143357089Y-87100000D01*
X143388658Y-87420516D01*
X143482148Y-87728714D01*
X143573071Y-87898818D01*
X143633970Y-88012752D01*
X143838287Y-88261714D01*
X143865001Y-88283637D01*
X143865000Y-89919678D01*
X143857089Y-90000000D01*
X143865000Y-90080319D01*
X143865000Y-90080321D01*
X143865001Y-90080331D01*
X143865000Y-96324844D01*
X142820184Y-97369661D01*
X142820612Y-97361470D01*
X142778600Y-97071982D01*
X142680920Y-96796254D01*
X142607473Y-96658844D01*
X142358398Y-96581209D01*
X141509606Y-97430001D01*
X141523749Y-97444144D01*
X141344144Y-97623749D01*
X141330001Y-97609606D01*
X140481209Y-98458398D01*
X140510969Y-98553876D01*
X140417249Y-98603970D01*
X140168287Y-98808287D01*
X140160000Y-98818385D01*
X140160000Y-98234656D01*
X140301604Y-98278793D01*
X141150396Y-97430001D01*
X140301604Y-96581209D01*
X140160000Y-96625346D01*
X140160000Y-95811900D01*
X140176526Y-95836633D01*
X140383369Y-96043476D01*
X140556730Y-96159312D01*
X140481209Y-96401604D01*
X141330001Y-97250396D01*
X142178793Y-96401604D01*
X142103272Y-96159312D01*
X142276633Y-96043476D01*
X142483476Y-95836633D01*
X142645991Y-95593412D01*
X142757933Y-95323159D01*
X142815001Y-95036261D01*
X142815001Y-94743741D01*
X142757933Y-94456843D01*
X142645991Y-94186590D01*
X142483476Y-93943369D01*
X142276633Y-93736526D01*
X142102241Y-93620001D01*
X142276633Y-93503476D01*
X142483476Y-93296633D01*
X142645991Y-93053412D01*
X142757933Y-92783159D01*
X142815001Y-92496261D01*
X142815001Y-92203741D01*
X142757933Y-91916843D01*
X142645991Y-91646590D01*
X142483476Y-91403369D01*
X142276633Y-91196526D01*
X142102241Y-91080001D01*
X142276633Y-90963476D01*
X142483476Y-90756633D01*
X142645991Y-90513412D01*
X142757933Y-90243159D01*
X142815001Y-89956261D01*
X142815001Y-89663741D01*
X142757933Y-89376843D01*
X142645991Y-89106590D01*
X142483476Y-88863369D01*
X142276633Y-88656526D01*
X142103272Y-88540690D01*
X142178793Y-88298398D01*
X141330001Y-87449606D01*
X140481209Y-88298398D01*
X140556730Y-88540690D01*
X140383369Y-88656526D01*
X140176526Y-88863369D01*
X140160000Y-88888102D01*
X140160000Y-88074656D01*
X140301604Y-88118793D01*
X141150396Y-87270001D01*
X141509606Y-87270001D01*
X142358398Y-88118793D01*
X142607473Y-88041158D01*
X142733372Y-87777118D01*
X142805340Y-87493590D01*
X142820612Y-87201470D01*
X142778600Y-86911982D01*
X142680920Y-86636254D01*
X142607473Y-86498844D01*
X142358398Y-86421209D01*
X141509606Y-87270001D01*
X141150396Y-87270001D01*
X140301604Y-86421209D01*
X140160000Y-86465346D01*
X140160000Y-85651900D01*
X140176526Y-85676633D01*
X140383369Y-85883476D01*
X140556730Y-85999312D01*
X140481209Y-86241604D01*
X141330001Y-87090396D01*
X142178793Y-86241604D01*
X142103272Y-85999312D01*
X142276633Y-85883476D01*
X142483476Y-85676633D01*
X142645991Y-85433412D01*
X142757933Y-85163159D01*
X142815001Y-84876261D01*
X142815001Y-84583741D01*
X142757933Y-84296843D01*
X142645991Y-84026590D01*
X142483476Y-83783369D01*
X142276633Y-83576526D01*
X142102241Y-83460001D01*
X142276633Y-83343476D01*
X142483476Y-83136633D01*
X142645991Y-82893412D01*
X142757933Y-82623159D01*
X142815001Y-82336261D01*
X142815001Y-82043741D01*
X142757933Y-81756843D01*
X142645991Y-81486590D01*
X142483476Y-81243369D01*
X142276633Y-81036526D01*
X142102241Y-80920001D01*
X142276633Y-80803476D01*
X142483476Y-80596633D01*
X142645991Y-80353412D01*
X142757933Y-80083159D01*
X142815001Y-79796261D01*
X142815001Y-79503741D01*
X142757933Y-79216843D01*
X142645991Y-78946590D01*
X142483476Y-78703369D01*
X142276633Y-78496526D01*
X142102241Y-78380001D01*
X142276633Y-78263476D01*
X142483476Y-78056633D01*
X142645991Y-77813412D01*
X142757933Y-77543159D01*
X142815001Y-77256261D01*
X142815001Y-76963741D01*
X142757933Y-76676843D01*
X142645991Y-76406590D01*
X142483476Y-76163369D01*
X142276633Y-75956526D01*
X142102241Y-75840001D01*
X142276633Y-75723476D01*
X142483476Y-75516633D01*
X142645991Y-75273412D01*
X142757933Y-75003159D01*
X142815001Y-74716261D01*
X142815001Y-74423741D01*
X142757933Y-74136843D01*
X142645991Y-73866590D01*
X142483476Y-73623369D01*
X142276633Y-73416526D01*
X142102241Y-73300001D01*
X142276633Y-73183476D01*
X142483476Y-72976633D01*
X142645991Y-72733412D01*
X142757933Y-72463159D01*
X142815001Y-72176261D01*
X142815001Y-71883741D01*
X142757933Y-71596843D01*
X142645991Y-71326590D01*
X142483476Y-71083369D01*
X142276633Y-70876526D01*
X142102241Y-70760001D01*
X142276633Y-70643476D01*
X142483476Y-70436633D01*
X142645991Y-70193412D01*
X142757933Y-69923159D01*
X142815001Y-69636261D01*
X142815001Y-69343741D01*
X142757933Y-69056843D01*
X142645991Y-68786590D01*
X142483476Y-68543369D01*
X142276633Y-68336526D01*
X142102241Y-68220001D01*
X142276633Y-68103476D01*
X142483476Y-67896633D01*
X142645991Y-67653412D01*
X142757933Y-67383159D01*
X142815001Y-67096261D01*
X142815001Y-66803741D01*
X142757933Y-66516843D01*
X142645991Y-66246590D01*
X142483476Y-66003369D01*
X142351621Y-65871514D01*
X142424181Y-65849503D01*
X142534495Y-65790538D01*
X142631186Y-65711186D01*
X142710538Y-65614495D01*
X142769503Y-65504181D01*
X142805813Y-65384483D01*
X142818073Y-65260001D01*
X142818073Y-63560001D01*
X142805813Y-63435519D01*
X142769503Y-63315821D01*
X142710538Y-63205507D01*
X142631186Y-63108816D01*
X142534495Y-63029464D01*
X142424181Y-62970499D01*
X142304483Y-62934189D01*
X142180001Y-62921929D01*
X140627000Y-62921929D01*
X140627000Y-56885000D01*
X141456531Y-56885000D01*
X141500000Y-56889281D01*
X141543469Y-56885000D01*
X141543477Y-56885000D01*
X141673490Y-56872195D01*
X141840313Y-56821589D01*
X141994059Y-56739411D01*
X142128817Y-56628817D01*
X142156534Y-56595044D01*
X143095047Y-55656531D01*
X143121283Y-55635000D01*
X145365000Y-55635000D01*
X145365001Y-66822760D01*
%TA.AperFunction,Conductor*%
D22*
G36*
X145365001Y-66822760D02*
G01*
X143900687Y-68287075D01*
X143838286Y-68338286D01*
X143633969Y-68587249D01*
X143482148Y-68871286D01*
X143388657Y-69179485D01*
X143367129Y-69398061D01*
X143357089Y-69500000D01*
X143365000Y-69580319D01*
X143365001Y-87019671D01*
X143357089Y-87100000D01*
X143388658Y-87420516D01*
X143482148Y-87728714D01*
X143573071Y-87898818D01*
X143633970Y-88012752D01*
X143838287Y-88261714D01*
X143865001Y-88283637D01*
X143865000Y-89919678D01*
X143857089Y-90000000D01*
X143865000Y-90080319D01*
X143865000Y-90080321D01*
X143865001Y-90080331D01*
X143865000Y-96324844D01*
X142820184Y-97369661D01*
X142820612Y-97361470D01*
X142778600Y-97071982D01*
X142680920Y-96796254D01*
X142607473Y-96658844D01*
X142358398Y-96581209D01*
X141509606Y-97430001D01*
X141523749Y-97444144D01*
X141344144Y-97623749D01*
X141330001Y-97609606D01*
X140481209Y-98458398D01*
X140510969Y-98553876D01*
X140417249Y-98603970D01*
X140168287Y-98808287D01*
X140160000Y-98818385D01*
X140160000Y-98234656D01*
X140301604Y-98278793D01*
X141150396Y-97430001D01*
X140301604Y-96581209D01*
X140160000Y-96625346D01*
X140160000Y-95811900D01*
X140176526Y-95836633D01*
X140383369Y-96043476D01*
X140556730Y-96159312D01*
X140481209Y-96401604D01*
X141330001Y-97250396D01*
X142178793Y-96401604D01*
X142103272Y-96159312D01*
X142276633Y-96043476D01*
X142483476Y-95836633D01*
X142645991Y-95593412D01*
X142757933Y-95323159D01*
X142815001Y-95036261D01*
X142815001Y-94743741D01*
X142757933Y-94456843D01*
X142645991Y-94186590D01*
X142483476Y-93943369D01*
X142276633Y-93736526D01*
X142102241Y-93620001D01*
X142276633Y-93503476D01*
X142483476Y-93296633D01*
X142645991Y-93053412D01*
X142757933Y-92783159D01*
X142815001Y-92496261D01*
X142815001Y-92203741D01*
X142757933Y-91916843D01*
X142645991Y-91646590D01*
X142483476Y-91403369D01*
X142276633Y-91196526D01*
X142102241Y-91080001D01*
X142276633Y-90963476D01*
X142483476Y-90756633D01*
X142645991Y-90513412D01*
X142757933Y-90243159D01*
X142815001Y-89956261D01*
X142815001Y-89663741D01*
X142757933Y-89376843D01*
X142645991Y-89106590D01*
X142483476Y-88863369D01*
X142276633Y-88656526D01*
X142103272Y-88540690D01*
X142178793Y-88298398D01*
X141330001Y-87449606D01*
X140481209Y-88298398D01*
X140556730Y-88540690D01*
X140383369Y-88656526D01*
X140176526Y-88863369D01*
X140160000Y-88888102D01*
X140160000Y-88074656D01*
X140301604Y-88118793D01*
X141150396Y-87270001D01*
X141509606Y-87270001D01*
X142358398Y-88118793D01*
X142607473Y-88041158D01*
X142733372Y-87777118D01*
X142805340Y-87493590D01*
X142820612Y-87201470D01*
X142778600Y-86911982D01*
X142680920Y-86636254D01*
X142607473Y-86498844D01*
X142358398Y-86421209D01*
X141509606Y-87270001D01*
X141150396Y-87270001D01*
X140301604Y-86421209D01*
X140160000Y-86465346D01*
X140160000Y-85651900D01*
X140176526Y-85676633D01*
X140383369Y-85883476D01*
X140556730Y-85999312D01*
X140481209Y-86241604D01*
X141330001Y-87090396D01*
X142178793Y-86241604D01*
X142103272Y-85999312D01*
X142276633Y-85883476D01*
X142483476Y-85676633D01*
X142645991Y-85433412D01*
X142757933Y-85163159D01*
X142815001Y-84876261D01*
X142815001Y-84583741D01*
X142757933Y-84296843D01*
X142645991Y-84026590D01*
X142483476Y-83783369D01*
X142276633Y-83576526D01*
X142102241Y-83460001D01*
X142276633Y-83343476D01*
X142483476Y-83136633D01*
X142645991Y-82893412D01*
X142757933Y-82623159D01*
X142815001Y-82336261D01*
X142815001Y-82043741D01*
X142757933Y-81756843D01*
X142645991Y-81486590D01*
X142483476Y-81243369D01*
X142276633Y-81036526D01*
X142102241Y-80920001D01*
X142276633Y-80803476D01*
X142483476Y-80596633D01*
X142645991Y-80353412D01*
X142757933Y-80083159D01*
X142815001Y-79796261D01*
X142815001Y-79503741D01*
X142757933Y-79216843D01*
X142645991Y-78946590D01*
X142483476Y-78703369D01*
X142276633Y-78496526D01*
X142102241Y-78380001D01*
X142276633Y-78263476D01*
X142483476Y-78056633D01*
X142645991Y-77813412D01*
X142757933Y-77543159D01*
X142815001Y-77256261D01*
X142815001Y-76963741D01*
X142757933Y-76676843D01*
X142645991Y-76406590D01*
X142483476Y-76163369D01*
X142276633Y-75956526D01*
X142102241Y-75840001D01*
X142276633Y-75723476D01*
X142483476Y-75516633D01*
X142645991Y-75273412D01*
X142757933Y-75003159D01*
X142815001Y-74716261D01*
X142815001Y-74423741D01*
X142757933Y-74136843D01*
X142645991Y-73866590D01*
X142483476Y-73623369D01*
X142276633Y-73416526D01*
X142102241Y-73300001D01*
X142276633Y-73183476D01*
X142483476Y-72976633D01*
X142645991Y-72733412D01*
X142757933Y-72463159D01*
X142815001Y-72176261D01*
X142815001Y-71883741D01*
X142757933Y-71596843D01*
X142645991Y-71326590D01*
X142483476Y-71083369D01*
X142276633Y-70876526D01*
X142102241Y-70760001D01*
X142276633Y-70643476D01*
X142483476Y-70436633D01*
X142645991Y-70193412D01*
X142757933Y-69923159D01*
X142815001Y-69636261D01*
X142815001Y-69343741D01*
X142757933Y-69056843D01*
X142645991Y-68786590D01*
X142483476Y-68543369D01*
X142276633Y-68336526D01*
X142102241Y-68220001D01*
X142276633Y-68103476D01*
X142483476Y-67896633D01*
X142645991Y-67653412D01*
X142757933Y-67383159D01*
X142815001Y-67096261D01*
X142815001Y-66803741D01*
X142757933Y-66516843D01*
X142645991Y-66246590D01*
X142483476Y-66003369D01*
X142351621Y-65871514D01*
X142424181Y-65849503D01*
X142534495Y-65790538D01*
X142631186Y-65711186D01*
X142710538Y-65614495D01*
X142769503Y-65504181D01*
X142805813Y-65384483D01*
X142818073Y-65260001D01*
X142818073Y-63560001D01*
X142805813Y-63435519D01*
X142769503Y-63315821D01*
X142710538Y-63205507D01*
X142631186Y-63108816D01*
X142534495Y-63029464D01*
X142424181Y-62970499D01*
X142304483Y-62934189D01*
X142180001Y-62921929D01*
X140627000Y-62921929D01*
X140627000Y-56885000D01*
X141456531Y-56885000D01*
X141500000Y-56889281D01*
X141543469Y-56885000D01*
X141543477Y-56885000D01*
X141673490Y-56872195D01*
X141840313Y-56821589D01*
X141994059Y-56739411D01*
X142128817Y-56628817D01*
X142156534Y-56595044D01*
X143095047Y-55656531D01*
X143121283Y-55635000D01*
X145365000Y-55635000D01*
X145365001Y-66822760D01*
G37*
%TD.AperFunction*%
D21*
X152648014Y-70253147D02*
X152683552Y-70296450D01*
X152726855Y-70331988D01*
X152726857Y-70331990D01*
X152825266Y-70412752D01*
X152856378Y-70438285D01*
X153053554Y-70543677D01*
X153267502Y-70608578D01*
X153360811Y-70617768D01*
X153490001Y-70630492D01*
X153545753Y-70625001D01*
X163224894Y-70625001D01*
X163243369Y-70643476D01*
X163417761Y-70760001D01*
X163243369Y-70876526D01*
X163036526Y-71083369D01*
X162874011Y-71326590D01*
X162762069Y-71596843D01*
X162705001Y-71883741D01*
X162705001Y-72176261D01*
X162762069Y-72463159D01*
X162874011Y-72733412D01*
X163036526Y-72976633D01*
X163243369Y-73183476D01*
X163417761Y-73300001D01*
X163243369Y-73416526D01*
X163036526Y-73623369D01*
X162874011Y-73866590D01*
X162762069Y-74136843D01*
X162705001Y-74423741D01*
X162705001Y-74716261D01*
X162762069Y-75003159D01*
X162874011Y-75273412D01*
X163036526Y-75516633D01*
X163243369Y-75723476D01*
X163417761Y-75840001D01*
X163243369Y-75956526D01*
X163036526Y-76163369D01*
X162874011Y-76406590D01*
X162762069Y-76676843D01*
X162705001Y-76963741D01*
X162705001Y-77256261D01*
X162762069Y-77543159D01*
X162874011Y-77813412D01*
X163036526Y-78056633D01*
X163243369Y-78263476D01*
X163416730Y-78379312D01*
X163341209Y-78621604D01*
X164190001Y-79470396D01*
X165038793Y-78621604D01*
X164963272Y-78379312D01*
X165136633Y-78263476D01*
X165340000Y-78060109D01*
X165340000Y-78839112D01*
X165218398Y-78801209D01*
X164369606Y-79650001D01*
X165218398Y-80498793D01*
X165340000Y-80460890D01*
X165340000Y-81239893D01*
X165136633Y-81036526D01*
X164963272Y-80920690D01*
X165038793Y-80678398D01*
X164190001Y-79829606D01*
X163341209Y-80678398D01*
X163416730Y-80920690D01*
X163243369Y-81036526D01*
X163036526Y-81243369D01*
X163019872Y-81268293D01*
X162285032Y-80533454D01*
X162285032Y-79718532D01*
X162699390Y-79718532D01*
X162741402Y-80008020D01*
X162839082Y-80283748D01*
X162912529Y-80421158D01*
X163161604Y-80498793D01*
X164010396Y-79650001D01*
X163161604Y-78801209D01*
X162912529Y-78878844D01*
X162786630Y-79142884D01*
X162714662Y-79426412D01*
X162699390Y-79718532D01*
X162285032Y-79718532D01*
X162285032Y-75943498D01*
X162289313Y-75900031D01*
X162285032Y-75856565D01*
X162285032Y-75856555D01*
X162272227Y-75726542D01*
X162221621Y-75559719D01*
X162139443Y-75405973D01*
X162102224Y-75360622D01*
X162056564Y-75304985D01*
X162056562Y-75304983D01*
X162028849Y-75271215D01*
X161995081Y-75243502D01*
X160156534Y-73404956D01*
X160128817Y-73371183D01*
X159994059Y-73260589D01*
X159840313Y-73178411D01*
X159673490Y-73127805D01*
X159543477Y-73115000D01*
X159543469Y-73115000D01*
X159500000Y-73110719D01*
X159456531Y-73115000D01*
X154366579Y-73115000D01*
X151885000Y-70633422D01*
X151885000Y-69490132D01*
X152648014Y-70253147D01*
%TA.AperFunction,Conductor*%
D22*
G36*
X152648014Y-70253147D02*
G01*
X152683552Y-70296450D01*
X152726855Y-70331988D01*
X152726857Y-70331990D01*
X152825266Y-70412752D01*
X152856378Y-70438285D01*
X153053554Y-70543677D01*
X153267502Y-70608578D01*
X153360811Y-70617768D01*
X153490001Y-70630492D01*
X153545753Y-70625001D01*
X163224894Y-70625001D01*
X163243369Y-70643476D01*
X163417761Y-70760001D01*
X163243369Y-70876526D01*
X163036526Y-71083369D01*
X162874011Y-71326590D01*
X162762069Y-71596843D01*
X162705001Y-71883741D01*
X162705001Y-72176261D01*
X162762069Y-72463159D01*
X162874011Y-72733412D01*
X163036526Y-72976633D01*
X163243369Y-73183476D01*
X163417761Y-73300001D01*
X163243369Y-73416526D01*
X163036526Y-73623369D01*
X162874011Y-73866590D01*
X162762069Y-74136843D01*
X162705001Y-74423741D01*
X162705001Y-74716261D01*
X162762069Y-75003159D01*
X162874011Y-75273412D01*
X163036526Y-75516633D01*
X163243369Y-75723476D01*
X163417761Y-75840001D01*
X163243369Y-75956526D01*
X163036526Y-76163369D01*
X162874011Y-76406590D01*
X162762069Y-76676843D01*
X162705001Y-76963741D01*
X162705001Y-77256261D01*
X162762069Y-77543159D01*
X162874011Y-77813412D01*
X163036526Y-78056633D01*
X163243369Y-78263476D01*
X163416730Y-78379312D01*
X163341209Y-78621604D01*
X164190001Y-79470396D01*
X165038793Y-78621604D01*
X164963272Y-78379312D01*
X165136633Y-78263476D01*
X165340000Y-78060109D01*
X165340000Y-78839112D01*
X165218398Y-78801209D01*
X164369606Y-79650001D01*
X165218398Y-80498793D01*
X165340000Y-80460890D01*
X165340000Y-81239893D01*
X165136633Y-81036526D01*
X164963272Y-80920690D01*
X165038793Y-80678398D01*
X164190001Y-79829606D01*
X163341209Y-80678398D01*
X163416730Y-80920690D01*
X163243369Y-81036526D01*
X163036526Y-81243369D01*
X163019872Y-81268293D01*
X162285032Y-80533454D01*
X162285032Y-79718532D01*
X162699390Y-79718532D01*
X162741402Y-80008020D01*
X162839082Y-80283748D01*
X162912529Y-80421158D01*
X163161604Y-80498793D01*
X164010396Y-79650001D01*
X163161604Y-78801209D01*
X162912529Y-78878844D01*
X162786630Y-79142884D01*
X162714662Y-79426412D01*
X162699390Y-79718532D01*
X162285032Y-79718532D01*
X162285032Y-75943498D01*
X162289313Y-75900031D01*
X162285032Y-75856565D01*
X162285032Y-75856555D01*
X162272227Y-75726542D01*
X162221621Y-75559719D01*
X162139443Y-75405973D01*
X162102224Y-75360622D01*
X162056564Y-75304985D01*
X162056562Y-75304983D01*
X162028849Y-75271215D01*
X161995081Y-75243502D01*
X160156534Y-73404956D01*
X160128817Y-73371183D01*
X159994059Y-73260589D01*
X159840313Y-73178411D01*
X159673490Y-73127805D01*
X159543477Y-73115000D01*
X159543469Y-73115000D01*
X159500000Y-73110719D01*
X159456531Y-73115000D01*
X154366579Y-73115000D01*
X151885000Y-70633422D01*
X151885000Y-69490132D01*
X152648014Y-70253147D01*
G37*
%TD.AperFunction*%
D21*
X147082795Y-69990256D02*
X147115001Y-70038455D01*
X147115000Y-70956530D01*
X147110719Y-71000000D01*
X147115000Y-71043469D01*
X147115000Y-71043476D01*
X147127805Y-71173489D01*
X147178411Y-71340312D01*
X147260589Y-71494058D01*
X147371183Y-71628817D01*
X147404956Y-71656534D01*
X152034260Y-76285839D01*
X151973368Y-76326525D01*
X151766525Y-76533368D01*
X151650000Y-76707760D01*
X151533475Y-76533368D01*
X151326632Y-76326525D01*
X151083411Y-76164010D01*
X150813158Y-76052068D01*
X150526260Y-75995000D01*
X150233740Y-75995000D01*
X149946842Y-76052068D01*
X149676589Y-76164010D01*
X149433368Y-76326525D01*
X149226525Y-76533368D01*
X149110000Y-76707760D01*
X148993475Y-76533368D01*
X148786632Y-76326525D01*
X148543411Y-76164010D01*
X148273158Y-76052068D01*
X147986260Y-75995000D01*
X147693740Y-75995000D01*
X147406842Y-76052068D01*
X147136589Y-76164010D01*
X146893368Y-76326525D01*
X146686525Y-76533368D01*
X146635000Y-76610481D01*
X146635000Y-70177238D01*
X147006404Y-69805834D01*
X147082795Y-69990256D01*
%TA.AperFunction,Conductor*%
D22*
G36*
X147082795Y-69990256D02*
G01*
X147115001Y-70038455D01*
X147115000Y-70956530D01*
X147110719Y-71000000D01*
X147115000Y-71043469D01*
X147115000Y-71043476D01*
X147127805Y-71173489D01*
X147178411Y-71340312D01*
X147260589Y-71494058D01*
X147371183Y-71628817D01*
X147404956Y-71656534D01*
X152034260Y-76285839D01*
X151973368Y-76326525D01*
X151766525Y-76533368D01*
X151650000Y-76707760D01*
X151533475Y-76533368D01*
X151326632Y-76326525D01*
X151083411Y-76164010D01*
X150813158Y-76052068D01*
X150526260Y-75995000D01*
X150233740Y-75995000D01*
X149946842Y-76052068D01*
X149676589Y-76164010D01*
X149433368Y-76326525D01*
X149226525Y-76533368D01*
X149110000Y-76707760D01*
X148993475Y-76533368D01*
X148786632Y-76326525D01*
X148543411Y-76164010D01*
X148273158Y-76052068D01*
X147986260Y-75995000D01*
X147693740Y-75995000D01*
X147406842Y-76052068D01*
X147136589Y-76164010D01*
X146893368Y-76326525D01*
X146686525Y-76533368D01*
X146635000Y-76610481D01*
X146635000Y-70177238D01*
X147006404Y-69805834D01*
X147082795Y-69990256D01*
G37*
%TD.AperFunction*%
D21*
X163305002Y-62556581D02*
X163305002Y-63215344D01*
X163243369Y-63256526D01*
X163036526Y-63463369D01*
X162874011Y-63706590D01*
X162762069Y-63976843D01*
X162705001Y-64263741D01*
X162705001Y-64556261D01*
X162762069Y-64843159D01*
X162874011Y-65113412D01*
X163036526Y-65356633D01*
X163243369Y-65563476D01*
X163417761Y-65680001D01*
X163243369Y-65796526D01*
X163036526Y-66003369D01*
X162874011Y-66246590D01*
X162762069Y-66516843D01*
X162705001Y-66803741D01*
X162705001Y-67096261D01*
X162762069Y-67383159D01*
X162874011Y-67653412D01*
X163036526Y-67896633D01*
X163243369Y-68103476D01*
X163417761Y-68220001D01*
X163243369Y-68336526D01*
X163224894Y-68355001D01*
X153960134Y-68355001D01*
X153135000Y-67529869D01*
X153135000Y-66944248D01*
X153118577Y-66777501D01*
X153053676Y-66563553D01*
X152948284Y-66366377D01*
X152806449Y-66193551D01*
X152633623Y-66051716D01*
X152436446Y-65946324D01*
X152222498Y-65881423D01*
X152000000Y-65859509D01*
X151885000Y-65870835D01*
X151885000Y-59543469D01*
X151889281Y-59500000D01*
X151885000Y-59456531D01*
X151885000Y-59456523D01*
X151872195Y-59326510D01*
X151821589Y-59159687D01*
X151739411Y-59005941D01*
X151640156Y-58885000D01*
X159633422Y-58885000D01*
X163305002Y-62556581D01*
%TA.AperFunction,Conductor*%
D22*
G36*
X163305002Y-62556581D02*
G01*
X163305002Y-63215344D01*
X163243369Y-63256526D01*
X163036526Y-63463369D01*
X162874011Y-63706590D01*
X162762069Y-63976843D01*
X162705001Y-64263741D01*
X162705001Y-64556261D01*
X162762069Y-64843159D01*
X162874011Y-65113412D01*
X163036526Y-65356633D01*
X163243369Y-65563476D01*
X163417761Y-65680001D01*
X163243369Y-65796526D01*
X163036526Y-66003369D01*
X162874011Y-66246590D01*
X162762069Y-66516843D01*
X162705001Y-66803741D01*
X162705001Y-67096261D01*
X162762069Y-67383159D01*
X162874011Y-67653412D01*
X163036526Y-67896633D01*
X163243369Y-68103476D01*
X163417761Y-68220001D01*
X163243369Y-68336526D01*
X163224894Y-68355001D01*
X153960134Y-68355001D01*
X153135000Y-67529869D01*
X153135000Y-66944248D01*
X153118577Y-66777501D01*
X153053676Y-66563553D01*
X152948284Y-66366377D01*
X152806449Y-66193551D01*
X152633623Y-66051716D01*
X152436446Y-65946324D01*
X152222498Y-65881423D01*
X152000000Y-65859509D01*
X151885000Y-65870835D01*
X151885000Y-59543469D01*
X151889281Y-59500000D01*
X151885000Y-59456531D01*
X151885000Y-59456523D01*
X151872195Y-59326510D01*
X151821589Y-59159687D01*
X151739411Y-59005941D01*
X151640156Y-58885000D01*
X159633422Y-58885000D01*
X163305002Y-62556581D01*
G37*
%TD.AperFunction*%
D21*
X150883708Y-39196397D02*
X150758486Y-39263329D01*
X150686903Y-39507298D01*
X151500000Y-40320395D01*
X152313097Y-39507298D01*
X152241514Y-39263329D01*
X152023139Y-39160000D01*
X159985485Y-39160000D01*
X159883708Y-39196397D01*
X159758486Y-39263329D01*
X159686903Y-39507298D01*
X160500000Y-40320395D01*
X161313097Y-39507298D01*
X161241514Y-39263329D01*
X161023139Y-39160000D01*
X165340001Y-39160000D01*
X165340001Y-63459894D01*
X165136633Y-63256526D01*
X165075001Y-63215345D01*
X165075001Y-62233466D01*
X165079282Y-62190000D01*
X165075001Y-62146534D01*
X165075001Y-62146524D01*
X165062196Y-62016511D01*
X165011590Y-61849688D01*
X164929412Y-61695942D01*
X164818818Y-61561184D01*
X164785050Y-61533471D01*
X160656534Y-57404956D01*
X160628817Y-57371183D01*
X160494059Y-57260589D01*
X160340313Y-57178411D01*
X160173490Y-57127805D01*
X160043477Y-57115000D01*
X160043469Y-57115000D01*
X160000000Y-57110719D01*
X159956531Y-57115000D01*
X150038454Y-57115000D01*
X149990256Y-57082795D01*
X149801898Y-57004774D01*
X149601939Y-56965000D01*
X149398061Y-56965000D01*
X149198102Y-57004774D01*
X149009744Y-57082795D01*
X148840226Y-57196063D01*
X148696063Y-57340226D01*
X148635000Y-57431613D01*
X148635000Y-52177238D01*
X149177239Y-51635000D01*
X155919681Y-51635000D01*
X156000000Y-51642911D01*
X156080319Y-51635000D01*
X156080322Y-51635000D01*
X156320516Y-51611343D01*
X156628715Y-51517852D01*
X156912752Y-51366031D01*
X157161714Y-51161714D01*
X157212925Y-51099313D01*
X159099320Y-49212919D01*
X159161714Y-49161714D01*
X159366031Y-48912752D01*
X159517852Y-48628715D01*
X159611343Y-48320516D01*
X159635000Y-48080322D01*
X159635000Y-48080320D01*
X159642911Y-48000001D01*
X159635000Y-47919681D01*
X159635000Y-45177238D01*
X160177239Y-44635000D01*
X160580322Y-44635000D01*
X160820516Y-44611343D01*
X161128715Y-44517852D01*
X161277973Y-44438072D01*
X161300000Y-44438072D01*
X161424482Y-44425812D01*
X161544180Y-44389502D01*
X161654494Y-44330537D01*
X161751185Y-44251185D01*
X161830537Y-44154494D01*
X161889502Y-44044180D01*
X161925812Y-43924482D01*
X161938072Y-43800000D01*
X161938072Y-43777973D01*
X162017852Y-43628715D01*
X162111343Y-43320516D01*
X162142911Y-43000000D01*
X162111343Y-42679484D01*
X162017852Y-42371285D01*
X161938072Y-42222027D01*
X161938072Y-42200000D01*
X161925812Y-42075518D01*
X161889502Y-41955820D01*
X161830537Y-41845506D01*
X161751185Y-41748815D01*
X161654494Y-41669463D01*
X161544180Y-41610498D01*
X161424482Y-41574188D01*
X161300000Y-41561928D01*
X161292785Y-41561928D01*
X161313097Y-41492702D01*
X160500000Y-40679605D01*
X160485858Y-40693748D01*
X160306253Y-40514143D01*
X160320395Y-40500000D01*
X160679605Y-40500000D01*
X161492702Y-41313097D01*
X161736671Y-41241514D01*
X161857571Y-40986004D01*
X161926300Y-40711816D01*
X161940217Y-40429488D01*
X161898787Y-40149870D01*
X161803603Y-39883708D01*
X161736671Y-39758486D01*
X161492702Y-39686903D01*
X160679605Y-40500000D01*
X160320395Y-40500000D01*
X159507298Y-39686903D01*
X159263329Y-39758486D01*
X159142429Y-40013996D01*
X159073700Y-40288184D01*
X159059783Y-40570512D01*
X159101213Y-40850130D01*
X159196397Y-41116292D01*
X159263329Y-41241514D01*
X159507296Y-41313097D01*
X159459295Y-41361098D01*
X159419680Y-41365000D01*
X159419678Y-41365000D01*
X159179484Y-41388657D01*
X158871285Y-41482148D01*
X158587248Y-41633969D01*
X158338286Y-41838286D01*
X158287079Y-41900682D01*
X157750000Y-42437762D01*
X157212925Y-41900687D01*
X157161714Y-41838286D01*
X156912752Y-41633969D01*
X156628715Y-41482148D01*
X156320516Y-41388657D01*
X156080322Y-41365000D01*
X156080319Y-41365000D01*
X156000000Y-41357089D01*
X155919681Y-41365000D01*
X152544607Y-41365000D01*
X152492704Y-41313097D01*
X152736671Y-41241514D01*
X152857571Y-40986004D01*
X152926300Y-40711816D01*
X152940217Y-40429488D01*
X152898787Y-40149870D01*
X152803603Y-39883708D01*
X152736671Y-39758486D01*
X152492702Y-39686903D01*
X151679605Y-40500000D01*
X151693748Y-40514143D01*
X151514143Y-40693748D01*
X151500000Y-40679605D01*
X150686903Y-41492702D01*
X150707215Y-41561928D01*
X150700000Y-41561928D01*
X150575518Y-41574188D01*
X150455820Y-41610498D01*
X150345506Y-41669463D01*
X150248815Y-41748815D01*
X150169463Y-41845506D01*
X150110498Y-41955820D01*
X150074188Y-42075518D01*
X150061928Y-42200000D01*
X150061928Y-42222027D01*
X149982148Y-42371285D01*
X149888657Y-42679484D01*
X149857089Y-43000000D01*
X149888657Y-43320516D01*
X149982148Y-43628715D01*
X150061928Y-43777973D01*
X150061928Y-43800000D01*
X150074188Y-43924482D01*
X150110498Y-44044180D01*
X150169463Y-44154494D01*
X150248815Y-44251185D01*
X150345506Y-44330537D01*
X150455820Y-44389502D01*
X150575518Y-44425812D01*
X150700000Y-44438072D01*
X150722027Y-44438072D01*
X150871285Y-44517852D01*
X151179484Y-44611343D01*
X151419678Y-44635000D01*
X155322762Y-44635000D01*
X156365000Y-45677239D01*
X156365000Y-45915392D01*
X156308791Y-45971601D01*
X156231157Y-45722528D01*
X155967117Y-45596629D01*
X155683589Y-45524661D01*
X155391469Y-45509389D01*
X155101981Y-45551401D01*
X154826253Y-45649081D01*
X154688843Y-45722528D01*
X154611208Y-45971603D01*
X155460000Y-46820395D01*
X155474143Y-46806253D01*
X155653748Y-46985858D01*
X155639605Y-47000000D01*
X155653748Y-47014143D01*
X155474143Y-47193748D01*
X155460000Y-47179605D01*
X154611208Y-48028397D01*
X154688843Y-48277472D01*
X154872410Y-48365000D01*
X153505090Y-48365000D01*
X153623411Y-48315990D01*
X153866632Y-48153475D01*
X154073475Y-47946632D01*
X154189311Y-47773271D01*
X154431603Y-47848792D01*
X155280395Y-47000000D01*
X154431603Y-46151208D01*
X154189311Y-46226729D01*
X154073475Y-46053368D01*
X153866632Y-45846525D01*
X153623411Y-45684010D01*
X153353158Y-45572068D01*
X153066260Y-45515000D01*
X152773740Y-45515000D01*
X152486842Y-45572068D01*
X152216589Y-45684010D01*
X151973368Y-45846525D01*
X151766525Y-46053368D01*
X151650000Y-46227760D01*
X151533475Y-46053368D01*
X151326632Y-45846525D01*
X151083411Y-45684010D01*
X150813158Y-45572068D01*
X150526260Y-45515000D01*
X150233740Y-45515000D01*
X149946842Y-45572068D01*
X149676589Y-45684010D01*
X149433368Y-45846525D01*
X149226525Y-46053368D01*
X149064010Y-46296589D01*
X148952068Y-46566842D01*
X148895000Y-46853740D01*
X148895000Y-47146260D01*
X148952068Y-47433158D01*
X149064010Y-47703411D01*
X149226525Y-47946632D01*
X149433368Y-48153475D01*
X149676589Y-48315990D01*
X149794910Y-48365000D01*
X148580319Y-48365000D01*
X148499999Y-48357089D01*
X148419680Y-48365000D01*
X148419678Y-48365000D01*
X148179484Y-48388657D01*
X147871285Y-48482148D01*
X147587248Y-48633969D01*
X147338286Y-48838286D01*
X147287079Y-48900682D01*
X145900682Y-50287080D01*
X145838287Y-50338286D01*
X145713569Y-50490256D01*
X145633970Y-50587248D01*
X145482148Y-50871286D01*
X145388658Y-51179484D01*
X145357089Y-51500000D01*
X145365001Y-51580329D01*
X145365000Y-53365000D01*
X143635000Y-53365000D01*
X143635000Y-47052408D01*
X143711579Y-46867529D01*
X143760000Y-46624099D01*
X143760000Y-46375901D01*
X143711579Y-46132471D01*
X143616598Y-45903166D01*
X143514255Y-45750000D01*
X143616598Y-45596834D01*
X143711579Y-45367529D01*
X143760000Y-45124099D01*
X143760000Y-44875901D01*
X143711579Y-44632471D01*
X143616598Y-44403166D01*
X143514255Y-44250000D01*
X143616598Y-44096834D01*
X143711579Y-43867529D01*
X143760000Y-43624099D01*
X143760000Y-43375901D01*
X143711579Y-43132471D01*
X143616598Y-42903166D01*
X143478706Y-42696797D01*
X143451322Y-42669413D01*
X143593777Y-42637694D01*
X143697168Y-42412056D01*
X143754553Y-42170582D01*
X143763726Y-41922553D01*
X143724335Y-41677501D01*
X143637893Y-41444842D01*
X143593777Y-41362306D01*
X143457663Y-41331999D01*
X143484635Y-41305027D01*
X143429608Y-41250000D01*
X143484635Y-41194973D01*
X143457663Y-41168001D01*
X143593777Y-41137694D01*
X143697168Y-40912056D01*
X143754553Y-40670582D01*
X143758253Y-40570512D01*
X150059783Y-40570512D01*
X150101213Y-40850130D01*
X150196397Y-41116292D01*
X150263329Y-41241514D01*
X150507298Y-41313097D01*
X151320395Y-40500000D01*
X150507298Y-39686903D01*
X150263329Y-39758486D01*
X150142429Y-40013996D01*
X150073700Y-40288184D01*
X150059783Y-40570512D01*
X143758253Y-40570512D01*
X143763726Y-40422553D01*
X143724335Y-40177501D01*
X143637893Y-39944842D01*
X143593777Y-39862306D01*
X143367648Y-39811957D01*
X142679605Y-40500000D01*
X142693748Y-40514143D01*
X142514143Y-40693748D01*
X142500000Y-40679605D01*
X142485858Y-40693748D01*
X142306253Y-40514143D01*
X142320395Y-40500000D01*
X141632352Y-39811957D01*
X141406223Y-39862306D01*
X141302832Y-40087944D01*
X141245447Y-40329418D01*
X141236274Y-40577447D01*
X141275665Y-40822499D01*
X141362107Y-41055158D01*
X141406223Y-41137694D01*
X141542337Y-41168001D01*
X141515365Y-41194973D01*
X141570392Y-41250000D01*
X141515365Y-41305027D01*
X141542337Y-41331999D01*
X141406223Y-41362306D01*
X141302832Y-41587944D01*
X141245447Y-41829418D01*
X141236274Y-42077447D01*
X141275665Y-42322499D01*
X141362107Y-42555158D01*
X141406223Y-42637694D01*
X141548678Y-42669413D01*
X141521294Y-42696797D01*
X141383402Y-42903166D01*
X141288421Y-43132471D01*
X141240000Y-43375901D01*
X141240000Y-43624099D01*
X141288421Y-43867529D01*
X141383402Y-44096834D01*
X141485745Y-44250000D01*
X141383402Y-44403166D01*
X141288421Y-44632471D01*
X141240000Y-44875901D01*
X141240000Y-45124099D01*
X141288421Y-45367529D01*
X141383402Y-45596834D01*
X141485745Y-45750000D01*
X141383402Y-45903166D01*
X141288421Y-46132471D01*
X141240000Y-46375901D01*
X141240000Y-46624099D01*
X141288421Y-46867529D01*
X141365000Y-47052408D01*
X141365001Y-52115000D01*
X140627000Y-52115000D01*
X140627000Y-39632352D01*
X141811957Y-39632352D01*
X142500000Y-40320395D01*
X143188043Y-39632352D01*
X143137694Y-39406223D01*
X142912056Y-39302832D01*
X142670582Y-39245447D01*
X142422553Y-39236274D01*
X142177501Y-39275665D01*
X141944842Y-39362107D01*
X141862306Y-39406223D01*
X141811957Y-39632352D01*
X140627000Y-39632352D01*
X140627000Y-39160000D01*
X150985485Y-39160000D01*
X150883708Y-39196397D01*
%TA.AperFunction,Conductor*%
D22*
G36*
X150883708Y-39196397D02*
G01*
X150758486Y-39263329D01*
X150686903Y-39507298D01*
X151500000Y-40320395D01*
X152313097Y-39507298D01*
X152241514Y-39263329D01*
X152023139Y-39160000D01*
X159985485Y-39160000D01*
X159883708Y-39196397D01*
X159758486Y-39263329D01*
X159686903Y-39507298D01*
X160500000Y-40320395D01*
X161313097Y-39507298D01*
X161241514Y-39263329D01*
X161023139Y-39160000D01*
X165340001Y-39160000D01*
X165340001Y-63459894D01*
X165136633Y-63256526D01*
X165075001Y-63215345D01*
X165075001Y-62233466D01*
X165079282Y-62190000D01*
X165075001Y-62146534D01*
X165075001Y-62146524D01*
X165062196Y-62016511D01*
X165011590Y-61849688D01*
X164929412Y-61695942D01*
X164818818Y-61561184D01*
X164785050Y-61533471D01*
X160656534Y-57404956D01*
X160628817Y-57371183D01*
X160494059Y-57260589D01*
X160340313Y-57178411D01*
X160173490Y-57127805D01*
X160043477Y-57115000D01*
X160043469Y-57115000D01*
X160000000Y-57110719D01*
X159956531Y-57115000D01*
X150038454Y-57115000D01*
X149990256Y-57082795D01*
X149801898Y-57004774D01*
X149601939Y-56965000D01*
X149398061Y-56965000D01*
X149198102Y-57004774D01*
X149009744Y-57082795D01*
X148840226Y-57196063D01*
X148696063Y-57340226D01*
X148635000Y-57431613D01*
X148635000Y-52177238D01*
X149177239Y-51635000D01*
X155919681Y-51635000D01*
X156000000Y-51642911D01*
X156080319Y-51635000D01*
X156080322Y-51635000D01*
X156320516Y-51611343D01*
X156628715Y-51517852D01*
X156912752Y-51366031D01*
X157161714Y-51161714D01*
X157212925Y-51099313D01*
X159099320Y-49212919D01*
X159161714Y-49161714D01*
X159366031Y-48912752D01*
X159517852Y-48628715D01*
X159611343Y-48320516D01*
X159635000Y-48080322D01*
X159635000Y-48080320D01*
X159642911Y-48000001D01*
X159635000Y-47919681D01*
X159635000Y-45177238D01*
X160177239Y-44635000D01*
X160580322Y-44635000D01*
X160820516Y-44611343D01*
X161128715Y-44517852D01*
X161277973Y-44438072D01*
X161300000Y-44438072D01*
X161424482Y-44425812D01*
X161544180Y-44389502D01*
X161654494Y-44330537D01*
X161751185Y-44251185D01*
X161830537Y-44154494D01*
X161889502Y-44044180D01*
X161925812Y-43924482D01*
X161938072Y-43800000D01*
X161938072Y-43777973D01*
X162017852Y-43628715D01*
X162111343Y-43320516D01*
X162142911Y-43000000D01*
X162111343Y-42679484D01*
X162017852Y-42371285D01*
X161938072Y-42222027D01*
X161938072Y-42200000D01*
X161925812Y-42075518D01*
X161889502Y-41955820D01*
X161830537Y-41845506D01*
X161751185Y-41748815D01*
X161654494Y-41669463D01*
X161544180Y-41610498D01*
X161424482Y-41574188D01*
X161300000Y-41561928D01*
X161292785Y-41561928D01*
X161313097Y-41492702D01*
X160500000Y-40679605D01*
X160485858Y-40693748D01*
X160306253Y-40514143D01*
X160320395Y-40500000D01*
X160679605Y-40500000D01*
X161492702Y-41313097D01*
X161736671Y-41241514D01*
X161857571Y-40986004D01*
X161926300Y-40711816D01*
X161940217Y-40429488D01*
X161898787Y-40149870D01*
X161803603Y-39883708D01*
X161736671Y-39758486D01*
X161492702Y-39686903D01*
X160679605Y-40500000D01*
X160320395Y-40500000D01*
X159507298Y-39686903D01*
X159263329Y-39758486D01*
X159142429Y-40013996D01*
X159073700Y-40288184D01*
X159059783Y-40570512D01*
X159101213Y-40850130D01*
X159196397Y-41116292D01*
X159263329Y-41241514D01*
X159507296Y-41313097D01*
X159459295Y-41361098D01*
X159419680Y-41365000D01*
X159419678Y-41365000D01*
X159179484Y-41388657D01*
X158871285Y-41482148D01*
X158587248Y-41633969D01*
X158338286Y-41838286D01*
X158287079Y-41900682D01*
X157750000Y-42437762D01*
X157212925Y-41900687D01*
X157161714Y-41838286D01*
X156912752Y-41633969D01*
X156628715Y-41482148D01*
X156320516Y-41388657D01*
X156080322Y-41365000D01*
X156080319Y-41365000D01*
X156000000Y-41357089D01*
X155919681Y-41365000D01*
X152544607Y-41365000D01*
X152492704Y-41313097D01*
X152736671Y-41241514D01*
X152857571Y-40986004D01*
X152926300Y-40711816D01*
X152940217Y-40429488D01*
X152898787Y-40149870D01*
X152803603Y-39883708D01*
X152736671Y-39758486D01*
X152492702Y-39686903D01*
X151679605Y-40500000D01*
X151693748Y-40514143D01*
X151514143Y-40693748D01*
X151500000Y-40679605D01*
X150686903Y-41492702D01*
X150707215Y-41561928D01*
X150700000Y-41561928D01*
X150575518Y-41574188D01*
X150455820Y-41610498D01*
X150345506Y-41669463D01*
X150248815Y-41748815D01*
X150169463Y-41845506D01*
X150110498Y-41955820D01*
X150074188Y-42075518D01*
X150061928Y-42200000D01*
X150061928Y-42222027D01*
X149982148Y-42371285D01*
X149888657Y-42679484D01*
X149857089Y-43000000D01*
X149888657Y-43320516D01*
X149982148Y-43628715D01*
X150061928Y-43777973D01*
X150061928Y-43800000D01*
X150074188Y-43924482D01*
X150110498Y-44044180D01*
X150169463Y-44154494D01*
X150248815Y-44251185D01*
X150345506Y-44330537D01*
X150455820Y-44389502D01*
X150575518Y-44425812D01*
X150700000Y-44438072D01*
X150722027Y-44438072D01*
X150871285Y-44517852D01*
X151179484Y-44611343D01*
X151419678Y-44635000D01*
X155322762Y-44635000D01*
X156365000Y-45677239D01*
X156365000Y-45915392D01*
X156308791Y-45971601D01*
X156231157Y-45722528D01*
X155967117Y-45596629D01*
X155683589Y-45524661D01*
X155391469Y-45509389D01*
X155101981Y-45551401D01*
X154826253Y-45649081D01*
X154688843Y-45722528D01*
X154611208Y-45971603D01*
X155460000Y-46820395D01*
X155474143Y-46806253D01*
X155653748Y-46985858D01*
X155639605Y-47000000D01*
X155653748Y-47014143D01*
X155474143Y-47193748D01*
X155460000Y-47179605D01*
X154611208Y-48028397D01*
X154688843Y-48277472D01*
X154872410Y-48365000D01*
X153505090Y-48365000D01*
X153623411Y-48315990D01*
X153866632Y-48153475D01*
X154073475Y-47946632D01*
X154189311Y-47773271D01*
X154431603Y-47848792D01*
X155280395Y-47000000D01*
X154431603Y-46151208D01*
X154189311Y-46226729D01*
X154073475Y-46053368D01*
X153866632Y-45846525D01*
X153623411Y-45684010D01*
X153353158Y-45572068D01*
X153066260Y-45515000D01*
X152773740Y-45515000D01*
X152486842Y-45572068D01*
X152216589Y-45684010D01*
X151973368Y-45846525D01*
X151766525Y-46053368D01*
X151650000Y-46227760D01*
X151533475Y-46053368D01*
X151326632Y-45846525D01*
X151083411Y-45684010D01*
X150813158Y-45572068D01*
X150526260Y-45515000D01*
X150233740Y-45515000D01*
X149946842Y-45572068D01*
X149676589Y-45684010D01*
X149433368Y-45846525D01*
X149226525Y-46053368D01*
X149064010Y-46296589D01*
X148952068Y-46566842D01*
X148895000Y-46853740D01*
X148895000Y-47146260D01*
X148952068Y-47433158D01*
X149064010Y-47703411D01*
X149226525Y-47946632D01*
X149433368Y-48153475D01*
X149676589Y-48315990D01*
X149794910Y-48365000D01*
X148580319Y-48365000D01*
X148499999Y-48357089D01*
X148419680Y-48365000D01*
X148419678Y-48365000D01*
X148179484Y-48388657D01*
X147871285Y-48482148D01*
X147587248Y-48633969D01*
X147338286Y-48838286D01*
X147287079Y-48900682D01*
X145900682Y-50287080D01*
X145838287Y-50338286D01*
X145713569Y-50490256D01*
X145633970Y-50587248D01*
X145482148Y-50871286D01*
X145388658Y-51179484D01*
X145357089Y-51500000D01*
X145365001Y-51580329D01*
X145365000Y-53365000D01*
X143635000Y-53365000D01*
X143635000Y-47052408D01*
X143711579Y-46867529D01*
X143760000Y-46624099D01*
X143760000Y-46375901D01*
X143711579Y-46132471D01*
X143616598Y-45903166D01*
X143514255Y-45750000D01*
X143616598Y-45596834D01*
X143711579Y-45367529D01*
X143760000Y-45124099D01*
X143760000Y-44875901D01*
X143711579Y-44632471D01*
X143616598Y-44403166D01*
X143514255Y-44250000D01*
X143616598Y-44096834D01*
X143711579Y-43867529D01*
X143760000Y-43624099D01*
X143760000Y-43375901D01*
X143711579Y-43132471D01*
X143616598Y-42903166D01*
X143478706Y-42696797D01*
X143451322Y-42669413D01*
X143593777Y-42637694D01*
X143697168Y-42412056D01*
X143754553Y-42170582D01*
X143763726Y-41922553D01*
X143724335Y-41677501D01*
X143637893Y-41444842D01*
X143593777Y-41362306D01*
X143457663Y-41331999D01*
X143484635Y-41305027D01*
X143429608Y-41250000D01*
X143484635Y-41194973D01*
X143457663Y-41168001D01*
X143593777Y-41137694D01*
X143697168Y-40912056D01*
X143754553Y-40670582D01*
X143758253Y-40570512D01*
X150059783Y-40570512D01*
X150101213Y-40850130D01*
X150196397Y-41116292D01*
X150263329Y-41241514D01*
X150507298Y-41313097D01*
X151320395Y-40500000D01*
X150507298Y-39686903D01*
X150263329Y-39758486D01*
X150142429Y-40013996D01*
X150073700Y-40288184D01*
X150059783Y-40570512D01*
X143758253Y-40570512D01*
X143763726Y-40422553D01*
X143724335Y-40177501D01*
X143637893Y-39944842D01*
X143593777Y-39862306D01*
X143367648Y-39811957D01*
X142679605Y-40500000D01*
X142693748Y-40514143D01*
X142514143Y-40693748D01*
X142500000Y-40679605D01*
X142485858Y-40693748D01*
X142306253Y-40514143D01*
X142320395Y-40500000D01*
X141632352Y-39811957D01*
X141406223Y-39862306D01*
X141302832Y-40087944D01*
X141245447Y-40329418D01*
X141236274Y-40577447D01*
X141275665Y-40822499D01*
X141362107Y-41055158D01*
X141406223Y-41137694D01*
X141542337Y-41168001D01*
X141515365Y-41194973D01*
X141570392Y-41250000D01*
X141515365Y-41305027D01*
X141542337Y-41331999D01*
X141406223Y-41362306D01*
X141302832Y-41587944D01*
X141245447Y-41829418D01*
X141236274Y-42077447D01*
X141275665Y-42322499D01*
X141362107Y-42555158D01*
X141406223Y-42637694D01*
X141548678Y-42669413D01*
X141521294Y-42696797D01*
X141383402Y-42903166D01*
X141288421Y-43132471D01*
X141240000Y-43375901D01*
X141240000Y-43624099D01*
X141288421Y-43867529D01*
X141383402Y-44096834D01*
X141485745Y-44250000D01*
X141383402Y-44403166D01*
X141288421Y-44632471D01*
X141240000Y-44875901D01*
X141240000Y-45124099D01*
X141288421Y-45367529D01*
X141383402Y-45596834D01*
X141485745Y-45750000D01*
X141383402Y-45903166D01*
X141288421Y-46132471D01*
X141240000Y-46375901D01*
X141240000Y-46624099D01*
X141288421Y-46867529D01*
X141365000Y-47052408D01*
X141365001Y-52115000D01*
X140627000Y-52115000D01*
X140627000Y-39632352D01*
X141811957Y-39632352D01*
X142500000Y-40320395D01*
X143188043Y-39632352D01*
X143137694Y-39406223D01*
X142912056Y-39302832D01*
X142670582Y-39245447D01*
X142422553Y-39236274D01*
X142177501Y-39275665D01*
X141944842Y-39362107D01*
X141862306Y-39406223D01*
X141811957Y-39632352D01*
X140627000Y-39632352D01*
X140627000Y-39160000D01*
X150985485Y-39160000D01*
X150883708Y-39196397D01*
G37*
%TD.AperFunction*%
D21*
X142693748Y-41985858D02*
X142679605Y-42000000D01*
X142693748Y-42014143D01*
X142514143Y-42193748D01*
X142500000Y-42179605D01*
X142485858Y-42193748D01*
X142306253Y-42014143D01*
X142320395Y-42000000D01*
X142306253Y-41985858D01*
X142485858Y-41806253D01*
X142500000Y-41820395D01*
X142514143Y-41806253D01*
X142693748Y-41985858D01*
%TA.AperFunction,Conductor*%
D22*
G36*
X142693748Y-41985858D02*
G01*
X142679605Y-42000000D01*
X142693748Y-42014143D01*
X142514143Y-42193748D01*
X142500000Y-42179605D01*
X142485858Y-42193748D01*
X142306253Y-42014143D01*
X142320395Y-42000000D01*
X142306253Y-41985858D01*
X142485858Y-41806253D01*
X142500000Y-41820395D01*
X142514143Y-41806253D01*
X142693748Y-41985858D01*
G37*
%TD.AperFunction*%
%TD*%
D21*
%TO.N,GND*%
X138373000Y-52115000D02*
X138169922Y-52115000D01*
X138261481Y-51856891D01*
X138140814Y-51627000D01*
X136947000Y-51627000D01*
X136947000Y-51647000D01*
X136693000Y-51647000D01*
X136693000Y-51627000D01*
X136673000Y-51627000D01*
X136673000Y-51373000D01*
X136693000Y-51373000D01*
X136693000Y-50179845D01*
X136947000Y-50179845D01*
X136947000Y-51373000D01*
X138140814Y-51373000D01*
X138261481Y-51143109D01*
X138164157Y-50868748D01*
X138015178Y-50618645D01*
X137820269Y-50402412D01*
X137586920Y-50228359D01*
X137324099Y-50103175D01*
X137176890Y-50058524D01*
X136947000Y-50179845D01*
X136693000Y-50179845D01*
X136463110Y-50058524D01*
X136315901Y-50103175D01*
X136053080Y-50228359D01*
X135819731Y-50402412D01*
X135624822Y-50618645D01*
X135555195Y-50735534D01*
X135433475Y-50553368D01*
X135226632Y-50346525D01*
X134983411Y-50184010D01*
X134713158Y-50072068D01*
X134426260Y-50015000D01*
X134133740Y-50015000D01*
X133846842Y-50072068D01*
X133576589Y-50184010D01*
X133333368Y-50346525D01*
X133126525Y-50553368D01*
X133004805Y-50735534D01*
X132935178Y-50618645D01*
X132740269Y-50402412D01*
X132506920Y-50228359D01*
X132244099Y-50103175D01*
X132096890Y-50058524D01*
X131867000Y-50179845D01*
X131867000Y-51373000D01*
X131887000Y-51373000D01*
X131887000Y-51627000D01*
X131867000Y-51627000D01*
X131867000Y-52820155D01*
X132096890Y-52941476D01*
X132244099Y-52896825D01*
X132506920Y-52771641D01*
X132740269Y-52597588D01*
X132935178Y-52381355D01*
X133004805Y-52264466D01*
X133126525Y-52446632D01*
X133333368Y-52653475D01*
X133576589Y-52815990D01*
X133846842Y-52927932D01*
X134133740Y-52985000D01*
X134426260Y-52985000D01*
X134713158Y-52927932D01*
X134983411Y-52815990D01*
X135226632Y-52653475D01*
X135433475Y-52446632D01*
X135555195Y-52264466D01*
X135624822Y-52381355D01*
X135819731Y-52597588D01*
X136053080Y-52771641D01*
X136315901Y-52896825D01*
X136463110Y-52941476D01*
X136692998Y-52820156D01*
X136692998Y-52985000D01*
X136763421Y-52985000D01*
X136404954Y-53343467D01*
X136378717Y-53365000D01*
X130470132Y-53365000D01*
X130335000Y-53229869D01*
X130335000Y-52465107D01*
X130353475Y-52446632D01*
X130475195Y-52264466D01*
X130544822Y-52381355D01*
X130739731Y-52597588D01*
X130973080Y-52771641D01*
X131235901Y-52896825D01*
X131383110Y-52941476D01*
X131613000Y-52820155D01*
X131613000Y-51627000D01*
X131593000Y-51627000D01*
X131593000Y-51373000D01*
X131613000Y-51373000D01*
X131613000Y-50179845D01*
X131383110Y-50058524D01*
X131235901Y-50103175D01*
X130973080Y-50228359D01*
X130739731Y-50402412D01*
X130544822Y-50618645D01*
X130475195Y-50735534D01*
X130353475Y-50553368D01*
X130146632Y-50346525D01*
X129903411Y-50184010D01*
X129633158Y-50072068D01*
X129346260Y-50015000D01*
X129320132Y-50015000D01*
X127541996Y-48236865D01*
X127506449Y-48193551D01*
X127333623Y-48051716D01*
X127136447Y-47946324D01*
X126922499Y-47881423D01*
X126755752Y-47865000D01*
X126755751Y-47865000D01*
X126700000Y-47859509D01*
X126644249Y-47865000D01*
X123470132Y-47865000D01*
X123135000Y-47529868D01*
X123135000Y-46638072D01*
X123375000Y-46638072D01*
X123572641Y-46618606D01*
X123762686Y-46560956D01*
X123937833Y-46467339D01*
X124000000Y-46416320D01*
X124062167Y-46467339D01*
X124237314Y-46560956D01*
X124427359Y-46618606D01*
X124625000Y-46638072D01*
X127375000Y-46638072D01*
X127572641Y-46618606D01*
X127762686Y-46560956D01*
X127937833Y-46467339D01*
X128000000Y-46416320D01*
X128062167Y-46467339D01*
X128237314Y-46560956D01*
X128427359Y-46618606D01*
X128625000Y-46638072D01*
X131375000Y-46638072D01*
X131572641Y-46618606D01*
X131762686Y-46560956D01*
X131937833Y-46467339D01*
X132091350Y-46341350D01*
X132217339Y-46187833D01*
X132310956Y-46012686D01*
X132368606Y-45822641D01*
X132388072Y-45625000D01*
X132388072Y-44875000D01*
X132368606Y-44677359D01*
X132310956Y-44487314D01*
X132217339Y-44312167D01*
X132091350Y-44158650D01*
X131937833Y-44032661D01*
X131876728Y-44000000D01*
X131937833Y-43967339D01*
X132091350Y-43841350D01*
X132217339Y-43687833D01*
X132310956Y-43512686D01*
X132368606Y-43322641D01*
X132388072Y-43125000D01*
X132388072Y-42375000D01*
X132368606Y-42177359D01*
X132310956Y-41987314D01*
X132217339Y-41812167D01*
X132091350Y-41658650D01*
X131937833Y-41532661D01*
X131762686Y-41439044D01*
X131572641Y-41381394D01*
X131375000Y-41361928D01*
X128625000Y-41361928D01*
X128427359Y-41381394D01*
X128237314Y-41439044D01*
X128062167Y-41532661D01*
X128000000Y-41583680D01*
X127937833Y-41532661D01*
X127762686Y-41439044D01*
X127572641Y-41381394D01*
X127375000Y-41361928D01*
X127135000Y-41361928D01*
X127135000Y-41055752D01*
X127140491Y-41000000D01*
X127118577Y-40777501D01*
X127053676Y-40563553D01*
X127019706Y-40500000D01*
X126948284Y-40366377D01*
X126806449Y-40193551D01*
X126763135Y-40158004D01*
X126341996Y-39736865D01*
X126306449Y-39693551D01*
X126133623Y-39551716D01*
X125936447Y-39446324D01*
X125722499Y-39381423D01*
X125555752Y-39365000D01*
X125555751Y-39365000D01*
X125500000Y-39359509D01*
X125444249Y-39365000D01*
X119555741Y-39365000D01*
X119499999Y-39359510D01*
X119444257Y-39365000D01*
X119444248Y-39365000D01*
X119277501Y-39381423D01*
X119063553Y-39446324D01*
X118866377Y-39551716D01*
X118693551Y-39693551D01*
X118658009Y-39736859D01*
X113035643Y-45359226D01*
X112839727Y-45228320D01*
X112578574Y-45120147D01*
X112301335Y-45065000D01*
X112018665Y-45065000D01*
X111741426Y-45120147D01*
X111480273Y-45228320D01*
X111245241Y-45385363D01*
X111045363Y-45585241D01*
X110888320Y-45820273D01*
X110780147Y-46081426D01*
X110725000Y-46358665D01*
X110725000Y-46641335D01*
X110780147Y-46918574D01*
X110888320Y-47179727D01*
X111045363Y-47414759D01*
X111245241Y-47614637D01*
X111480273Y-47771680D01*
X111741426Y-47879853D01*
X112018665Y-47935000D01*
X112301335Y-47935000D01*
X112578574Y-47879853D01*
X112839727Y-47771680D01*
X113044284Y-47635000D01*
X113444249Y-47635000D01*
X113500000Y-47640491D01*
X113555751Y-47635000D01*
X113555752Y-47635000D01*
X113722499Y-47618577D01*
X113936447Y-47553676D01*
X114133623Y-47448284D01*
X114306449Y-47306449D01*
X114341996Y-47263135D01*
X119770830Y-41834302D01*
X119689044Y-41987314D01*
X119631394Y-42177359D01*
X119611928Y-42375000D01*
X119611928Y-43125000D01*
X119631394Y-43322641D01*
X119689044Y-43512686D01*
X119782661Y-43687833D01*
X119908650Y-43841350D01*
X120062167Y-43967339D01*
X120123272Y-44000000D01*
X120062167Y-44032661D01*
X119908650Y-44158650D01*
X119782661Y-44312167D01*
X119689044Y-44487314D01*
X119631394Y-44677359D01*
X119611928Y-44875000D01*
X119611928Y-45625000D01*
X119631394Y-45822641D01*
X119689044Y-46012686D01*
X119782661Y-46187833D01*
X119908650Y-46341350D01*
X120062167Y-46467339D01*
X120237314Y-46560956D01*
X120427359Y-46618606D01*
X120625000Y-46638072D01*
X120865000Y-46638072D01*
X120865000Y-47944248D01*
X120859509Y-48000000D01*
X120865000Y-48055751D01*
X120881423Y-48222498D01*
X120946324Y-48436446D01*
X121051716Y-48633623D01*
X121193551Y-48806449D01*
X121236864Y-48841995D01*
X122158013Y-49763145D01*
X122193551Y-49806449D01*
X122236854Y-49841987D01*
X122236856Y-49841989D01*
X122366377Y-49948284D01*
X122563553Y-50053676D01*
X122777501Y-50118577D01*
X123000000Y-50140491D01*
X123055752Y-50135000D01*
X123534910Y-50135000D01*
X123416589Y-50184010D01*
X123173368Y-50346525D01*
X122966525Y-50553368D01*
X122850000Y-50727760D01*
X122733475Y-50553368D01*
X122526632Y-50346525D01*
X122283411Y-50184010D01*
X122013158Y-50072068D01*
X121726260Y-50015000D01*
X121433740Y-50015000D01*
X121146842Y-50072068D01*
X120876589Y-50184010D01*
X120633368Y-50346525D01*
X120426525Y-50553368D01*
X120310000Y-50727760D01*
X120193475Y-50553368D01*
X119986632Y-50346525D01*
X119743411Y-50184010D01*
X119473158Y-50072068D01*
X119186260Y-50015000D01*
X118893740Y-50015000D01*
X118606842Y-50072068D01*
X118336589Y-50184010D01*
X118093368Y-50346525D01*
X117961513Y-50478380D01*
X117939502Y-50405820D01*
X117880537Y-50295506D01*
X117801185Y-50198815D01*
X117704494Y-50119463D01*
X117594180Y-50060498D01*
X117474482Y-50024188D01*
X117350000Y-50011928D01*
X115650000Y-50011928D01*
X115525518Y-50024188D01*
X115405820Y-50060498D01*
X115295506Y-50119463D01*
X115198815Y-50198815D01*
X115119463Y-50295506D01*
X115060498Y-50405820D01*
X115024188Y-50525518D01*
X115011928Y-50650000D01*
X115011928Y-52350000D01*
X115024188Y-52474482D01*
X115060498Y-52594180D01*
X115119463Y-52704494D01*
X115198815Y-52801185D01*
X115295506Y-52880537D01*
X115405820Y-52939502D01*
X115525518Y-52975812D01*
X115650000Y-52988072D01*
X117350000Y-52988072D01*
X117474482Y-52975812D01*
X117594180Y-52939502D01*
X117704494Y-52880537D01*
X117801185Y-52801185D01*
X117880537Y-52704494D01*
X117939502Y-52594180D01*
X117961513Y-52521620D01*
X118093368Y-52653475D01*
X118155001Y-52694657D01*
X118155000Y-55996531D01*
X118150719Y-56040000D01*
X118155000Y-56083469D01*
X118155000Y-56083476D01*
X118167805Y-56213489D01*
X118218411Y-56380312D01*
X118300589Y-56534058D01*
X118411183Y-56668817D01*
X118444956Y-56696534D01*
X120843470Y-59095049D01*
X120871183Y-59128817D01*
X120904951Y-59156530D01*
X120904953Y-59156532D01*
X120953122Y-59196063D01*
X121005941Y-59239411D01*
X121159687Y-59321589D01*
X121326510Y-59372195D01*
X121456523Y-59385000D01*
X121456533Y-59385000D01*
X121499999Y-59389281D01*
X121543465Y-59385000D01*
X131456531Y-59385000D01*
X131500000Y-59389281D01*
X131543469Y-59385000D01*
X131543477Y-59385000D01*
X131673490Y-59372195D01*
X131840313Y-59321589D01*
X131994059Y-59239411D01*
X132128817Y-59128817D01*
X132156534Y-59095044D01*
X132745044Y-58506535D01*
X132801898Y-58495226D01*
X132990256Y-58417205D01*
X133159774Y-58303937D01*
X133303937Y-58159774D01*
X133417205Y-57990256D01*
X133495226Y-57801898D01*
X133535000Y-57601939D01*
X133535000Y-57398061D01*
X133495226Y-57198102D01*
X133417205Y-57009744D01*
X133303937Y-56840226D01*
X133159774Y-56696063D01*
X132990256Y-56582795D01*
X132801898Y-56504774D01*
X132601939Y-56465000D01*
X132398061Y-56465000D01*
X132198102Y-56504774D01*
X132009744Y-56582795D01*
X131840226Y-56696063D01*
X131696063Y-56840226D01*
X131582795Y-57009744D01*
X131504774Y-57198102D01*
X131493465Y-57254956D01*
X131133422Y-57615000D01*
X130333854Y-57615000D01*
X130417205Y-57490256D01*
X130495226Y-57301898D01*
X130535000Y-57101939D01*
X130535000Y-56898061D01*
X130495226Y-56698102D01*
X130417205Y-56509744D01*
X130303937Y-56340226D01*
X130159774Y-56196063D01*
X129990256Y-56082795D01*
X129801898Y-56004774D01*
X129745043Y-55993465D01*
X129656534Y-55904956D01*
X129628817Y-55871183D01*
X129494059Y-55760589D01*
X129340313Y-55678411D01*
X129173490Y-55627805D01*
X129043477Y-55615000D01*
X129043469Y-55615000D01*
X129000000Y-55610719D01*
X128956531Y-55615000D01*
X125866579Y-55615000D01*
X125005000Y-54753422D01*
X125005000Y-52694656D01*
X125066632Y-52653475D01*
X125273475Y-52446632D01*
X125390000Y-52272240D01*
X125506525Y-52446632D01*
X125713368Y-52653475D01*
X125956589Y-52815990D01*
X126226842Y-52927932D01*
X126513740Y-52985000D01*
X126806260Y-52985000D01*
X127093158Y-52927932D01*
X127363411Y-52815990D01*
X127606632Y-52653475D01*
X127813475Y-52446632D01*
X127930000Y-52272240D01*
X128046525Y-52446632D01*
X128065001Y-52465108D01*
X128065000Y-53644248D01*
X128059509Y-53700000D01*
X128065000Y-53755751D01*
X128081423Y-53922498D01*
X128146324Y-54136446D01*
X128251716Y-54333623D01*
X128393551Y-54506449D01*
X128436864Y-54541995D01*
X129158008Y-55263140D01*
X129193551Y-55306449D01*
X129366377Y-55448284D01*
X129563553Y-55553676D01*
X129777501Y-55618577D01*
X129881471Y-55628817D01*
X130000000Y-55640491D01*
X130055752Y-55635000D01*
X136378717Y-55635000D01*
X136404954Y-55656532D01*
X137343470Y-56595049D01*
X137371183Y-56628817D01*
X137404951Y-56656530D01*
X137404953Y-56656532D01*
X137431613Y-56678411D01*
X137505941Y-56739411D01*
X137659687Y-56821589D01*
X137826510Y-56872195D01*
X137956523Y-56885000D01*
X137956533Y-56885000D01*
X137999999Y-56889281D01*
X138043465Y-56885000D01*
X138373000Y-56885000D01*
X138373000Y-63840000D01*
X99160000Y-63840000D01*
X99160000Y-42919679D01*
X100365000Y-42919679D01*
X100365001Y-46580322D01*
X100388658Y-46820516D01*
X100482149Y-47128715D01*
X100633970Y-47412752D01*
X100838287Y-47661714D01*
X101087249Y-47866031D01*
X101371286Y-48017852D01*
X101679485Y-48111343D01*
X102000000Y-48142911D01*
X102320516Y-48111343D01*
X102628715Y-48017852D01*
X102912752Y-47866031D01*
X103161714Y-47661714D01*
X103366031Y-47412752D01*
X103517852Y-47128715D01*
X103611343Y-46820516D01*
X103635000Y-46580322D01*
X103635000Y-42919678D01*
X103628991Y-42858665D01*
X110725000Y-42858665D01*
X110725000Y-43141335D01*
X110780147Y-43418574D01*
X110888320Y-43679727D01*
X111045363Y-43914759D01*
X111245241Y-44114637D01*
X111480273Y-44271680D01*
X111741426Y-44379853D01*
X112018665Y-44435000D01*
X112301335Y-44435000D01*
X112578574Y-44379853D01*
X112839727Y-44271680D01*
X113074759Y-44114637D01*
X113274637Y-43914759D01*
X113431680Y-43679727D01*
X113539853Y-43418574D01*
X113595000Y-43141335D01*
X113595000Y-42858665D01*
X113539853Y-42581426D01*
X113431680Y-42320273D01*
X113274637Y-42085241D01*
X113074759Y-41885363D01*
X112839727Y-41728320D01*
X112578574Y-41620147D01*
X112301335Y-41565000D01*
X112018665Y-41565000D01*
X111741426Y-41620147D01*
X111480273Y-41728320D01*
X111245241Y-41885363D01*
X111045363Y-42085241D01*
X110888320Y-42320273D01*
X110780147Y-42581426D01*
X110725000Y-42858665D01*
X103628991Y-42858665D01*
X103611343Y-42679484D01*
X103517852Y-42371285D01*
X103366031Y-42087248D01*
X103161714Y-41838286D01*
X102912751Y-41633969D01*
X102628714Y-41482148D01*
X102320515Y-41388657D01*
X102000000Y-41357089D01*
X101679484Y-41388657D01*
X101371285Y-41482148D01*
X101087248Y-41633969D01*
X100838286Y-41838286D01*
X100633969Y-42087249D01*
X100482148Y-42371286D01*
X100388657Y-42679485D01*
X100365000Y-42919679D01*
X99160000Y-42919679D01*
X99160000Y-39160000D01*
X138373000Y-39160000D01*
X138373000Y-52115000D01*
%TA.AperFunction,Conductor*%
D22*
G36*
X138373000Y-52115000D02*
G01*
X138169922Y-52115000D01*
X138261481Y-51856891D01*
X138140814Y-51627000D01*
X136947000Y-51627000D01*
X136947000Y-51647000D01*
X136693000Y-51647000D01*
X136693000Y-51627000D01*
X136673000Y-51627000D01*
X136673000Y-51373000D01*
X136693000Y-51373000D01*
X136693000Y-50179845D01*
X136947000Y-50179845D01*
X136947000Y-51373000D01*
X138140814Y-51373000D01*
X138261481Y-51143109D01*
X138164157Y-50868748D01*
X138015178Y-50618645D01*
X137820269Y-50402412D01*
X137586920Y-50228359D01*
X137324099Y-50103175D01*
X137176890Y-50058524D01*
X136947000Y-50179845D01*
X136693000Y-50179845D01*
X136463110Y-50058524D01*
X136315901Y-50103175D01*
X136053080Y-50228359D01*
X135819731Y-50402412D01*
X135624822Y-50618645D01*
X135555195Y-50735534D01*
X135433475Y-50553368D01*
X135226632Y-50346525D01*
X134983411Y-50184010D01*
X134713158Y-50072068D01*
X134426260Y-50015000D01*
X134133740Y-50015000D01*
X133846842Y-50072068D01*
X133576589Y-50184010D01*
X133333368Y-50346525D01*
X133126525Y-50553368D01*
X133004805Y-50735534D01*
X132935178Y-50618645D01*
X132740269Y-50402412D01*
X132506920Y-50228359D01*
X132244099Y-50103175D01*
X132096890Y-50058524D01*
X131867000Y-50179845D01*
X131867000Y-51373000D01*
X131887000Y-51373000D01*
X131887000Y-51627000D01*
X131867000Y-51627000D01*
X131867000Y-52820155D01*
X132096890Y-52941476D01*
X132244099Y-52896825D01*
X132506920Y-52771641D01*
X132740269Y-52597588D01*
X132935178Y-52381355D01*
X133004805Y-52264466D01*
X133126525Y-52446632D01*
X133333368Y-52653475D01*
X133576589Y-52815990D01*
X133846842Y-52927932D01*
X134133740Y-52985000D01*
X134426260Y-52985000D01*
X134713158Y-52927932D01*
X134983411Y-52815990D01*
X135226632Y-52653475D01*
X135433475Y-52446632D01*
X135555195Y-52264466D01*
X135624822Y-52381355D01*
X135819731Y-52597588D01*
X136053080Y-52771641D01*
X136315901Y-52896825D01*
X136463110Y-52941476D01*
X136692998Y-52820156D01*
X136692998Y-52985000D01*
X136763421Y-52985000D01*
X136404954Y-53343467D01*
X136378717Y-53365000D01*
X130470132Y-53365000D01*
X130335000Y-53229869D01*
X130335000Y-52465107D01*
X130353475Y-52446632D01*
X130475195Y-52264466D01*
X130544822Y-52381355D01*
X130739731Y-52597588D01*
X130973080Y-52771641D01*
X131235901Y-52896825D01*
X131383110Y-52941476D01*
X131613000Y-52820155D01*
X131613000Y-51627000D01*
X131593000Y-51627000D01*
X131593000Y-51373000D01*
X131613000Y-51373000D01*
X131613000Y-50179845D01*
X131383110Y-50058524D01*
X131235901Y-50103175D01*
X130973080Y-50228359D01*
X130739731Y-50402412D01*
X130544822Y-50618645D01*
X130475195Y-50735534D01*
X130353475Y-50553368D01*
X130146632Y-50346525D01*
X129903411Y-50184010D01*
X129633158Y-50072068D01*
X129346260Y-50015000D01*
X129320132Y-50015000D01*
X127541996Y-48236865D01*
X127506449Y-48193551D01*
X127333623Y-48051716D01*
X127136447Y-47946324D01*
X126922499Y-47881423D01*
X126755752Y-47865000D01*
X126755751Y-47865000D01*
X126700000Y-47859509D01*
X126644249Y-47865000D01*
X123470132Y-47865000D01*
X123135000Y-47529868D01*
X123135000Y-46638072D01*
X123375000Y-46638072D01*
X123572641Y-46618606D01*
X123762686Y-46560956D01*
X123937833Y-46467339D01*
X124000000Y-46416320D01*
X124062167Y-46467339D01*
X124237314Y-46560956D01*
X124427359Y-46618606D01*
X124625000Y-46638072D01*
X127375000Y-46638072D01*
X127572641Y-46618606D01*
X127762686Y-46560956D01*
X127937833Y-46467339D01*
X128000000Y-46416320D01*
X128062167Y-46467339D01*
X128237314Y-46560956D01*
X128427359Y-46618606D01*
X128625000Y-46638072D01*
X131375000Y-46638072D01*
X131572641Y-46618606D01*
X131762686Y-46560956D01*
X131937833Y-46467339D01*
X132091350Y-46341350D01*
X132217339Y-46187833D01*
X132310956Y-46012686D01*
X132368606Y-45822641D01*
X132388072Y-45625000D01*
X132388072Y-44875000D01*
X132368606Y-44677359D01*
X132310956Y-44487314D01*
X132217339Y-44312167D01*
X132091350Y-44158650D01*
X131937833Y-44032661D01*
X131876728Y-44000000D01*
X131937833Y-43967339D01*
X132091350Y-43841350D01*
X132217339Y-43687833D01*
X132310956Y-43512686D01*
X132368606Y-43322641D01*
X132388072Y-43125000D01*
X132388072Y-42375000D01*
X132368606Y-42177359D01*
X132310956Y-41987314D01*
X132217339Y-41812167D01*
X132091350Y-41658650D01*
X131937833Y-41532661D01*
X131762686Y-41439044D01*
X131572641Y-41381394D01*
X131375000Y-41361928D01*
X128625000Y-41361928D01*
X128427359Y-41381394D01*
X128237314Y-41439044D01*
X128062167Y-41532661D01*
X128000000Y-41583680D01*
X127937833Y-41532661D01*
X127762686Y-41439044D01*
X127572641Y-41381394D01*
X127375000Y-41361928D01*
X127135000Y-41361928D01*
X127135000Y-41055752D01*
X127140491Y-41000000D01*
X127118577Y-40777501D01*
X127053676Y-40563553D01*
X127019706Y-40500000D01*
X126948284Y-40366377D01*
X126806449Y-40193551D01*
X126763135Y-40158004D01*
X126341996Y-39736865D01*
X126306449Y-39693551D01*
X126133623Y-39551716D01*
X125936447Y-39446324D01*
X125722499Y-39381423D01*
X125555752Y-39365000D01*
X125555751Y-39365000D01*
X125500000Y-39359509D01*
X125444249Y-39365000D01*
X119555741Y-39365000D01*
X119499999Y-39359510D01*
X119444257Y-39365000D01*
X119444248Y-39365000D01*
X119277501Y-39381423D01*
X119063553Y-39446324D01*
X118866377Y-39551716D01*
X118693551Y-39693551D01*
X118658009Y-39736859D01*
X113035643Y-45359226D01*
X112839727Y-45228320D01*
X112578574Y-45120147D01*
X112301335Y-45065000D01*
X112018665Y-45065000D01*
X111741426Y-45120147D01*
X111480273Y-45228320D01*
X111245241Y-45385363D01*
X111045363Y-45585241D01*
X110888320Y-45820273D01*
X110780147Y-46081426D01*
X110725000Y-46358665D01*
X110725000Y-46641335D01*
X110780147Y-46918574D01*
X110888320Y-47179727D01*
X111045363Y-47414759D01*
X111245241Y-47614637D01*
X111480273Y-47771680D01*
X111741426Y-47879853D01*
X112018665Y-47935000D01*
X112301335Y-47935000D01*
X112578574Y-47879853D01*
X112839727Y-47771680D01*
X113044284Y-47635000D01*
X113444249Y-47635000D01*
X113500000Y-47640491D01*
X113555751Y-47635000D01*
X113555752Y-47635000D01*
X113722499Y-47618577D01*
X113936447Y-47553676D01*
X114133623Y-47448284D01*
X114306449Y-47306449D01*
X114341996Y-47263135D01*
X119770830Y-41834302D01*
X119689044Y-41987314D01*
X119631394Y-42177359D01*
X119611928Y-42375000D01*
X119611928Y-43125000D01*
X119631394Y-43322641D01*
X119689044Y-43512686D01*
X119782661Y-43687833D01*
X119908650Y-43841350D01*
X120062167Y-43967339D01*
X120123272Y-44000000D01*
X120062167Y-44032661D01*
X119908650Y-44158650D01*
X119782661Y-44312167D01*
X119689044Y-44487314D01*
X119631394Y-44677359D01*
X119611928Y-44875000D01*
X119611928Y-45625000D01*
X119631394Y-45822641D01*
X119689044Y-46012686D01*
X119782661Y-46187833D01*
X119908650Y-46341350D01*
X120062167Y-46467339D01*
X120237314Y-46560956D01*
X120427359Y-46618606D01*
X120625000Y-46638072D01*
X120865000Y-46638072D01*
X120865000Y-47944248D01*
X120859509Y-48000000D01*
X120865000Y-48055751D01*
X120881423Y-48222498D01*
X120946324Y-48436446D01*
X121051716Y-48633623D01*
X121193551Y-48806449D01*
X121236864Y-48841995D01*
X122158013Y-49763145D01*
X122193551Y-49806449D01*
X122236854Y-49841987D01*
X122236856Y-49841989D01*
X122366377Y-49948284D01*
X122563553Y-50053676D01*
X122777501Y-50118577D01*
X123000000Y-50140491D01*
X123055752Y-50135000D01*
X123534910Y-50135000D01*
X123416589Y-50184010D01*
X123173368Y-50346525D01*
X122966525Y-50553368D01*
X122850000Y-50727760D01*
X122733475Y-50553368D01*
X122526632Y-50346525D01*
X122283411Y-50184010D01*
X122013158Y-50072068D01*
X121726260Y-50015000D01*
X121433740Y-50015000D01*
X121146842Y-50072068D01*
X120876589Y-50184010D01*
X120633368Y-50346525D01*
X120426525Y-50553368D01*
X120310000Y-50727760D01*
X120193475Y-50553368D01*
X119986632Y-50346525D01*
X119743411Y-50184010D01*
X119473158Y-50072068D01*
X119186260Y-50015000D01*
X118893740Y-50015000D01*
X118606842Y-50072068D01*
X118336589Y-50184010D01*
X118093368Y-50346525D01*
X117961513Y-50478380D01*
X117939502Y-50405820D01*
X117880537Y-50295506D01*
X117801185Y-50198815D01*
X117704494Y-50119463D01*
X117594180Y-50060498D01*
X117474482Y-50024188D01*
X117350000Y-50011928D01*
X115650000Y-50011928D01*
X115525518Y-50024188D01*
X115405820Y-50060498D01*
X115295506Y-50119463D01*
X115198815Y-50198815D01*
X115119463Y-50295506D01*
X115060498Y-50405820D01*
X115024188Y-50525518D01*
X115011928Y-50650000D01*
X115011928Y-52350000D01*
X115024188Y-52474482D01*
X115060498Y-52594180D01*
X115119463Y-52704494D01*
X115198815Y-52801185D01*
X115295506Y-52880537D01*
X115405820Y-52939502D01*
X115525518Y-52975812D01*
X115650000Y-52988072D01*
X117350000Y-52988072D01*
X117474482Y-52975812D01*
X117594180Y-52939502D01*
X117704494Y-52880537D01*
X117801185Y-52801185D01*
X117880537Y-52704494D01*
X117939502Y-52594180D01*
X117961513Y-52521620D01*
X118093368Y-52653475D01*
X118155001Y-52694657D01*
X118155000Y-55996531D01*
X118150719Y-56040000D01*
X118155000Y-56083469D01*
X118155000Y-56083476D01*
X118167805Y-56213489D01*
X118218411Y-56380312D01*
X118300589Y-56534058D01*
X118411183Y-56668817D01*
X118444956Y-56696534D01*
X120843470Y-59095049D01*
X120871183Y-59128817D01*
X120904951Y-59156530D01*
X120904953Y-59156532D01*
X120953122Y-59196063D01*
X121005941Y-59239411D01*
X121159687Y-59321589D01*
X121326510Y-59372195D01*
X121456523Y-59385000D01*
X121456533Y-59385000D01*
X121499999Y-59389281D01*
X121543465Y-59385000D01*
X131456531Y-59385000D01*
X131500000Y-59389281D01*
X131543469Y-59385000D01*
X131543477Y-59385000D01*
X131673490Y-59372195D01*
X131840313Y-59321589D01*
X131994059Y-59239411D01*
X132128817Y-59128817D01*
X132156534Y-59095044D01*
X132745044Y-58506535D01*
X132801898Y-58495226D01*
X132990256Y-58417205D01*
X133159774Y-58303937D01*
X133303937Y-58159774D01*
X133417205Y-57990256D01*
X133495226Y-57801898D01*
X133535000Y-57601939D01*
X133535000Y-57398061D01*
X133495226Y-57198102D01*
X133417205Y-57009744D01*
X133303937Y-56840226D01*
X133159774Y-56696063D01*
X132990256Y-56582795D01*
X132801898Y-56504774D01*
X132601939Y-56465000D01*
X132398061Y-56465000D01*
X132198102Y-56504774D01*
X132009744Y-56582795D01*
X131840226Y-56696063D01*
X131696063Y-56840226D01*
X131582795Y-57009744D01*
X131504774Y-57198102D01*
X131493465Y-57254956D01*
X131133422Y-57615000D01*
X130333854Y-57615000D01*
X130417205Y-57490256D01*
X130495226Y-57301898D01*
X130535000Y-57101939D01*
X130535000Y-56898061D01*
X130495226Y-56698102D01*
X130417205Y-56509744D01*
X130303937Y-56340226D01*
X130159774Y-56196063D01*
X129990256Y-56082795D01*
X129801898Y-56004774D01*
X129745043Y-55993465D01*
X129656534Y-55904956D01*
X129628817Y-55871183D01*
X129494059Y-55760589D01*
X129340313Y-55678411D01*
X129173490Y-55627805D01*
X129043477Y-55615000D01*
X129043469Y-55615000D01*
X129000000Y-55610719D01*
X128956531Y-55615000D01*
X125866579Y-55615000D01*
X125005000Y-54753422D01*
X125005000Y-52694656D01*
X125066632Y-52653475D01*
X125273475Y-52446632D01*
X125390000Y-52272240D01*
X125506525Y-52446632D01*
X125713368Y-52653475D01*
X125956589Y-52815990D01*
X126226842Y-52927932D01*
X126513740Y-52985000D01*
X126806260Y-52985000D01*
X127093158Y-52927932D01*
X127363411Y-52815990D01*
X127606632Y-52653475D01*
X127813475Y-52446632D01*
X127930000Y-52272240D01*
X128046525Y-52446632D01*
X128065001Y-52465108D01*
X128065000Y-53644248D01*
X128059509Y-53700000D01*
X128065000Y-53755751D01*
X128081423Y-53922498D01*
X128146324Y-54136446D01*
X128251716Y-54333623D01*
X128393551Y-54506449D01*
X128436864Y-54541995D01*
X129158008Y-55263140D01*
X129193551Y-55306449D01*
X129366377Y-55448284D01*
X129563553Y-55553676D01*
X129777501Y-55618577D01*
X129881471Y-55628817D01*
X130000000Y-55640491D01*
X130055752Y-55635000D01*
X136378717Y-55635000D01*
X136404954Y-55656532D01*
X137343470Y-56595049D01*
X137371183Y-56628817D01*
X137404951Y-56656530D01*
X137404953Y-56656532D01*
X137431613Y-56678411D01*
X137505941Y-56739411D01*
X137659687Y-56821589D01*
X137826510Y-56872195D01*
X137956523Y-56885000D01*
X137956533Y-56885000D01*
X137999999Y-56889281D01*
X138043465Y-56885000D01*
X138373000Y-56885000D01*
X138373000Y-63840000D01*
X99160000Y-63840000D01*
X99160000Y-42919679D01*
X100365000Y-42919679D01*
X100365001Y-46580322D01*
X100388658Y-46820516D01*
X100482149Y-47128715D01*
X100633970Y-47412752D01*
X100838287Y-47661714D01*
X101087249Y-47866031D01*
X101371286Y-48017852D01*
X101679485Y-48111343D01*
X102000000Y-48142911D01*
X102320516Y-48111343D01*
X102628715Y-48017852D01*
X102912752Y-47866031D01*
X103161714Y-47661714D01*
X103366031Y-47412752D01*
X103517852Y-47128715D01*
X103611343Y-46820516D01*
X103635000Y-46580322D01*
X103635000Y-42919678D01*
X103628991Y-42858665D01*
X110725000Y-42858665D01*
X110725000Y-43141335D01*
X110780147Y-43418574D01*
X110888320Y-43679727D01*
X111045363Y-43914759D01*
X111245241Y-44114637D01*
X111480273Y-44271680D01*
X111741426Y-44379853D01*
X112018665Y-44435000D01*
X112301335Y-44435000D01*
X112578574Y-44379853D01*
X112839727Y-44271680D01*
X113074759Y-44114637D01*
X113274637Y-43914759D01*
X113431680Y-43679727D01*
X113539853Y-43418574D01*
X113595000Y-43141335D01*
X113595000Y-42858665D01*
X113539853Y-42581426D01*
X113431680Y-42320273D01*
X113274637Y-42085241D01*
X113074759Y-41885363D01*
X112839727Y-41728320D01*
X112578574Y-41620147D01*
X112301335Y-41565000D01*
X112018665Y-41565000D01*
X111741426Y-41620147D01*
X111480273Y-41728320D01*
X111245241Y-41885363D01*
X111045363Y-42085241D01*
X110888320Y-42320273D01*
X110780147Y-42581426D01*
X110725000Y-42858665D01*
X103628991Y-42858665D01*
X103611343Y-42679484D01*
X103517852Y-42371285D01*
X103366031Y-42087248D01*
X103161714Y-41838286D01*
X102912751Y-41633969D01*
X102628714Y-41482148D01*
X102320515Y-41388657D01*
X102000000Y-41357089D01*
X101679484Y-41388657D01*
X101371285Y-41482148D01*
X101087248Y-41633969D01*
X100838286Y-41838286D01*
X100633969Y-42087249D01*
X100482148Y-42371286D01*
X100388657Y-42679485D01*
X100365000Y-42919679D01*
X99160000Y-42919679D01*
X99160000Y-39160000D01*
X138373000Y-39160000D01*
X138373000Y-52115000D01*
G37*
%TD.AperFunction*%
D21*
X122966525Y-52446632D02*
X123173368Y-52653475D01*
X123235001Y-52694657D01*
X123235000Y-55076531D01*
X123230719Y-55120000D01*
X123235000Y-55163469D01*
X123235000Y-55163476D01*
X123247805Y-55293489D01*
X123298411Y-55460312D01*
X123380589Y-55614058D01*
X123491183Y-55748817D01*
X123524956Y-55776534D01*
X124843470Y-57095049D01*
X124871183Y-57128817D01*
X124904951Y-57156530D01*
X124904953Y-57156532D01*
X124955606Y-57198102D01*
X125005941Y-57239411D01*
X125159687Y-57321589D01*
X125326510Y-57372195D01*
X125456523Y-57385000D01*
X125456531Y-57385000D01*
X125500000Y-57389281D01*
X125543469Y-57385000D01*
X128539196Y-57385000D01*
X128582795Y-57490256D01*
X128666146Y-57615000D01*
X121866579Y-57615000D01*
X119925000Y-55673422D01*
X119925000Y-52694656D01*
X119986632Y-52653475D01*
X120193475Y-52446632D01*
X120310000Y-52272240D01*
X120426525Y-52446632D01*
X120633368Y-52653475D01*
X120876589Y-52815990D01*
X121146842Y-52927932D01*
X121433740Y-52985000D01*
X121726260Y-52985000D01*
X122013158Y-52927932D01*
X122283411Y-52815990D01*
X122526632Y-52653475D01*
X122733475Y-52446632D01*
X122850000Y-52272240D01*
X122966525Y-52446632D01*
%TA.AperFunction,Conductor*%
D22*
G36*
X122966525Y-52446632D02*
G01*
X123173368Y-52653475D01*
X123235001Y-52694657D01*
X123235000Y-55076531D01*
X123230719Y-55120000D01*
X123235000Y-55163469D01*
X123235000Y-55163476D01*
X123247805Y-55293489D01*
X123298411Y-55460312D01*
X123380589Y-55614058D01*
X123491183Y-55748817D01*
X123524956Y-55776534D01*
X124843470Y-57095049D01*
X124871183Y-57128817D01*
X124904951Y-57156530D01*
X124904953Y-57156532D01*
X124955606Y-57198102D01*
X125005941Y-57239411D01*
X125159687Y-57321589D01*
X125326510Y-57372195D01*
X125456523Y-57385000D01*
X125456531Y-57385000D01*
X125500000Y-57389281D01*
X125543469Y-57385000D01*
X128539196Y-57385000D01*
X128582795Y-57490256D01*
X128666146Y-57615000D01*
X121866579Y-57615000D01*
X119925000Y-55673422D01*
X119925000Y-52694656D01*
X119986632Y-52653475D01*
X120193475Y-52446632D01*
X120310000Y-52272240D01*
X120426525Y-52446632D01*
X120633368Y-52653475D01*
X120876589Y-52815990D01*
X121146842Y-52927932D01*
X121433740Y-52985000D01*
X121726260Y-52985000D01*
X122013158Y-52927932D01*
X122283411Y-52815990D01*
X122526632Y-52653475D01*
X122733475Y-52446632D01*
X122850000Y-52272240D01*
X122966525Y-52446632D01*
G37*
%TD.AperFunction*%
%TD*%
M02*
