%TF.GenerationSoftware,KiCad,Pcbnew,5.1.10*%
%TF.CreationDate,2021-11-06T10:08:14+01:00*%
%TF.ProjectId,air_quality_box,6169725f-7175-4616-9c69-74795f626f78,rev?*%
%TF.SameCoordinates,Original*%
%TF.FileFunction,Soldermask,Bot*%
%TF.FilePolarity,Negative*%
%FSLAX46Y46*%
G04 Gerber Fmt 4.6, Leading zero omitted, Abs format (unit mm)*
G04 Created by KiCad (PCBNEW 5.1.10) date 2021-11-06 10:08:14*
%MOMM*%
%LPD*%
G01*
G04 APERTURE LIST*
%ADD10C,1.250000*%
%ADD11R,1.600000X1.600000*%
%ADD12C,1.600000*%
%ADD13R,1.700000X1.700000*%
%ADD14C,1.700000*%
%ADD15O,1.700000X1.700000*%
%ADD16O,1.600000X1.600000*%
G04 APERTURE END LIST*
D10*
%TO.C,J3*%
X142500000Y-46500000D03*
X142500000Y-45000000D03*
X142500000Y-43500000D03*
X142500000Y-42000000D03*
X142500000Y-40500000D03*
%TD*%
%TO.C,SW1*%
G36*
G01*
X123750000Y-42375000D02*
X123750000Y-43125000D01*
G75*
G02*
X123375000Y-43500000I-375000J0D01*
G01*
X120625000Y-43500000D01*
G75*
G02*
X120250000Y-43125000I0J375000D01*
G01*
X120250000Y-42375000D01*
G75*
G02*
X120625000Y-42000000I375000J0D01*
G01*
X123375000Y-42000000D01*
G75*
G02*
X123750000Y-42375000I0J-375000D01*
G01*
G37*
G36*
G01*
X127750000Y-42375000D02*
X127750000Y-43125000D01*
G75*
G02*
X127375000Y-43500000I-375000J0D01*
G01*
X124625000Y-43500000D01*
G75*
G02*
X124250000Y-43125000I0J375000D01*
G01*
X124250000Y-42375000D01*
G75*
G02*
X124625000Y-42000000I375000J0D01*
G01*
X127375000Y-42000000D01*
G75*
G02*
X127750000Y-42375000I0J-375000D01*
G01*
G37*
G36*
G01*
X131750000Y-42375000D02*
X131750000Y-43125000D01*
G75*
G02*
X131375000Y-43500000I-375000J0D01*
G01*
X128625000Y-43500000D01*
G75*
G02*
X128250000Y-43125000I0J375000D01*
G01*
X128250000Y-42375000D01*
G75*
G02*
X128625000Y-42000000I375000J0D01*
G01*
X131375000Y-42000000D01*
G75*
G02*
X131750000Y-42375000I0J-375000D01*
G01*
G37*
G36*
G01*
X123750000Y-44875000D02*
X123750000Y-45625000D01*
G75*
G02*
X123375000Y-46000000I-375000J0D01*
G01*
X120625000Y-46000000D01*
G75*
G02*
X120250000Y-45625000I0J375000D01*
G01*
X120250000Y-44875000D01*
G75*
G02*
X120625000Y-44500000I375000J0D01*
G01*
X123375000Y-44500000D01*
G75*
G02*
X123750000Y-44875000I0J-375000D01*
G01*
G37*
G36*
G01*
X127750000Y-44875000D02*
X127750000Y-45625000D01*
G75*
G02*
X127375000Y-46000000I-375000J0D01*
G01*
X124625000Y-46000000D01*
G75*
G02*
X124250000Y-45625000I0J375000D01*
G01*
X124250000Y-44875000D01*
G75*
G02*
X124625000Y-44500000I375000J0D01*
G01*
X127375000Y-44500000D01*
G75*
G02*
X127750000Y-44875000I0J-375000D01*
G01*
G37*
G36*
G01*
X131750000Y-44875000D02*
X131750000Y-45625000D01*
G75*
G02*
X131375000Y-46000000I-375000J0D01*
G01*
X128625000Y-46000000D01*
G75*
G02*
X128250000Y-45625000I0J375000D01*
G01*
X128250000Y-44875000D01*
G75*
G02*
X128625000Y-44500000I375000J0D01*
G01*
X131375000Y-44500000D01*
G75*
G02*
X131750000Y-44875000I0J-375000D01*
G01*
G37*
%TD*%
D11*
%TO.C,C1*%
X160500000Y-43000000D03*
D12*
X160500000Y-40500000D03*
%TD*%
%TO.C,C2*%
X151500000Y-40500000D03*
D11*
X151500000Y-43000000D03*
%TD*%
D13*
%TO.C,J1*%
X158000000Y-47000000D03*
D14*
X155460000Y-47000000D03*
X152920000Y-47000000D03*
X150380000Y-47000000D03*
X147840000Y-77480000D03*
X150380000Y-77480000D03*
X152920000Y-77480000D03*
X155460000Y-77480000D03*
X158000000Y-77480000D03*
%TD*%
D13*
%TO.C,J2*%
X159400000Y-88800000D03*
D15*
X156860000Y-88800000D03*
X154320000Y-88800000D03*
X151780000Y-88800000D03*
X149240000Y-88800000D03*
X146700000Y-88800000D03*
%TD*%
D13*
%TO.C,J4*%
X116500000Y-51500000D03*
D15*
X119040000Y-51500000D03*
X121580000Y-51500000D03*
X124120000Y-51500000D03*
X126660000Y-51500000D03*
X129200000Y-51500000D03*
X131740000Y-51500000D03*
X134280000Y-51500000D03*
X136820000Y-51500000D03*
%TD*%
D16*
%TO.C,R1*%
X150500000Y-92840000D03*
D12*
X150500000Y-103000000D03*
%TD*%
%TO.C,R2*%
X156000000Y-103000000D03*
D16*
X156000000Y-92840000D03*
%TD*%
D13*
%TO.C,U1*%
X141330001Y-64410001D03*
D14*
X141330001Y-66950001D03*
X141330001Y-69490001D03*
X141330001Y-72030001D03*
X141330001Y-74570001D03*
X141330001Y-77110001D03*
X141330001Y-79650001D03*
X141330001Y-82190001D03*
X141330001Y-84730001D03*
X141330001Y-87270001D03*
X141330001Y-89810001D03*
X141330001Y-92350001D03*
X141330001Y-94890001D03*
X141330001Y-97430001D03*
X141330001Y-99970001D03*
X164190001Y-64410001D03*
X164190001Y-66950001D03*
X164190001Y-69490001D03*
X164190001Y-72030001D03*
X164190001Y-74570001D03*
X164190001Y-77110001D03*
X164190001Y-79650001D03*
X164190001Y-82190001D03*
X164190001Y-84730001D03*
X164190001Y-87270001D03*
X164190001Y-89810001D03*
X164190001Y-92350001D03*
X164190001Y-94890001D03*
X164190001Y-97430001D03*
X164190001Y-99970001D03*
%TD*%
D16*
%TO.C,R3*%
X112160000Y-43000000D03*
D12*
X102000000Y-43000000D03*
%TD*%
%TO.C,R4*%
X112160000Y-46500000D03*
D16*
X102000000Y-46500000D03*
%TD*%
M02*
