%TF.GenerationSoftware,KiCad,Pcbnew,5.1.10*%
%TF.CreationDate,2021-11-06T10:08:14+01:00*%
%TF.ProjectId,air_quality_box,6169725f-7175-4616-9c69-74795f626f78,rev?*%
%TF.SameCoordinates,Original*%
%TF.FileFunction,Legend,Top*%
%TF.FilePolarity,Positive*%
%FSLAX46Y46*%
G04 Gerber Fmt 4.6, Leading zero omitted, Abs format (unit mm)*
G04 Created by KiCad (PCBNEW 5.1.10) date 2021-11-06 10:08:14*
%MOMM*%
%LPD*%
G01*
G04 APERTURE LIST*
%ADD10C,0.150000*%
%ADD11C,0.120000*%
%ADD12C,1.000000*%
%ADD13C,0.100000*%
G04 APERTURE END LIST*
D10*
X161452380Y-99119047D02*
X160452380Y-99119047D01*
X161452380Y-98690476D02*
X160928571Y-98690476D01*
X160833333Y-98738095D01*
X160785714Y-98833333D01*
X160785714Y-98976190D01*
X160833333Y-99071428D01*
X160880952Y-99119047D01*
X160785714Y-98357142D02*
X160785714Y-97976190D01*
X160452380Y-98214285D02*
X161309523Y-98214285D01*
X161404761Y-98166666D01*
X161452380Y-98071428D01*
X161452380Y-97976190D01*
X160785714Y-97785714D02*
X160785714Y-97404761D01*
X160452380Y-97642857D02*
X161309523Y-97642857D01*
X161404761Y-97595238D01*
X161452380Y-97500000D01*
X161452380Y-97404761D01*
X160785714Y-97071428D02*
X161785714Y-97071428D01*
X160833333Y-97071428D02*
X160785714Y-96976190D01*
X160785714Y-96785714D01*
X160833333Y-96690476D01*
X160880952Y-96642857D01*
X160976190Y-96595238D01*
X161261904Y-96595238D01*
X161357142Y-96642857D01*
X161404761Y-96690476D01*
X161452380Y-96785714D01*
X161452380Y-96976190D01*
X161404761Y-97071428D01*
X161404761Y-96214285D02*
X161452380Y-96119047D01*
X161452380Y-95928571D01*
X161404761Y-95833333D01*
X161309523Y-95785714D01*
X161261904Y-95785714D01*
X161166666Y-95833333D01*
X161119047Y-95928571D01*
X161119047Y-96071428D01*
X161071428Y-96166666D01*
X160976190Y-96214285D01*
X160928571Y-96214285D01*
X160833333Y-96166666D01*
X160785714Y-96071428D01*
X160785714Y-95928571D01*
X160833333Y-95833333D01*
X161357142Y-95357142D02*
X161404761Y-95309523D01*
X161452380Y-95357142D01*
X161404761Y-95404761D01*
X161357142Y-95357142D01*
X161452380Y-95357142D01*
X160833333Y-95357142D02*
X160880952Y-95309523D01*
X160928571Y-95357142D01*
X160880952Y-95404761D01*
X160833333Y-95357142D01*
X160928571Y-95357142D01*
X160404761Y-94166666D02*
X161690476Y-95023809D01*
X160404761Y-93119047D02*
X161690476Y-93976190D01*
X160785714Y-92357142D02*
X161595238Y-92357142D01*
X161690476Y-92404761D01*
X161738095Y-92452380D01*
X161785714Y-92547619D01*
X161785714Y-92690476D01*
X161738095Y-92785714D01*
X161404761Y-92357142D02*
X161452380Y-92452380D01*
X161452380Y-92642857D01*
X161404761Y-92738095D01*
X161357142Y-92785714D01*
X161261904Y-92833333D01*
X160976190Y-92833333D01*
X160880952Y-92785714D01*
X160833333Y-92738095D01*
X160785714Y-92642857D01*
X160785714Y-92452380D01*
X160833333Y-92357142D01*
X161452380Y-91880952D02*
X160785714Y-91880952D01*
X160452380Y-91880952D02*
X160500000Y-91928571D01*
X160547619Y-91880952D01*
X160500000Y-91833333D01*
X160452380Y-91880952D01*
X160547619Y-91880952D01*
X160785714Y-91547619D02*
X160785714Y-91166666D01*
X160452380Y-91404761D02*
X161309523Y-91404761D01*
X161404761Y-91357142D01*
X161452380Y-91261904D01*
X161452380Y-91166666D01*
X161452380Y-90833333D02*
X160452380Y-90833333D01*
X161452380Y-90404761D02*
X160928571Y-90404761D01*
X160833333Y-90452380D01*
X160785714Y-90547619D01*
X160785714Y-90690476D01*
X160833333Y-90785714D01*
X160880952Y-90833333D01*
X160785714Y-89500000D02*
X161452380Y-89500000D01*
X160785714Y-89928571D02*
X161309523Y-89928571D01*
X161404761Y-89880952D01*
X161452380Y-89785714D01*
X161452380Y-89642857D01*
X161404761Y-89547619D01*
X161357142Y-89500000D01*
X161452380Y-89023809D02*
X160452380Y-89023809D01*
X160833333Y-89023809D02*
X160785714Y-88928571D01*
X160785714Y-88738095D01*
X160833333Y-88642857D01*
X160880952Y-88595238D01*
X160976190Y-88547619D01*
X161261904Y-88547619D01*
X161357142Y-88595238D01*
X161404761Y-88642857D01*
X161452380Y-88738095D01*
X161452380Y-88928571D01*
X161404761Y-89023809D01*
X161357142Y-88119047D02*
X161404761Y-88071428D01*
X161452380Y-88119047D01*
X161404761Y-88166666D01*
X161357142Y-88119047D01*
X161452380Y-88119047D01*
X161404761Y-87214285D02*
X161452380Y-87309523D01*
X161452380Y-87500000D01*
X161404761Y-87595238D01*
X161357142Y-87642857D01*
X161261904Y-87690476D01*
X160976190Y-87690476D01*
X160880952Y-87642857D01*
X160833333Y-87595238D01*
X160785714Y-87500000D01*
X160785714Y-87309523D01*
X160833333Y-87214285D01*
X161452380Y-86642857D02*
X161404761Y-86738095D01*
X161357142Y-86785714D01*
X161261904Y-86833333D01*
X160976190Y-86833333D01*
X160880952Y-86785714D01*
X160833333Y-86738095D01*
X160785714Y-86642857D01*
X160785714Y-86500000D01*
X160833333Y-86404761D01*
X160880952Y-86357142D01*
X160976190Y-86309523D01*
X161261904Y-86309523D01*
X161357142Y-86357142D01*
X161404761Y-86404761D01*
X161452380Y-86500000D01*
X161452380Y-86642857D01*
X161452380Y-85880952D02*
X160785714Y-85880952D01*
X160880952Y-85880952D02*
X160833333Y-85833333D01*
X160785714Y-85738095D01*
X160785714Y-85595238D01*
X160833333Y-85500000D01*
X160928571Y-85452380D01*
X161452380Y-85452380D01*
X160928571Y-85452380D02*
X160833333Y-85404761D01*
X160785714Y-85309523D01*
X160785714Y-85166666D01*
X160833333Y-85071428D01*
X160928571Y-85023809D01*
X161452380Y-85023809D01*
X160404761Y-83833333D02*
X161690476Y-84690476D01*
X161452380Y-83500000D02*
X160785714Y-83500000D01*
X160880952Y-83500000D02*
X160833333Y-83452380D01*
X160785714Y-83357142D01*
X160785714Y-83214285D01*
X160833333Y-83119047D01*
X160928571Y-83071428D01*
X161452380Y-83071428D01*
X160928571Y-83071428D02*
X160833333Y-83023809D01*
X160785714Y-82928571D01*
X160785714Y-82785714D01*
X160833333Y-82690476D01*
X160928571Y-82642857D01*
X161452380Y-82642857D01*
X161452380Y-82023809D02*
X161404761Y-82119047D01*
X161357142Y-82166666D01*
X161261904Y-82214285D01*
X160976190Y-82214285D01*
X160880952Y-82166666D01*
X160833333Y-82119047D01*
X160785714Y-82023809D01*
X160785714Y-81880952D01*
X160833333Y-81785714D01*
X160880952Y-81738095D01*
X160976190Y-81690476D01*
X161261904Y-81690476D01*
X161357142Y-81738095D01*
X161404761Y-81785714D01*
X161452380Y-81880952D01*
X161452380Y-82023809D01*
X160785714Y-81261904D02*
X161452380Y-81261904D01*
X160880952Y-81261904D02*
X160833333Y-81214285D01*
X160785714Y-81119047D01*
X160785714Y-80976190D01*
X160833333Y-80880952D01*
X160928571Y-80833333D01*
X161452380Y-80833333D01*
X161452380Y-80214285D02*
X161404761Y-80309523D01*
X161357142Y-80357142D01*
X161261904Y-80404761D01*
X160976190Y-80404761D01*
X160880952Y-80357142D01*
X160833333Y-80309523D01*
X160785714Y-80214285D01*
X160785714Y-80071428D01*
X160833333Y-79976190D01*
X160880952Y-79928571D01*
X160976190Y-79880952D01*
X161261904Y-79880952D01*
X161357142Y-79928571D01*
X161404761Y-79976190D01*
X161452380Y-80071428D01*
X161452380Y-80214285D01*
X161452380Y-79452380D02*
X160785714Y-79452380D01*
X160976190Y-79452380D02*
X160880952Y-79404761D01*
X160833333Y-79357142D01*
X160785714Y-79261904D01*
X160785714Y-79166666D01*
X161452380Y-78833333D02*
X160452380Y-78833333D01*
X161071428Y-78738095D02*
X161452380Y-78452380D01*
X160785714Y-78452380D02*
X161166666Y-78833333D01*
X161452380Y-78023809D02*
X160785714Y-78023809D01*
X160452380Y-78023809D02*
X160500000Y-78071428D01*
X160547619Y-78023809D01*
X160500000Y-77976190D01*
X160452380Y-78023809D01*
X160547619Y-78023809D01*
X160785714Y-77547619D02*
X161452380Y-77547619D01*
X160880952Y-77547619D02*
X160833333Y-77500000D01*
X160785714Y-77404761D01*
X160785714Y-77261904D01*
X160833333Y-77166666D01*
X160928571Y-77119047D01*
X161452380Y-77119047D01*
X160404761Y-75928571D02*
X161690476Y-76785714D01*
X161452380Y-75166666D02*
X160928571Y-75166666D01*
X160833333Y-75214285D01*
X160785714Y-75309523D01*
X160785714Y-75500000D01*
X160833333Y-75595238D01*
X161404761Y-75166666D02*
X161452380Y-75261904D01*
X161452380Y-75500000D01*
X161404761Y-75595238D01*
X161309523Y-75642857D01*
X161214285Y-75642857D01*
X161119047Y-75595238D01*
X161071428Y-75500000D01*
X161071428Y-75261904D01*
X161023809Y-75166666D01*
X161452380Y-74690476D02*
X160785714Y-74690476D01*
X160452380Y-74690476D02*
X160500000Y-74738095D01*
X160547619Y-74690476D01*
X160500000Y-74642857D01*
X160452380Y-74690476D01*
X160547619Y-74690476D01*
X161452380Y-74214285D02*
X160785714Y-74214285D01*
X160976190Y-74214285D02*
X160880952Y-74166666D01*
X160833333Y-74119047D01*
X160785714Y-74023809D01*
X160785714Y-73928571D01*
X161547619Y-73833333D02*
X161547619Y-73071428D01*
X160785714Y-72404761D02*
X161785714Y-72404761D01*
X161404761Y-72404761D02*
X161452380Y-72500000D01*
X161452380Y-72690476D01*
X161404761Y-72785714D01*
X161357142Y-72833333D01*
X161261904Y-72880952D01*
X160976190Y-72880952D01*
X160880952Y-72833333D01*
X160833333Y-72785714D01*
X160785714Y-72690476D01*
X160785714Y-72500000D01*
X160833333Y-72404761D01*
X160785714Y-71500000D02*
X161452380Y-71500000D01*
X160785714Y-71928571D02*
X161309523Y-71928571D01*
X161404761Y-71880952D01*
X161452380Y-71785714D01*
X161452380Y-71642857D01*
X161404761Y-71547619D01*
X161357142Y-71500000D01*
X161452380Y-70595238D02*
X160928571Y-70595238D01*
X160833333Y-70642857D01*
X160785714Y-70738095D01*
X160785714Y-70928571D01*
X160833333Y-71023809D01*
X161404761Y-70595238D02*
X161452380Y-70690476D01*
X161452380Y-70928571D01*
X161404761Y-71023809D01*
X161309523Y-71071428D01*
X161214285Y-71071428D01*
X161119047Y-71023809D01*
X161071428Y-70928571D01*
X161071428Y-70690476D01*
X161023809Y-70595238D01*
X161452380Y-69976190D02*
X161404761Y-70071428D01*
X161309523Y-70119047D01*
X160452380Y-70119047D01*
X161452380Y-69595238D02*
X160785714Y-69595238D01*
X160452380Y-69595238D02*
X160500000Y-69642857D01*
X160547619Y-69595238D01*
X160500000Y-69547619D01*
X160452380Y-69595238D01*
X160547619Y-69595238D01*
X160785714Y-69261904D02*
X160785714Y-68880952D01*
X160452380Y-69119047D02*
X161309523Y-69119047D01*
X161404761Y-69071428D01*
X161452380Y-68976190D01*
X161452380Y-68880952D01*
X160785714Y-68642857D02*
X161452380Y-68404761D01*
X160785714Y-68166666D02*
X161452380Y-68404761D01*
X161690476Y-68500000D01*
X161738095Y-68547619D01*
X161785714Y-68642857D01*
X161547619Y-68023809D02*
X161547619Y-67261904D01*
X161452380Y-67023809D02*
X160452380Y-67023809D01*
X160833333Y-67023809D02*
X160785714Y-66928571D01*
X160785714Y-66738095D01*
X160833333Y-66642857D01*
X160880952Y-66595238D01*
X160976190Y-66547619D01*
X161261904Y-66547619D01*
X161357142Y-66595238D01*
X161404761Y-66642857D01*
X161452380Y-66738095D01*
X161452380Y-66928571D01*
X161404761Y-67023809D01*
X161452380Y-65976190D02*
X161404761Y-66071428D01*
X161357142Y-66119047D01*
X161261904Y-66166666D01*
X160976190Y-66166666D01*
X160880952Y-66119047D01*
X160833333Y-66071428D01*
X160785714Y-65976190D01*
X160785714Y-65833333D01*
X160833333Y-65738095D01*
X160880952Y-65690476D01*
X160976190Y-65642857D01*
X161261904Y-65642857D01*
X161357142Y-65690476D01*
X161404761Y-65738095D01*
X161452380Y-65833333D01*
X161452380Y-65976190D01*
X161452380Y-65309523D02*
X160785714Y-64785714D01*
X160785714Y-65309523D02*
X161452380Y-64785714D01*
X148095238Y-53952380D02*
X148428571Y-54952380D01*
X148761904Y-53952380D01*
X149476190Y-54904761D02*
X149380952Y-54952380D01*
X149190476Y-54952380D01*
X149095238Y-54904761D01*
X149047619Y-54809523D01*
X149047619Y-54428571D01*
X149095238Y-54333333D01*
X149190476Y-54285714D01*
X149380952Y-54285714D01*
X149476190Y-54333333D01*
X149523809Y-54428571D01*
X149523809Y-54523809D01*
X149047619Y-54619047D01*
X149952380Y-54952380D02*
X149952380Y-54285714D01*
X149952380Y-54476190D02*
X150000000Y-54380952D01*
X150047619Y-54333333D01*
X150142857Y-54285714D01*
X150238095Y-54285714D01*
X150523809Y-54904761D02*
X150619047Y-54952380D01*
X150809523Y-54952380D01*
X150904761Y-54904761D01*
X150952380Y-54809523D01*
X150952380Y-54761904D01*
X150904761Y-54666666D01*
X150809523Y-54619047D01*
X150666666Y-54619047D01*
X150571428Y-54571428D01*
X150523809Y-54476190D01*
X150523809Y-54428571D01*
X150571428Y-54333333D01*
X150666666Y-54285714D01*
X150809523Y-54285714D01*
X150904761Y-54333333D01*
X151380952Y-54952380D02*
X151380952Y-54285714D01*
X151380952Y-53952380D02*
X151333333Y-54000000D01*
X151380952Y-54047619D01*
X151428571Y-54000000D01*
X151380952Y-53952380D01*
X151380952Y-54047619D01*
X152000000Y-54952380D02*
X151904761Y-54904761D01*
X151857142Y-54857142D01*
X151809523Y-54761904D01*
X151809523Y-54476190D01*
X151857142Y-54380952D01*
X151904761Y-54333333D01*
X152000000Y-54285714D01*
X152142857Y-54285714D01*
X152238095Y-54333333D01*
X152285714Y-54380952D01*
X152333333Y-54476190D01*
X152333333Y-54761904D01*
X152285714Y-54857142D01*
X152238095Y-54904761D01*
X152142857Y-54952380D01*
X152000000Y-54952380D01*
X152761904Y-54285714D02*
X152761904Y-54952380D01*
X152761904Y-54380952D02*
X152809523Y-54333333D01*
X152904761Y-54285714D01*
X153047619Y-54285714D01*
X153142857Y-54333333D01*
X153190476Y-54428571D01*
X153190476Y-54952380D01*
X154952380Y-54952380D02*
X154380952Y-54952380D01*
X154666666Y-54952380D02*
X154666666Y-53952380D01*
X154571428Y-54095238D01*
X154476190Y-54190476D01*
X154380952Y-54238095D01*
X155380952Y-54857142D02*
X155428571Y-54904761D01*
X155380952Y-54952380D01*
X155333333Y-54904761D01*
X155380952Y-54857142D01*
X155380952Y-54952380D01*
X156380952Y-54952380D02*
X155809523Y-54952380D01*
X156095238Y-54952380D02*
X156095238Y-53952380D01*
X156000000Y-54095238D01*
X155904761Y-54190476D01*
X155809523Y-54238095D01*
X156809523Y-54857142D02*
X156857142Y-54904761D01*
X156809523Y-54952380D01*
X156761904Y-54904761D01*
X156809523Y-54857142D01*
X156809523Y-54952380D01*
X157476190Y-53952380D02*
X157571428Y-53952380D01*
X157666666Y-54000000D01*
X157714285Y-54047619D01*
X157761904Y-54142857D01*
X157809523Y-54333333D01*
X157809523Y-54571428D01*
X157761904Y-54761904D01*
X157714285Y-54857142D01*
X157666666Y-54904761D01*
X157571428Y-54952380D01*
X157476190Y-54952380D01*
X157380952Y-54904761D01*
X157333333Y-54857142D01*
X157285714Y-54761904D01*
X157238095Y-54571428D01*
X157238095Y-54333333D01*
X157285714Y-54142857D01*
X157333333Y-54047619D01*
X157380952Y-54000000D01*
X157476190Y-53952380D01*
X147500000Y-52166666D02*
X147976190Y-52166666D01*
X147404761Y-52452380D02*
X147738095Y-51452380D01*
X148071428Y-52452380D01*
X148404761Y-52452380D02*
X148404761Y-51785714D01*
X148404761Y-51452380D02*
X148357142Y-51500000D01*
X148404761Y-51547619D01*
X148452380Y-51500000D01*
X148404761Y-51452380D01*
X148404761Y-51547619D01*
X148880952Y-52452380D02*
X148880952Y-51785714D01*
X148880952Y-51976190D02*
X148928571Y-51880952D01*
X148976190Y-51833333D01*
X149071428Y-51785714D01*
X149166666Y-51785714D01*
X150928571Y-52547619D02*
X150833333Y-52500000D01*
X150738095Y-52404761D01*
X150595238Y-52261904D01*
X150500000Y-52214285D01*
X150404761Y-52214285D01*
X150452380Y-52452380D02*
X150357142Y-52404761D01*
X150261904Y-52309523D01*
X150214285Y-52119047D01*
X150214285Y-51785714D01*
X150261904Y-51595238D01*
X150357142Y-51500000D01*
X150452380Y-51452380D01*
X150642857Y-51452380D01*
X150738095Y-51500000D01*
X150833333Y-51595238D01*
X150880952Y-51785714D01*
X150880952Y-52119047D01*
X150833333Y-52309523D01*
X150738095Y-52404761D01*
X150642857Y-52452380D01*
X150452380Y-52452380D01*
X151738095Y-51785714D02*
X151738095Y-52452380D01*
X151309523Y-51785714D02*
X151309523Y-52309523D01*
X151357142Y-52404761D01*
X151452380Y-52452380D01*
X151595238Y-52452380D01*
X151690476Y-52404761D01*
X151738095Y-52357142D01*
X152642857Y-52452380D02*
X152642857Y-51928571D01*
X152595238Y-51833333D01*
X152500000Y-51785714D01*
X152309523Y-51785714D01*
X152214285Y-51833333D01*
X152642857Y-52404761D02*
X152547619Y-52452380D01*
X152309523Y-52452380D01*
X152214285Y-52404761D01*
X152166666Y-52309523D01*
X152166666Y-52214285D01*
X152214285Y-52119047D01*
X152309523Y-52071428D01*
X152547619Y-52071428D01*
X152642857Y-52023809D01*
X153261904Y-52452380D02*
X153166666Y-52404761D01*
X153119047Y-52309523D01*
X153119047Y-51452380D01*
X153642857Y-52452380D02*
X153642857Y-51785714D01*
X153642857Y-51452380D02*
X153595238Y-51500000D01*
X153642857Y-51547619D01*
X153690476Y-51500000D01*
X153642857Y-51452380D01*
X153642857Y-51547619D01*
X153976190Y-51785714D02*
X154357142Y-51785714D01*
X154119047Y-51452380D02*
X154119047Y-52309523D01*
X154166666Y-52404761D01*
X154261904Y-52452380D01*
X154357142Y-52452380D01*
X154595238Y-51785714D02*
X154833333Y-52452380D01*
X155071428Y-51785714D02*
X154833333Y-52452380D01*
X154738095Y-52690476D01*
X154690476Y-52738095D01*
X154595238Y-52785714D01*
X156547619Y-51928571D02*
X156690476Y-51976190D01*
X156738095Y-52023809D01*
X156785714Y-52119047D01*
X156785714Y-52261904D01*
X156738095Y-52357142D01*
X156690476Y-52404761D01*
X156595238Y-52452380D01*
X156214285Y-52452380D01*
X156214285Y-51452380D01*
X156547619Y-51452380D01*
X156642857Y-51500000D01*
X156690476Y-51547619D01*
X156738095Y-51642857D01*
X156738095Y-51738095D01*
X156690476Y-51833333D01*
X156642857Y-51880952D01*
X156547619Y-51928571D01*
X156214285Y-51928571D01*
X157357142Y-52452380D02*
X157261904Y-52404761D01*
X157214285Y-52357142D01*
X157166666Y-52261904D01*
X157166666Y-51976190D01*
X157214285Y-51880952D01*
X157261904Y-51833333D01*
X157357142Y-51785714D01*
X157500000Y-51785714D01*
X157595238Y-51833333D01*
X157642857Y-51880952D01*
X157690476Y-51976190D01*
X157690476Y-52261904D01*
X157642857Y-52357142D01*
X157595238Y-52404761D01*
X157500000Y-52452380D01*
X157357142Y-52452380D01*
X158023809Y-52452380D02*
X158547619Y-51785714D01*
X158023809Y-51785714D02*
X158547619Y-52452380D01*
D11*
X165000000Y-50000000D02*
X165000000Y-57500000D01*
X100000000Y-50000000D02*
X100000000Y-63500000D01*
X143500000Y-50000000D02*
X165000000Y-50000000D01*
X140500000Y-50000000D02*
X141500000Y-50000000D01*
X100000000Y-50000000D02*
X138500000Y-50000000D01*
D10*
X141071428Y-46428571D02*
X141214285Y-46476190D01*
X141261904Y-46523809D01*
X141309523Y-46619047D01*
X141309523Y-46761904D01*
X141261904Y-46857142D01*
X141214285Y-46904761D01*
X141119047Y-46952380D01*
X140738095Y-46952380D01*
X140738095Y-45952380D01*
X141071428Y-45952380D01*
X141166666Y-46000000D01*
X141214285Y-46047619D01*
X141261904Y-46142857D01*
X141261904Y-46238095D01*
X141214285Y-46333333D01*
X141166666Y-46380952D01*
X141071428Y-46428571D01*
X140738095Y-46428571D01*
X140738095Y-42452380D02*
X140738095Y-41452380D01*
X141309523Y-42452380D02*
X140880952Y-41880952D01*
X141309523Y-41452380D02*
X140738095Y-42023809D01*
X141000000Y-43476190D02*
X141000000Y-43952380D01*
X140666666Y-42952380D02*
X141000000Y-43476190D01*
X141333333Y-42952380D01*
X141261904Y-44500000D02*
X141166666Y-44452380D01*
X141023809Y-44452380D01*
X140880952Y-44500000D01*
X140785714Y-44595238D01*
X140738095Y-44690476D01*
X140690476Y-44880952D01*
X140690476Y-45023809D01*
X140738095Y-45214285D01*
X140785714Y-45309523D01*
X140880952Y-45404761D01*
X141023809Y-45452380D01*
X141119047Y-45452380D01*
X141261904Y-45404761D01*
X141309523Y-45357142D01*
X141309523Y-45023809D01*
X141119047Y-45023809D01*
X141309523Y-40952380D02*
X140976190Y-40476190D01*
X140738095Y-40952380D02*
X140738095Y-39952380D01*
X141119047Y-39952380D01*
X141214285Y-40000000D01*
X141261904Y-40047619D01*
X141309523Y-40142857D01*
X141309523Y-40285714D01*
X141261904Y-40380952D01*
X141214285Y-40428571D01*
X141119047Y-40476190D01*
X140738095Y-40476190D01*
X151988095Y-103952380D02*
X151988095Y-104761904D01*
X152035714Y-104857142D01*
X152083333Y-104904761D01*
X152178571Y-104952380D01*
X152369047Y-104952380D01*
X152464285Y-104904761D01*
X152511904Y-104857142D01*
X152559523Y-104761904D01*
X152559523Y-103952380D01*
X152988095Y-104904761D02*
X153130952Y-104952380D01*
X153369047Y-104952380D01*
X153464285Y-104904761D01*
X153511904Y-104857142D01*
X153559523Y-104761904D01*
X153559523Y-104666666D01*
X153511904Y-104571428D01*
X153464285Y-104523809D01*
X153369047Y-104476190D01*
X153178571Y-104428571D01*
X153083333Y-104380952D01*
X153035714Y-104333333D01*
X152988095Y-104238095D01*
X152988095Y-104142857D01*
X153035714Y-104047619D01*
X153083333Y-104000000D01*
X153178571Y-103952380D01*
X153416666Y-103952380D01*
X153559523Y-104000000D01*
X154321428Y-104428571D02*
X154464285Y-104476190D01*
X154511904Y-104523809D01*
X154559523Y-104619047D01*
X154559523Y-104761904D01*
X154511904Y-104857142D01*
X154464285Y-104904761D01*
X154369047Y-104952380D01*
X153988095Y-104952380D01*
X153988095Y-103952380D01*
X154321428Y-103952380D01*
X154416666Y-104000000D01*
X154464285Y-104047619D01*
X154511904Y-104142857D01*
X154511904Y-104238095D01*
X154464285Y-104333333D01*
X154416666Y-104380952D01*
X154321428Y-104428571D01*
X153988095Y-104428571D01*
D11*
X157500000Y-106250000D02*
X149000000Y-106250000D01*
X157500000Y-101500000D02*
X157500000Y-106250000D01*
X149000000Y-101500000D02*
X157500000Y-101500000D01*
X149000000Y-106250000D02*
X149000000Y-101500000D01*
D12*
X145000000Y-59000000D02*
X145000000Y-62500000D01*
X158250000Y-59000000D02*
X158250000Y-61250000D01*
X155500000Y-59000000D02*
X158250000Y-59000000D01*
X155500000Y-61250000D02*
X155500000Y-59000000D01*
X153000000Y-61250000D02*
X155500000Y-61250000D01*
X153000000Y-59000000D02*
X153000000Y-61250000D01*
X150250000Y-59000000D02*
X153000000Y-59000000D01*
X150250000Y-61250000D02*
X150250000Y-59000000D01*
X147500000Y-61250000D02*
X150250000Y-61250000D01*
X147500000Y-59000000D02*
X147500000Y-61250000D01*
X142000000Y-59000000D02*
X147500000Y-59000000D01*
X142000000Y-62500000D02*
X142000000Y-59000000D01*
D11*
X165250000Y-58250000D02*
X165250000Y-63250000D01*
X140250000Y-58250000D02*
X165250000Y-58250000D01*
X140250000Y-63000000D02*
X140250000Y-58250000D01*
D13*
%TO.C,J3*%
G36*
X144100000Y-40000000D02*
G01*
X144100000Y-41000000D01*
X143500000Y-40500000D01*
X144100000Y-40000000D01*
G37*
X144100000Y-40000000D02*
X144100000Y-41000000D01*
X143500000Y-40500000D01*
X144100000Y-40000000D01*
D11*
X144600000Y-39100000D02*
X143600000Y-39100000D01*
X144600000Y-39100000D02*
X144600000Y-40100000D01*
X144600000Y-47700000D02*
X144600000Y-46700000D01*
X144600000Y-47700000D02*
X143600000Y-47700000D01*
%TO.C,C1*%
X163120000Y-41750000D02*
G75*
G03*
X163120000Y-41750000I-2620000J0D01*
G01*
X157920000Y-41750000D02*
X163080000Y-41750000D01*
X157920000Y-41710000D02*
X163080000Y-41710000D01*
X157921000Y-41670000D02*
X163079000Y-41670000D01*
X157922000Y-41630000D02*
X163078000Y-41630000D01*
X157924000Y-41590000D02*
X163076000Y-41590000D01*
X157927000Y-41550000D02*
X163073000Y-41550000D01*
X157931000Y-41510000D02*
X159460000Y-41510000D01*
X161540000Y-41510000D02*
X163069000Y-41510000D01*
X157935000Y-41470000D02*
X159460000Y-41470000D01*
X161540000Y-41470000D02*
X163065000Y-41470000D01*
X157939000Y-41430000D02*
X159460000Y-41430000D01*
X161540000Y-41430000D02*
X163061000Y-41430000D01*
X157944000Y-41390000D02*
X159460000Y-41390000D01*
X161540000Y-41390000D02*
X163056000Y-41390000D01*
X157950000Y-41350000D02*
X159460000Y-41350000D01*
X161540000Y-41350000D02*
X163050000Y-41350000D01*
X157957000Y-41310000D02*
X159460000Y-41310000D01*
X161540000Y-41310000D02*
X163043000Y-41310000D01*
X157964000Y-41270000D02*
X159460000Y-41270000D01*
X161540000Y-41270000D02*
X163036000Y-41270000D01*
X157972000Y-41230000D02*
X159460000Y-41230000D01*
X161540000Y-41230000D02*
X163028000Y-41230000D01*
X157980000Y-41190000D02*
X159460000Y-41190000D01*
X161540000Y-41190000D02*
X163020000Y-41190000D01*
X157989000Y-41150000D02*
X159460000Y-41150000D01*
X161540000Y-41150000D02*
X163011000Y-41150000D01*
X157999000Y-41110000D02*
X159460000Y-41110000D01*
X161540000Y-41110000D02*
X163001000Y-41110000D01*
X158009000Y-41070000D02*
X159460000Y-41070000D01*
X161540000Y-41070000D02*
X162991000Y-41070000D01*
X158020000Y-41029000D02*
X159460000Y-41029000D01*
X161540000Y-41029000D02*
X162980000Y-41029000D01*
X158032000Y-40989000D02*
X159460000Y-40989000D01*
X161540000Y-40989000D02*
X162968000Y-40989000D01*
X158045000Y-40949000D02*
X159460000Y-40949000D01*
X161540000Y-40949000D02*
X162955000Y-40949000D01*
X158058000Y-40909000D02*
X159460000Y-40909000D01*
X161540000Y-40909000D02*
X162942000Y-40909000D01*
X158072000Y-40869000D02*
X159460000Y-40869000D01*
X161540000Y-40869000D02*
X162928000Y-40869000D01*
X158086000Y-40829000D02*
X159460000Y-40829000D01*
X161540000Y-40829000D02*
X162914000Y-40829000D01*
X158102000Y-40789000D02*
X159460000Y-40789000D01*
X161540000Y-40789000D02*
X162898000Y-40789000D01*
X158118000Y-40749000D02*
X159460000Y-40749000D01*
X161540000Y-40749000D02*
X162882000Y-40749000D01*
X158135000Y-40709000D02*
X159460000Y-40709000D01*
X161540000Y-40709000D02*
X162865000Y-40709000D01*
X158152000Y-40669000D02*
X159460000Y-40669000D01*
X161540000Y-40669000D02*
X162848000Y-40669000D01*
X158171000Y-40629000D02*
X159460000Y-40629000D01*
X161540000Y-40629000D02*
X162829000Y-40629000D01*
X158190000Y-40589000D02*
X159460000Y-40589000D01*
X161540000Y-40589000D02*
X162810000Y-40589000D01*
X158210000Y-40549000D02*
X159460000Y-40549000D01*
X161540000Y-40549000D02*
X162790000Y-40549000D01*
X158232000Y-40509000D02*
X159460000Y-40509000D01*
X161540000Y-40509000D02*
X162768000Y-40509000D01*
X158253000Y-40469000D02*
X159460000Y-40469000D01*
X161540000Y-40469000D02*
X162747000Y-40469000D01*
X158276000Y-40429000D02*
X159460000Y-40429000D01*
X161540000Y-40429000D02*
X162724000Y-40429000D01*
X158300000Y-40389000D02*
X159460000Y-40389000D01*
X161540000Y-40389000D02*
X162700000Y-40389000D01*
X158325000Y-40349000D02*
X159460000Y-40349000D01*
X161540000Y-40349000D02*
X162675000Y-40349000D01*
X158351000Y-40309000D02*
X159460000Y-40309000D01*
X161540000Y-40309000D02*
X162649000Y-40309000D01*
X158378000Y-40269000D02*
X159460000Y-40269000D01*
X161540000Y-40269000D02*
X162622000Y-40269000D01*
X158405000Y-40229000D02*
X159460000Y-40229000D01*
X161540000Y-40229000D02*
X162595000Y-40229000D01*
X158435000Y-40189000D02*
X159460000Y-40189000D01*
X161540000Y-40189000D02*
X162565000Y-40189000D01*
X158465000Y-40149000D02*
X159460000Y-40149000D01*
X161540000Y-40149000D02*
X162535000Y-40149000D01*
X158496000Y-40109000D02*
X159460000Y-40109000D01*
X161540000Y-40109000D02*
X162504000Y-40109000D01*
X158529000Y-40069000D02*
X159460000Y-40069000D01*
X161540000Y-40069000D02*
X162471000Y-40069000D01*
X158563000Y-40029000D02*
X159460000Y-40029000D01*
X161540000Y-40029000D02*
X162437000Y-40029000D01*
X158599000Y-39989000D02*
X159460000Y-39989000D01*
X161540000Y-39989000D02*
X162401000Y-39989000D01*
X158636000Y-39949000D02*
X159460000Y-39949000D01*
X161540000Y-39949000D02*
X162364000Y-39949000D01*
X158674000Y-39909000D02*
X159460000Y-39909000D01*
X161540000Y-39909000D02*
X162326000Y-39909000D01*
X158715000Y-39869000D02*
X159460000Y-39869000D01*
X161540000Y-39869000D02*
X162285000Y-39869000D01*
X158757000Y-39829000D02*
X159460000Y-39829000D01*
X161540000Y-39829000D02*
X162243000Y-39829000D01*
X158801000Y-39789000D02*
X159460000Y-39789000D01*
X161540000Y-39789000D02*
X162199000Y-39789000D01*
X158847000Y-39749000D02*
X159460000Y-39749000D01*
X161540000Y-39749000D02*
X162153000Y-39749000D01*
X158895000Y-39709000D02*
X159460000Y-39709000D01*
X161540000Y-39709000D02*
X162105000Y-39709000D01*
X158946000Y-39669000D02*
X159460000Y-39669000D01*
X161540000Y-39669000D02*
X162054000Y-39669000D01*
X159000000Y-39629000D02*
X159460000Y-39629000D01*
X161540000Y-39629000D02*
X162000000Y-39629000D01*
X159057000Y-39589000D02*
X159460000Y-39589000D01*
X161540000Y-39589000D02*
X161943000Y-39589000D01*
X159117000Y-39549000D02*
X159460000Y-39549000D01*
X161540000Y-39549000D02*
X161883000Y-39549000D01*
X159181000Y-39509000D02*
X159460000Y-39509000D01*
X161540000Y-39509000D02*
X161819000Y-39509000D01*
X159249000Y-39469000D02*
X159460000Y-39469000D01*
X161540000Y-39469000D02*
X161751000Y-39469000D01*
X159322000Y-39429000D02*
X161678000Y-39429000D01*
X159402000Y-39389000D02*
X161598000Y-39389000D01*
X159489000Y-39349000D02*
X161511000Y-39349000D01*
X159585000Y-39309000D02*
X161415000Y-39309000D01*
X159695000Y-39269000D02*
X161305000Y-39269000D01*
X159823000Y-39229000D02*
X161177000Y-39229000D01*
X159982000Y-39189000D02*
X161018000Y-39189000D01*
X160216000Y-39149000D02*
X160784000Y-39149000D01*
X159025000Y-44554775D02*
X159025000Y-44054775D01*
X158775000Y-44304775D02*
X159275000Y-44304775D01*
%TO.C,C2*%
X149775000Y-44304775D02*
X150275000Y-44304775D01*
X150025000Y-44554775D02*
X150025000Y-44054775D01*
X151216000Y-39149000D02*
X151784000Y-39149000D01*
X150982000Y-39189000D02*
X152018000Y-39189000D01*
X150823000Y-39229000D02*
X152177000Y-39229000D01*
X150695000Y-39269000D02*
X152305000Y-39269000D01*
X150585000Y-39309000D02*
X152415000Y-39309000D01*
X150489000Y-39349000D02*
X152511000Y-39349000D01*
X150402000Y-39389000D02*
X152598000Y-39389000D01*
X150322000Y-39429000D02*
X152678000Y-39429000D01*
X152540000Y-39469000D02*
X152751000Y-39469000D01*
X150249000Y-39469000D02*
X150460000Y-39469000D01*
X152540000Y-39509000D02*
X152819000Y-39509000D01*
X150181000Y-39509000D02*
X150460000Y-39509000D01*
X152540000Y-39549000D02*
X152883000Y-39549000D01*
X150117000Y-39549000D02*
X150460000Y-39549000D01*
X152540000Y-39589000D02*
X152943000Y-39589000D01*
X150057000Y-39589000D02*
X150460000Y-39589000D01*
X152540000Y-39629000D02*
X153000000Y-39629000D01*
X150000000Y-39629000D02*
X150460000Y-39629000D01*
X152540000Y-39669000D02*
X153054000Y-39669000D01*
X149946000Y-39669000D02*
X150460000Y-39669000D01*
X152540000Y-39709000D02*
X153105000Y-39709000D01*
X149895000Y-39709000D02*
X150460000Y-39709000D01*
X152540000Y-39749000D02*
X153153000Y-39749000D01*
X149847000Y-39749000D02*
X150460000Y-39749000D01*
X152540000Y-39789000D02*
X153199000Y-39789000D01*
X149801000Y-39789000D02*
X150460000Y-39789000D01*
X152540000Y-39829000D02*
X153243000Y-39829000D01*
X149757000Y-39829000D02*
X150460000Y-39829000D01*
X152540000Y-39869000D02*
X153285000Y-39869000D01*
X149715000Y-39869000D02*
X150460000Y-39869000D01*
X152540000Y-39909000D02*
X153326000Y-39909000D01*
X149674000Y-39909000D02*
X150460000Y-39909000D01*
X152540000Y-39949000D02*
X153364000Y-39949000D01*
X149636000Y-39949000D02*
X150460000Y-39949000D01*
X152540000Y-39989000D02*
X153401000Y-39989000D01*
X149599000Y-39989000D02*
X150460000Y-39989000D01*
X152540000Y-40029000D02*
X153437000Y-40029000D01*
X149563000Y-40029000D02*
X150460000Y-40029000D01*
X152540000Y-40069000D02*
X153471000Y-40069000D01*
X149529000Y-40069000D02*
X150460000Y-40069000D01*
X152540000Y-40109000D02*
X153504000Y-40109000D01*
X149496000Y-40109000D02*
X150460000Y-40109000D01*
X152540000Y-40149000D02*
X153535000Y-40149000D01*
X149465000Y-40149000D02*
X150460000Y-40149000D01*
X152540000Y-40189000D02*
X153565000Y-40189000D01*
X149435000Y-40189000D02*
X150460000Y-40189000D01*
X152540000Y-40229000D02*
X153595000Y-40229000D01*
X149405000Y-40229000D02*
X150460000Y-40229000D01*
X152540000Y-40269000D02*
X153622000Y-40269000D01*
X149378000Y-40269000D02*
X150460000Y-40269000D01*
X152540000Y-40309000D02*
X153649000Y-40309000D01*
X149351000Y-40309000D02*
X150460000Y-40309000D01*
X152540000Y-40349000D02*
X153675000Y-40349000D01*
X149325000Y-40349000D02*
X150460000Y-40349000D01*
X152540000Y-40389000D02*
X153700000Y-40389000D01*
X149300000Y-40389000D02*
X150460000Y-40389000D01*
X152540000Y-40429000D02*
X153724000Y-40429000D01*
X149276000Y-40429000D02*
X150460000Y-40429000D01*
X152540000Y-40469000D02*
X153747000Y-40469000D01*
X149253000Y-40469000D02*
X150460000Y-40469000D01*
X152540000Y-40509000D02*
X153768000Y-40509000D01*
X149232000Y-40509000D02*
X150460000Y-40509000D01*
X152540000Y-40549000D02*
X153790000Y-40549000D01*
X149210000Y-40549000D02*
X150460000Y-40549000D01*
X152540000Y-40589000D02*
X153810000Y-40589000D01*
X149190000Y-40589000D02*
X150460000Y-40589000D01*
X152540000Y-40629000D02*
X153829000Y-40629000D01*
X149171000Y-40629000D02*
X150460000Y-40629000D01*
X152540000Y-40669000D02*
X153848000Y-40669000D01*
X149152000Y-40669000D02*
X150460000Y-40669000D01*
X152540000Y-40709000D02*
X153865000Y-40709000D01*
X149135000Y-40709000D02*
X150460000Y-40709000D01*
X152540000Y-40749000D02*
X153882000Y-40749000D01*
X149118000Y-40749000D02*
X150460000Y-40749000D01*
X152540000Y-40789000D02*
X153898000Y-40789000D01*
X149102000Y-40789000D02*
X150460000Y-40789000D01*
X152540000Y-40829000D02*
X153914000Y-40829000D01*
X149086000Y-40829000D02*
X150460000Y-40829000D01*
X152540000Y-40869000D02*
X153928000Y-40869000D01*
X149072000Y-40869000D02*
X150460000Y-40869000D01*
X152540000Y-40909000D02*
X153942000Y-40909000D01*
X149058000Y-40909000D02*
X150460000Y-40909000D01*
X152540000Y-40949000D02*
X153955000Y-40949000D01*
X149045000Y-40949000D02*
X150460000Y-40949000D01*
X152540000Y-40989000D02*
X153968000Y-40989000D01*
X149032000Y-40989000D02*
X150460000Y-40989000D01*
X152540000Y-41029000D02*
X153980000Y-41029000D01*
X149020000Y-41029000D02*
X150460000Y-41029000D01*
X152540000Y-41070000D02*
X153991000Y-41070000D01*
X149009000Y-41070000D02*
X150460000Y-41070000D01*
X152540000Y-41110000D02*
X154001000Y-41110000D01*
X148999000Y-41110000D02*
X150460000Y-41110000D01*
X152540000Y-41150000D02*
X154011000Y-41150000D01*
X148989000Y-41150000D02*
X150460000Y-41150000D01*
X152540000Y-41190000D02*
X154020000Y-41190000D01*
X148980000Y-41190000D02*
X150460000Y-41190000D01*
X152540000Y-41230000D02*
X154028000Y-41230000D01*
X148972000Y-41230000D02*
X150460000Y-41230000D01*
X152540000Y-41270000D02*
X154036000Y-41270000D01*
X148964000Y-41270000D02*
X150460000Y-41270000D01*
X152540000Y-41310000D02*
X154043000Y-41310000D01*
X148957000Y-41310000D02*
X150460000Y-41310000D01*
X152540000Y-41350000D02*
X154050000Y-41350000D01*
X148950000Y-41350000D02*
X150460000Y-41350000D01*
X152540000Y-41390000D02*
X154056000Y-41390000D01*
X148944000Y-41390000D02*
X150460000Y-41390000D01*
X152540000Y-41430000D02*
X154061000Y-41430000D01*
X148939000Y-41430000D02*
X150460000Y-41430000D01*
X152540000Y-41470000D02*
X154065000Y-41470000D01*
X148935000Y-41470000D02*
X150460000Y-41470000D01*
X152540000Y-41510000D02*
X154069000Y-41510000D01*
X148931000Y-41510000D02*
X150460000Y-41510000D01*
X148927000Y-41550000D02*
X154073000Y-41550000D01*
X148924000Y-41590000D02*
X154076000Y-41590000D01*
X148922000Y-41630000D02*
X154078000Y-41630000D01*
X148921000Y-41670000D02*
X154079000Y-41670000D01*
X148920000Y-41710000D02*
X154080000Y-41710000D01*
X148920000Y-41750000D02*
X154080000Y-41750000D01*
X154120000Y-41750000D02*
G75*
G03*
X154120000Y-41750000I-2620000J0D01*
G01*
%TO.C,J4*%
X138150000Y-52830000D02*
X138150000Y-50170000D01*
X117770000Y-52830000D02*
X138150000Y-52830000D01*
X117770000Y-50170000D02*
X138150000Y-50170000D01*
X117770000Y-52830000D02*
X117770000Y-50170000D01*
X116500000Y-52830000D02*
X115170000Y-52830000D01*
X115170000Y-52830000D02*
X115170000Y-51500000D01*
%TO.C,R3*%
X111120000Y-43000000D02*
X110350000Y-43000000D01*
X103040000Y-43000000D02*
X103810000Y-43000000D01*
X110350000Y-41630000D02*
X103810000Y-41630000D01*
X110350000Y-44370000D02*
X110350000Y-41630000D01*
X103810000Y-44370000D02*
X110350000Y-44370000D01*
X103810000Y-41630000D02*
X103810000Y-44370000D01*
%TO.C,R4*%
X110350000Y-47870000D02*
X110350000Y-45130000D01*
X110350000Y-45130000D02*
X103810000Y-45130000D01*
X103810000Y-45130000D02*
X103810000Y-47870000D01*
X103810000Y-47870000D02*
X110350000Y-47870000D01*
X111120000Y-46500000D02*
X110350000Y-46500000D01*
X103040000Y-46500000D02*
X103810000Y-46500000D01*
%TO.C,J3*%
D10*
X145202380Y-43833333D02*
X145916666Y-43833333D01*
X146059523Y-43880952D01*
X146154761Y-43976190D01*
X146202380Y-44119047D01*
X146202380Y-44214285D01*
X145202380Y-43452380D02*
X145202380Y-42833333D01*
X145583333Y-43166666D01*
X145583333Y-43023809D01*
X145630952Y-42928571D01*
X145678571Y-42880952D01*
X145773809Y-42833333D01*
X146011904Y-42833333D01*
X146107142Y-42880952D01*
X146154761Y-42928571D01*
X146202380Y-43023809D01*
X146202380Y-43309523D01*
X146154761Y-43404761D01*
X146107142Y-43452380D01*
X142904761Y-52964285D02*
X142952380Y-52821428D01*
X142952380Y-52583333D01*
X142904761Y-52488095D01*
X142857142Y-52440476D01*
X142761904Y-52392857D01*
X142666666Y-52392857D01*
X142571428Y-52440476D01*
X142523809Y-52488095D01*
X142476190Y-52583333D01*
X142428571Y-52773809D01*
X142380952Y-52869047D01*
X142333333Y-52916666D01*
X142238095Y-52964285D01*
X142142857Y-52964285D01*
X142047619Y-52916666D01*
X142000000Y-52869047D01*
X141952380Y-52773809D01*
X141952380Y-52535714D01*
X142000000Y-52392857D01*
X142952380Y-51964285D02*
X141952380Y-51964285D01*
X141952380Y-51583333D01*
X142000000Y-51488095D01*
X142047619Y-51440476D01*
X142142857Y-51392857D01*
X142285714Y-51392857D01*
X142380952Y-51440476D01*
X142428571Y-51488095D01*
X142476190Y-51583333D01*
X142476190Y-51964285D01*
X142904761Y-51011904D02*
X142952380Y-50869047D01*
X142952380Y-50630952D01*
X142904761Y-50535714D01*
X142857142Y-50488095D01*
X142761904Y-50440476D01*
X142666666Y-50440476D01*
X142571428Y-50488095D01*
X142523809Y-50535714D01*
X142476190Y-50630952D01*
X142428571Y-50821428D01*
X142380952Y-50916666D01*
X142333333Y-50964285D01*
X142238095Y-51011904D01*
X142142857Y-51011904D01*
X142047619Y-50964285D01*
X142000000Y-50916666D01*
X141952380Y-50821428D01*
X141952380Y-50583333D01*
X142000000Y-50440476D01*
X141952380Y-50107142D02*
X141952380Y-49488095D01*
X142333333Y-49821428D01*
X142333333Y-49678571D01*
X142380952Y-49583333D01*
X142428571Y-49535714D01*
X142523809Y-49488095D01*
X142761904Y-49488095D01*
X142857142Y-49535714D01*
X142904761Y-49583333D01*
X142952380Y-49678571D01*
X142952380Y-49964285D01*
X142904761Y-50059523D01*
X142857142Y-50107142D01*
X141952380Y-48869047D02*
X141952380Y-48773809D01*
X142000000Y-48678571D01*
X142047619Y-48630952D01*
X142142857Y-48583333D01*
X142333333Y-48535714D01*
X142571428Y-48535714D01*
X142761904Y-48583333D01*
X142857142Y-48630952D01*
X142904761Y-48678571D01*
X142952380Y-48773809D01*
X142952380Y-48869047D01*
X142904761Y-48964285D01*
X142857142Y-49011904D01*
X142761904Y-49059523D01*
X142571428Y-49107142D01*
X142333333Y-49107142D01*
X142142857Y-49059523D01*
X142047619Y-49011904D01*
X142000000Y-48964285D01*
X141952380Y-48869047D01*
%TO.C,SW1*%
X124666666Y-40404761D02*
X124809523Y-40452380D01*
X125047619Y-40452380D01*
X125142857Y-40404761D01*
X125190476Y-40357142D01*
X125238095Y-40261904D01*
X125238095Y-40166666D01*
X125190476Y-40071428D01*
X125142857Y-40023809D01*
X125047619Y-39976190D01*
X124857142Y-39928571D01*
X124761904Y-39880952D01*
X124714285Y-39833333D01*
X124666666Y-39738095D01*
X124666666Y-39642857D01*
X124714285Y-39547619D01*
X124761904Y-39500000D01*
X124857142Y-39452380D01*
X125095238Y-39452380D01*
X125238095Y-39500000D01*
X125571428Y-39452380D02*
X125809523Y-40452380D01*
X126000000Y-39738095D01*
X126190476Y-40452380D01*
X126428571Y-39452380D01*
X127333333Y-40452380D02*
X126761904Y-40452380D01*
X127047619Y-40452380D02*
X127047619Y-39452380D01*
X126952380Y-39595238D01*
X126857142Y-39690476D01*
X126761904Y-39738095D01*
%TO.C,C1*%
X157107142Y-41916666D02*
X157154761Y-41964285D01*
X157202380Y-42107142D01*
X157202380Y-42202380D01*
X157154761Y-42345238D01*
X157059523Y-42440476D01*
X156964285Y-42488095D01*
X156773809Y-42535714D01*
X156630952Y-42535714D01*
X156440476Y-42488095D01*
X156345238Y-42440476D01*
X156250000Y-42345238D01*
X156202380Y-42202380D01*
X156202380Y-42107142D01*
X156250000Y-41964285D01*
X156297619Y-41916666D01*
X157202380Y-40964285D02*
X157202380Y-41535714D01*
X157202380Y-41250000D02*
X156202380Y-41250000D01*
X156345238Y-41345238D01*
X156440476Y-41440476D01*
X156488095Y-41535714D01*
X164702380Y-42821428D02*
X164702380Y-43392857D01*
X164702380Y-43107142D02*
X163702380Y-43107142D01*
X163845238Y-43202380D01*
X163940476Y-43297619D01*
X163988095Y-43392857D01*
X163702380Y-42202380D02*
X163702380Y-42107142D01*
X163750000Y-42011904D01*
X163797619Y-41964285D01*
X163892857Y-41916666D01*
X164083333Y-41869047D01*
X164321428Y-41869047D01*
X164511904Y-41916666D01*
X164607142Y-41964285D01*
X164654761Y-42011904D01*
X164702380Y-42107142D01*
X164702380Y-42202380D01*
X164654761Y-42297619D01*
X164607142Y-42345238D01*
X164511904Y-42392857D01*
X164321428Y-42440476D01*
X164083333Y-42440476D01*
X163892857Y-42392857D01*
X163797619Y-42345238D01*
X163750000Y-42297619D01*
X163702380Y-42202380D01*
X164035714Y-41011904D02*
X164702380Y-41011904D01*
X164035714Y-41440476D02*
X164559523Y-41440476D01*
X164654761Y-41392857D01*
X164702380Y-41297619D01*
X164702380Y-41154761D01*
X164654761Y-41059523D01*
X164607142Y-41011904D01*
X164178571Y-40202380D02*
X164178571Y-40535714D01*
X164702380Y-40535714D02*
X163702380Y-40535714D01*
X163702380Y-40059523D01*
%TO.C,C2*%
X148107142Y-41916666D02*
X148154761Y-41964285D01*
X148202380Y-42107142D01*
X148202380Y-42202380D01*
X148154761Y-42345238D01*
X148059523Y-42440476D01*
X147964285Y-42488095D01*
X147773809Y-42535714D01*
X147630952Y-42535714D01*
X147440476Y-42488095D01*
X147345238Y-42440476D01*
X147250000Y-42345238D01*
X147202380Y-42202380D01*
X147202380Y-42107142D01*
X147250000Y-41964285D01*
X147297619Y-41916666D01*
X147297619Y-41535714D02*
X147250000Y-41488095D01*
X147202380Y-41392857D01*
X147202380Y-41154761D01*
X147250000Y-41059523D01*
X147297619Y-41011904D01*
X147392857Y-40964285D01*
X147488095Y-40964285D01*
X147630952Y-41011904D01*
X148202380Y-41583333D01*
X148202380Y-40964285D01*
X155702380Y-42821428D02*
X155702380Y-43392857D01*
X155702380Y-43107142D02*
X154702380Y-43107142D01*
X154845238Y-43202380D01*
X154940476Y-43297619D01*
X154988095Y-43392857D01*
X154702380Y-42202380D02*
X154702380Y-42107142D01*
X154750000Y-42011904D01*
X154797619Y-41964285D01*
X154892857Y-41916666D01*
X155083333Y-41869047D01*
X155321428Y-41869047D01*
X155511904Y-41916666D01*
X155607142Y-41964285D01*
X155654761Y-42011904D01*
X155702380Y-42107142D01*
X155702380Y-42202380D01*
X155654761Y-42297619D01*
X155607142Y-42345238D01*
X155511904Y-42392857D01*
X155321428Y-42440476D01*
X155083333Y-42440476D01*
X154892857Y-42392857D01*
X154797619Y-42345238D01*
X154750000Y-42297619D01*
X154702380Y-42202380D01*
X155035714Y-41011904D02*
X155702380Y-41011904D01*
X155035714Y-41440476D02*
X155559523Y-41440476D01*
X155654761Y-41392857D01*
X155702380Y-41297619D01*
X155702380Y-41154761D01*
X155654761Y-41059523D01*
X155607142Y-41011904D01*
X155178571Y-40202380D02*
X155178571Y-40535714D01*
X155702380Y-40535714D02*
X154702380Y-40535714D01*
X154702380Y-40059523D01*
%TO.C,J4*%
X113622380Y-51833333D02*
X114336666Y-51833333D01*
X114479523Y-51880952D01*
X114574761Y-51976190D01*
X114622380Y-52119047D01*
X114622380Y-52214285D01*
X113955714Y-50928571D02*
X114622380Y-50928571D01*
X113574761Y-51166666D02*
X114289047Y-51404761D01*
X114289047Y-50785714D01*
X130928571Y-49404761D02*
X131071428Y-49452380D01*
X131309523Y-49452380D01*
X131404761Y-49404761D01*
X131452380Y-49357142D01*
X131500000Y-49261904D01*
X131500000Y-49166666D01*
X131452380Y-49071428D01*
X131404761Y-49023809D01*
X131309523Y-48976190D01*
X131119047Y-48928571D01*
X131023809Y-48880952D01*
X130976190Y-48833333D01*
X130928571Y-48738095D01*
X130928571Y-48642857D01*
X130976190Y-48547619D01*
X131023809Y-48500000D01*
X131119047Y-48452380D01*
X131357142Y-48452380D01*
X131500000Y-48500000D01*
X131785714Y-48452380D02*
X132357142Y-48452380D01*
X132071428Y-49452380D02*
X132071428Y-48452380D01*
X132595238Y-48452380D02*
X133261904Y-48452380D01*
X132833333Y-49452380D01*
X134119047Y-48452380D02*
X133642857Y-48452380D01*
X133595238Y-48928571D01*
X133642857Y-48880952D01*
X133738095Y-48833333D01*
X133976190Y-48833333D01*
X134071428Y-48880952D01*
X134119047Y-48928571D01*
X134166666Y-49023809D01*
X134166666Y-49261904D01*
X134119047Y-49357142D01*
X134071428Y-49404761D01*
X133976190Y-49452380D01*
X133738095Y-49452380D01*
X133642857Y-49404761D01*
X133595238Y-49357142D01*
X135023809Y-48452380D02*
X134833333Y-48452380D01*
X134738095Y-48500000D01*
X134690476Y-48547619D01*
X134595238Y-48690476D01*
X134547619Y-48880952D01*
X134547619Y-49261904D01*
X134595238Y-49357142D01*
X134642857Y-49404761D01*
X134738095Y-49452380D01*
X134928571Y-49452380D01*
X135023809Y-49404761D01*
X135071428Y-49357142D01*
X135119047Y-49261904D01*
X135119047Y-49023809D01*
X135071428Y-48928571D01*
X135023809Y-48880952D01*
X134928571Y-48833333D01*
X134738095Y-48833333D01*
X134642857Y-48880952D01*
X134595238Y-48928571D01*
X134547619Y-49023809D01*
X136023809Y-48452380D02*
X135547619Y-48452380D01*
X135500000Y-48928571D01*
X135547619Y-48880952D01*
X135642857Y-48833333D01*
X135880952Y-48833333D01*
X135976190Y-48880952D01*
X136023809Y-48928571D01*
X136071428Y-49023809D01*
X136071428Y-49261904D01*
X136023809Y-49357142D01*
X135976190Y-49404761D01*
X135880952Y-49452380D01*
X135642857Y-49452380D01*
X135547619Y-49404761D01*
X135500000Y-49357142D01*
%TO.C,U1*%
X151998096Y-84182381D02*
X151998096Y-84991905D01*
X152045715Y-85087143D01*
X152093334Y-85134762D01*
X152188572Y-85182381D01*
X152379048Y-85182381D01*
X152474286Y-85134762D01*
X152521905Y-85087143D01*
X152569524Y-84991905D01*
X152569524Y-84182381D01*
X153569524Y-85182381D02*
X152998096Y-85182381D01*
X153283810Y-85182381D02*
X153283810Y-84182381D01*
X153188572Y-84325239D01*
X153093334Y-84420477D01*
X152998096Y-84468096D01*
X145831429Y-82642381D02*
X145831429Y-81642381D01*
X146402858Y-82642381D01*
X146402858Y-81642381D01*
X147021905Y-82642381D02*
X146926667Y-82594762D01*
X146879048Y-82547143D01*
X146831429Y-82451905D01*
X146831429Y-82166191D01*
X146879048Y-82070953D01*
X146926667Y-82023334D01*
X147021905Y-81975715D01*
X147164762Y-81975715D01*
X147260001Y-82023334D01*
X147307620Y-82070953D01*
X147355239Y-82166191D01*
X147355239Y-82451905D01*
X147307620Y-82547143D01*
X147260001Y-82594762D01*
X147164762Y-82642381D01*
X147021905Y-82642381D01*
X148212381Y-82642381D02*
X148212381Y-81642381D01*
X148212381Y-82594762D02*
X148117143Y-82642381D01*
X147926667Y-82642381D01*
X147831429Y-82594762D01*
X147783810Y-82547143D01*
X147736191Y-82451905D01*
X147736191Y-82166191D01*
X147783810Y-82070953D01*
X147831429Y-82023334D01*
X147926667Y-81975715D01*
X148117143Y-81975715D01*
X148212381Y-82023334D01*
X149069524Y-82594762D02*
X148974286Y-82642381D01*
X148783810Y-82642381D01*
X148688572Y-82594762D01*
X148640953Y-82499524D01*
X148640953Y-82118572D01*
X148688572Y-82023334D01*
X148783810Y-81975715D01*
X148974286Y-81975715D01*
X149069524Y-82023334D01*
X149117143Y-82118572D01*
X149117143Y-82213810D01*
X148640953Y-82309048D01*
X149545715Y-82642381D02*
X149545715Y-81642381D01*
X149879048Y-82356667D01*
X150212381Y-81642381D01*
X150212381Y-82642381D01*
X151260001Y-82547143D02*
X151212381Y-82594762D01*
X151069524Y-82642381D01*
X150974286Y-82642381D01*
X150831429Y-82594762D01*
X150736191Y-82499524D01*
X150688572Y-82404286D01*
X150640953Y-82213810D01*
X150640953Y-82070953D01*
X150688572Y-81880477D01*
X150736191Y-81785239D01*
X150831429Y-81690001D01*
X150974286Y-81642381D01*
X151069524Y-81642381D01*
X151212381Y-81690001D01*
X151260001Y-81737620D01*
X151688572Y-81642381D02*
X151688572Y-82451905D01*
X151736191Y-82547143D01*
X151783810Y-82594762D01*
X151879048Y-82642381D01*
X152069524Y-82642381D01*
X152164762Y-82594762D01*
X152212381Y-82547143D01*
X152260001Y-82451905D01*
X152260001Y-81642381D01*
X152498096Y-82737620D02*
X153260001Y-82737620D01*
X153498096Y-82118572D02*
X153831429Y-82118572D01*
X153974286Y-82642381D02*
X153498096Y-82642381D01*
X153498096Y-81642381D01*
X153974286Y-81642381D01*
X154355239Y-82594762D02*
X154498096Y-82642381D01*
X154736191Y-82642381D01*
X154831429Y-82594762D01*
X154879048Y-82547143D01*
X154926667Y-82451905D01*
X154926667Y-82356667D01*
X154879048Y-82261429D01*
X154831429Y-82213810D01*
X154736191Y-82166191D01*
X154545715Y-82118572D01*
X154450477Y-82070953D01*
X154402858Y-82023334D01*
X154355239Y-81928096D01*
X154355239Y-81832858D01*
X154402858Y-81737620D01*
X154450477Y-81690001D01*
X154545715Y-81642381D01*
X154783810Y-81642381D01*
X154926667Y-81690001D01*
X155355239Y-82642381D02*
X155355239Y-81642381D01*
X155736191Y-81642381D01*
X155831429Y-81690001D01*
X155879048Y-81737620D01*
X155926667Y-81832858D01*
X155926667Y-81975715D01*
X155879048Y-82070953D01*
X155831429Y-82118572D01*
X155736191Y-82166191D01*
X155355239Y-82166191D01*
X156498096Y-82070953D02*
X156402858Y-82023334D01*
X156355239Y-81975715D01*
X156307620Y-81880477D01*
X156307620Y-81832858D01*
X156355239Y-81737620D01*
X156402858Y-81690001D01*
X156498096Y-81642381D01*
X156688572Y-81642381D01*
X156783810Y-81690001D01*
X156831429Y-81737620D01*
X156879048Y-81832858D01*
X156879048Y-81880477D01*
X156831429Y-81975715D01*
X156783810Y-82023334D01*
X156688572Y-82070953D01*
X156498096Y-82070953D01*
X156402858Y-82118572D01*
X156355239Y-82166191D01*
X156307620Y-82261429D01*
X156307620Y-82451905D01*
X156355239Y-82547143D01*
X156402858Y-82594762D01*
X156498096Y-82642381D01*
X156688572Y-82642381D01*
X156783810Y-82594762D01*
X156831429Y-82547143D01*
X156879048Y-82451905D01*
X156879048Y-82261429D01*
X156831429Y-82166191D01*
X156783810Y-82118572D01*
X156688572Y-82070953D01*
X157260001Y-81737620D02*
X157307620Y-81690001D01*
X157402858Y-81642381D01*
X157640953Y-81642381D01*
X157736191Y-81690001D01*
X157783810Y-81737620D01*
X157831429Y-81832858D01*
X157831429Y-81928096D01*
X157783810Y-82070953D01*
X157212381Y-82642381D01*
X157831429Y-82642381D01*
X158688572Y-81642381D02*
X158498096Y-81642381D01*
X158402858Y-81690001D01*
X158355239Y-81737620D01*
X158260001Y-81880477D01*
X158212381Y-82070953D01*
X158212381Y-82451905D01*
X158260001Y-82547143D01*
X158307620Y-82594762D01*
X158402858Y-82642381D01*
X158593334Y-82642381D01*
X158688572Y-82594762D01*
X158736191Y-82547143D01*
X158783810Y-82451905D01*
X158783810Y-82213810D01*
X158736191Y-82118572D01*
X158688572Y-82070953D01*
X158593334Y-82023334D01*
X158402858Y-82023334D01*
X158307620Y-82070953D01*
X158260001Y-82118572D01*
X158212381Y-82213810D01*
X159640953Y-81642381D02*
X159450477Y-81642381D01*
X159355239Y-81690001D01*
X159307620Y-81737620D01*
X159212381Y-81880477D01*
X159164762Y-82070953D01*
X159164762Y-82451905D01*
X159212381Y-82547143D01*
X159260001Y-82594762D01*
X159355239Y-82642381D01*
X159545715Y-82642381D01*
X159640953Y-82594762D01*
X159688572Y-82547143D01*
X159736191Y-82451905D01*
X159736191Y-82213810D01*
X159688572Y-82118572D01*
X159640953Y-82070953D01*
X159545715Y-82023334D01*
X159355239Y-82023334D01*
X159260001Y-82070953D01*
X159212381Y-82118572D01*
X159164762Y-82213810D01*
%TO.C,R3*%
X103333333Y-40952380D02*
X103000000Y-40476190D01*
X102761904Y-40952380D02*
X102761904Y-39952380D01*
X103142857Y-39952380D01*
X103238095Y-40000000D01*
X103285714Y-40047619D01*
X103333333Y-40142857D01*
X103333333Y-40285714D01*
X103285714Y-40380952D01*
X103238095Y-40428571D01*
X103142857Y-40476190D01*
X102761904Y-40476190D01*
X103666666Y-39952380D02*
X104285714Y-39952380D01*
X103952380Y-40333333D01*
X104095238Y-40333333D01*
X104190476Y-40380952D01*
X104238095Y-40428571D01*
X104285714Y-40523809D01*
X104285714Y-40761904D01*
X104238095Y-40857142D01*
X104190476Y-40904761D01*
X104095238Y-40952380D01*
X103809523Y-40952380D01*
X103714285Y-40904761D01*
X103666666Y-40857142D01*
X108761904Y-40047619D02*
X108809523Y-40000000D01*
X108904761Y-39952380D01*
X109142857Y-39952380D01*
X109238095Y-40000000D01*
X109285714Y-40047619D01*
X109333333Y-40142857D01*
X109333333Y-40238095D01*
X109285714Y-40380952D01*
X108714285Y-40952380D01*
X109333333Y-40952380D01*
X109714285Y-40047619D02*
X109761904Y-40000000D01*
X109857142Y-39952380D01*
X110095238Y-39952380D01*
X110190476Y-40000000D01*
X110238095Y-40047619D01*
X110285714Y-40142857D01*
X110285714Y-40238095D01*
X110238095Y-40380952D01*
X109666666Y-40952380D01*
X110285714Y-40952380D01*
X110904761Y-39952380D02*
X111000000Y-39952380D01*
X111095238Y-40000000D01*
X111142857Y-40047619D01*
X111190476Y-40142857D01*
X111238095Y-40333333D01*
X111238095Y-40571428D01*
X111190476Y-40761904D01*
X111142857Y-40857142D01*
X111095238Y-40904761D01*
X111000000Y-40952380D01*
X110904761Y-40952380D01*
X110809523Y-40904761D01*
X110761904Y-40857142D01*
X110714285Y-40761904D01*
X110666666Y-40571428D01*
X110666666Y-40333333D01*
X110714285Y-40142857D01*
X110761904Y-40047619D01*
X110809523Y-40000000D01*
X110904761Y-39952380D01*
%TO.C,R4*%
X103333333Y-49452380D02*
X103000000Y-48976190D01*
X102761904Y-49452380D02*
X102761904Y-48452380D01*
X103142857Y-48452380D01*
X103238095Y-48500000D01*
X103285714Y-48547619D01*
X103333333Y-48642857D01*
X103333333Y-48785714D01*
X103285714Y-48880952D01*
X103238095Y-48928571D01*
X103142857Y-48976190D01*
X102761904Y-48976190D01*
X104190476Y-48785714D02*
X104190476Y-49452380D01*
X103952380Y-48404761D02*
X103714285Y-49119047D01*
X104333333Y-49119047D01*
X108761904Y-48547619D02*
X108809523Y-48500000D01*
X108904761Y-48452380D01*
X109142857Y-48452380D01*
X109238095Y-48500000D01*
X109285714Y-48547619D01*
X109333333Y-48642857D01*
X109333333Y-48738095D01*
X109285714Y-48880952D01*
X108714285Y-49452380D01*
X109333333Y-49452380D01*
X109714285Y-48547619D02*
X109761904Y-48500000D01*
X109857142Y-48452380D01*
X110095238Y-48452380D01*
X110190476Y-48500000D01*
X110238095Y-48547619D01*
X110285714Y-48642857D01*
X110285714Y-48738095D01*
X110238095Y-48880952D01*
X109666666Y-49452380D01*
X110285714Y-49452380D01*
X110904761Y-48452380D02*
X111000000Y-48452380D01*
X111095238Y-48500000D01*
X111142857Y-48547619D01*
X111190476Y-48642857D01*
X111238095Y-48833333D01*
X111238095Y-49071428D01*
X111190476Y-49261904D01*
X111142857Y-49357142D01*
X111095238Y-49404761D01*
X111000000Y-49452380D01*
X110904761Y-49452380D01*
X110809523Y-49404761D01*
X110761904Y-49357142D01*
X110714285Y-49261904D01*
X110666666Y-49071428D01*
X110666666Y-48833333D01*
X110714285Y-48642857D01*
X110761904Y-48547619D01*
X110809523Y-48500000D01*
X110904761Y-48452380D01*
%TD*%
M02*
