%TF.GenerationSoftware,KiCad,Pcbnew,5.1.10*%
%TF.CreationDate,2021-11-06T10:08:14+01:00*%
%TF.ProjectId,air_quality_box,6169725f-7175-4616-9c69-74795f626f78,rev?*%
%TF.SameCoordinates,Original*%
%TF.FileFunction,Copper,L2,Bot*%
%TF.FilePolarity,Positive*%
%FSLAX46Y46*%
G04 Gerber Fmt 4.6, Leading zero omitted, Abs format (unit mm)*
G04 Created by KiCad (PCBNEW 5.1.10) date 2021-11-06 10:08:14*
%MOMM*%
%LPD*%
G01*
G04 APERTURE LIST*
%TA.AperFunction,ComponentPad*%
%ADD10C,1.250000*%
%TD*%
%TA.AperFunction,ComponentPad*%
%ADD11R,1.600000X1.600000*%
%TD*%
%TA.AperFunction,ComponentPad*%
%ADD12C,1.600000*%
%TD*%
%TA.AperFunction,ComponentPad*%
%ADD13R,1.700000X1.700000*%
%TD*%
%TA.AperFunction,ComponentPad*%
%ADD14C,1.700000*%
%TD*%
%TA.AperFunction,ComponentPad*%
%ADD15O,1.700000X1.700000*%
%TD*%
%TA.AperFunction,ComponentPad*%
%ADD16O,1.600000X1.600000*%
%TD*%
%TA.AperFunction,ViaPad*%
%ADD17C,0.800000*%
%TD*%
%TA.AperFunction,Conductor*%
%ADD18C,2.000000*%
%TD*%
%TA.AperFunction,Conductor*%
%ADD19C,1.000000*%
%TD*%
%TA.AperFunction,Conductor*%
%ADD20C,0.500000*%
%TD*%
%TA.AperFunction,Conductor*%
%ADD21C,0.254000*%
%TD*%
%TA.AperFunction,Conductor*%
%ADD22C,0.100000*%
%TD*%
G04 APERTURE END LIST*
D10*
%TO.P,J3,5*%
%TO.N,+5V*%
X142500000Y-46500000D03*
%TO.P,J3,4*%
%TO.N,I2C_SDA*%
X142500000Y-45000000D03*
%TO.P,J3,3*%
%TO.N,I2C_SCL*%
X142500000Y-43500000D03*
%TO.P,J3,2*%
%TO.N,GND*%
X142500000Y-42000000D03*
%TO.P,J3,1*%
X142500000Y-40500000D03*
%TD*%
%TO.P,SW1,3*%
%TO.N,+5V*%
%TA.AperFunction,ComponentPad*%
G36*
G01*
X123750000Y-42375000D02*
X123750000Y-43125000D01*
G75*
G02*
X123375000Y-43500000I-375000J0D01*
G01*
X120625000Y-43500000D01*
G75*
G02*
X120250000Y-43125000I0J375000D01*
G01*
X120250000Y-42375000D01*
G75*
G02*
X120625000Y-42000000I375000J0D01*
G01*
X123375000Y-42000000D01*
G75*
G02*
X123750000Y-42375000I0J-375000D01*
G01*
G37*
%TD.AperFunction*%
%TO.P,SW1,2*%
%TO.N,Net-(R3-Pad2)*%
%TA.AperFunction,ComponentPad*%
G36*
G01*
X127750000Y-42375000D02*
X127750000Y-43125000D01*
G75*
G02*
X127375000Y-43500000I-375000J0D01*
G01*
X124625000Y-43500000D01*
G75*
G02*
X124250000Y-43125000I0J375000D01*
G01*
X124250000Y-42375000D01*
G75*
G02*
X124625000Y-42000000I375000J0D01*
G01*
X127375000Y-42000000D01*
G75*
G02*
X127750000Y-42375000I0J-375000D01*
G01*
G37*
%TD.AperFunction*%
%TO.P,SW1,1*%
%TO.N,Net-(SW1-Pad1)*%
%TA.AperFunction,ComponentPad*%
G36*
G01*
X131750000Y-42375000D02*
X131750000Y-43125000D01*
G75*
G02*
X131375000Y-43500000I-375000J0D01*
G01*
X128625000Y-43500000D01*
G75*
G02*
X128250000Y-43125000I0J375000D01*
G01*
X128250000Y-42375000D01*
G75*
G02*
X128625000Y-42000000I375000J0D01*
G01*
X131375000Y-42000000D01*
G75*
G02*
X131750000Y-42375000I0J-375000D01*
G01*
G37*
%TD.AperFunction*%
%TO.P,SW1,3*%
%TO.N,+5V*%
%TA.AperFunction,ComponentPad*%
G36*
G01*
X123750000Y-44875000D02*
X123750000Y-45625000D01*
G75*
G02*
X123375000Y-46000000I-375000J0D01*
G01*
X120625000Y-46000000D01*
G75*
G02*
X120250000Y-45625000I0J375000D01*
G01*
X120250000Y-44875000D01*
G75*
G02*
X120625000Y-44500000I375000J0D01*
G01*
X123375000Y-44500000D01*
G75*
G02*
X123750000Y-44875000I0J-375000D01*
G01*
G37*
%TD.AperFunction*%
%TO.P,SW1,2*%
%TO.N,Net-(R3-Pad2)*%
%TA.AperFunction,ComponentPad*%
G36*
G01*
X127750000Y-44875000D02*
X127750000Y-45625000D01*
G75*
G02*
X127375000Y-46000000I-375000J0D01*
G01*
X124625000Y-46000000D01*
G75*
G02*
X124250000Y-45625000I0J375000D01*
G01*
X124250000Y-44875000D01*
G75*
G02*
X124625000Y-44500000I375000J0D01*
G01*
X127375000Y-44500000D01*
G75*
G02*
X127750000Y-44875000I0J-375000D01*
G01*
G37*
%TD.AperFunction*%
%TO.P,SW1,1*%
%TO.N,Net-(SW1-Pad1)*%
%TA.AperFunction,ComponentPad*%
G36*
G01*
X131750000Y-44875000D02*
X131750000Y-45625000D01*
G75*
G02*
X131375000Y-46000000I-375000J0D01*
G01*
X128625000Y-46000000D01*
G75*
G02*
X128250000Y-45625000I0J375000D01*
G01*
X128250000Y-44875000D01*
G75*
G02*
X128625000Y-44500000I375000J0D01*
G01*
X131375000Y-44500000D01*
G75*
G02*
X131750000Y-44875000I0J-375000D01*
G01*
G37*
%TD.AperFunction*%
%TD*%
D11*
%TO.P,C1,1*%
%TO.N,+5V*%
X160500000Y-43000000D03*
D12*
%TO.P,C1,2*%
%TO.N,GND*%
X160500000Y-40500000D03*
%TD*%
%TO.P,C2,2*%
%TO.N,GND*%
X151500000Y-40500000D03*
D11*
%TO.P,C2,1*%
%TO.N,+5V*%
X151500000Y-43000000D03*
%TD*%
D13*
%TO.P,J1,1*%
%TO.N,+5V*%
X158000000Y-47000000D03*
D14*
%TO.P,J1,2*%
%TO.N,GND*%
X155460000Y-47000000D03*
%TO.P,J1,3*%
%TO.N,Net-(J1-Pad3)*%
X152920000Y-47000000D03*
%TO.P,J1,4*%
%TO.N,Net-(J1-Pad4)*%
X150380000Y-47000000D03*
%TO.P,J1,5*%
%TO.N,Net-(J1-Pad5)*%
X147840000Y-77480000D03*
%TO.P,J1,6*%
%TO.N,Net-(J1-Pad6)*%
X150380000Y-77480000D03*
%TO.P,J1,7*%
%TO.N,UART_1_RX*%
X152920000Y-77480000D03*
%TO.P,J1,8*%
%TO.N,UART_1_TX*%
X155460000Y-77480000D03*
%TO.P,J1,9*%
%TO.N,Net-(J1-Pad9)*%
X158000000Y-77480000D03*
%TD*%
D13*
%TO.P,J2,1*%
%TO.N,Net-(J2-Pad1)*%
X159400000Y-88800000D03*
D15*
%TO.P,J2,2*%
%TO.N,Net-(J2-Pad2)*%
X156860000Y-88800000D03*
%TO.P,J2,3*%
%TO.N,I2C_SDA*%
X154320000Y-88800000D03*
%TO.P,J2,4*%
%TO.N,I2C_SCL*%
X151780000Y-88800000D03*
%TO.P,J2,5*%
%TO.N,GND*%
X149240000Y-88800000D03*
%TO.P,J2,6*%
%TO.N,+5V*%
X146700000Y-88800000D03*
%TD*%
D13*
%TO.P,J4,1*%
%TO.N,LCD_CS*%
X116500000Y-51500000D03*
D15*
%TO.P,J4,2*%
%TO.N,LCD_RST*%
X119040000Y-51500000D03*
%TO.P,J4,3*%
%TO.N,LCD_DC*%
X121580000Y-51500000D03*
%TO.P,J4,4*%
%TO.N,SPI_SCL*%
X124120000Y-51500000D03*
%TO.P,J4,5*%
%TO.N,SPI_MOSI*%
X126660000Y-51500000D03*
%TO.P,J4,6*%
%TO.N,+5V*%
X129200000Y-51500000D03*
%TO.P,J4,7*%
%TO.N,GND*%
X131740000Y-51500000D03*
%TO.P,J4,8*%
%TO.N,Net-(J4-Pad8)*%
X134280000Y-51500000D03*
%TO.P,J4,9*%
%TO.N,GND*%
X136820000Y-51500000D03*
%TD*%
D16*
%TO.P,R1,2*%
%TO.N,I2C_SCL*%
X150500000Y-92840000D03*
D12*
%TO.P,R1,1*%
%TO.N,+5V*%
X150500000Y-103000000D03*
%TD*%
%TO.P,R2,1*%
%TO.N,+5V*%
X156000000Y-103000000D03*
D16*
%TO.P,R2,2*%
%TO.N,I2C_SDA*%
X156000000Y-92840000D03*
%TD*%
D13*
%TO.P,U1,1*%
%TO.N,Net-(U1-Pad1)*%
X141330001Y-64410001D03*
D14*
%TO.P,U1,2*%
%TO.N,Net-(U1-Pad2)*%
X141330001Y-66950001D03*
%TO.P,U1,3*%
%TO.N,Net-(U1-Pad3)*%
X141330001Y-69490001D03*
%TO.P,U1,4*%
%TO.N,Net-(U1-Pad4)*%
X141330001Y-72030001D03*
%TO.P,U1,5*%
%TO.N,Net-(U1-Pad5)*%
X141330001Y-74570001D03*
%TO.P,U1,6*%
%TO.N,Net-(U1-Pad6)*%
X141330001Y-77110001D03*
%TO.P,U1,7*%
%TO.N,Net-(U1-Pad7)*%
X141330001Y-79650001D03*
%TO.P,U1,8*%
%TO.N,Net-(U1-Pad8)*%
X141330001Y-82190001D03*
%TO.P,U1,9*%
%TO.N,Net-(U1-Pad9)*%
X141330001Y-84730001D03*
%TO.P,U1,10*%
%TO.N,GND*%
X141330001Y-87270001D03*
%TO.P,U1,11*%
%TO.N,Net-(U1-Pad11)*%
X141330001Y-89810001D03*
%TO.P,U1,12*%
%TO.N,Net-(U1-Pad12)*%
X141330001Y-92350001D03*
%TO.P,U1,13*%
%TO.N,Net-(U1-Pad13)*%
X141330001Y-94890001D03*
%TO.P,U1,14*%
%TO.N,GND*%
X141330001Y-97430001D03*
%TO.P,U1,15*%
%TO.N,+5V*%
X141330001Y-99970001D03*
%TO.P,U1,16*%
%TO.N,LCD_RST*%
X164190001Y-64410001D03*
%TO.P,U1,17*%
%TO.N,I2C_SCL*%
X164190001Y-66950001D03*
%TO.P,U1,18*%
%TO.N,I2C_SDA*%
X164190001Y-69490001D03*
%TO.P,U1,19*%
%TO.N,UART_1_RX*%
X164190001Y-72030001D03*
%TO.P,U1,20*%
%TO.N,UART_1_TX*%
X164190001Y-74570001D03*
%TO.P,U1,21*%
%TO.N,Net-(U1-Pad21)*%
X164190001Y-77110001D03*
%TO.P,U1,22*%
%TO.N,GND*%
X164190001Y-79650001D03*
%TO.P,U1,23*%
%TO.N,SPI_SCL*%
X164190001Y-82190001D03*
%TO.P,U1,24*%
%TO.N,SPI_MOSI*%
X164190001Y-84730001D03*
%TO.P,U1,25*%
%TO.N,LCD_DC*%
X164190001Y-87270001D03*
%TO.P,U1,26*%
%TO.N,LCD_CS*%
X164190001Y-89810001D03*
%TO.P,U1,27*%
%TO.N,Net-(U1-Pad27)*%
X164190001Y-92350001D03*
%TO.P,U1,28*%
%TO.N,Net-(U1-Pad28)*%
X164190001Y-94890001D03*
%TO.P,U1,29*%
%TO.N,GND*%
X164190001Y-97430001D03*
%TO.P,U1,30*%
%TO.N,Net-(U1-Pad30)*%
X164190001Y-99970001D03*
%TD*%
D16*
%TO.P,R3,2*%
%TO.N,Net-(R3-Pad2)*%
X112160000Y-43000000D03*
D12*
%TO.P,R3,1*%
%TO.N,Net-(R3-Pad1)*%
X102000000Y-43000000D03*
%TD*%
%TO.P,R4,1*%
%TO.N,Net-(J4-Pad8)*%
X112160000Y-46500000D03*
D16*
%TO.P,R4,2*%
%TO.N,Net-(R3-Pad1)*%
X102000000Y-46500000D03*
%TD*%
D17*
%TO.N,*%
X139500000Y-44000000D03*
X139500000Y-57000000D03*
X139500000Y-63000000D03*
X139500000Y-49000000D03*
X139500000Y-64000000D03*
X139500000Y-50000000D03*
X139500000Y-51000000D03*
X139500000Y-52000000D03*
X139500000Y-45000000D03*
X139500000Y-46000000D03*
X139500000Y-47000000D03*
X139500000Y-48000000D03*
X139500000Y-39000000D03*
%TO.N,+5V*%
X139500000Y-54000000D03*
X139500000Y-55000000D03*
X139500000Y-53000000D03*
X136500000Y-54500000D03*
X139500000Y-56000000D03*
X143000000Y-54500000D03*
%TO.N,GND*%
X139500000Y-43000000D03*
X139500000Y-42000000D03*
X139500000Y-41000000D03*
X139500000Y-40000000D03*
X120000000Y-54500000D03*
X123000000Y-54500000D03*
X150500000Y-75500000D03*
X155000000Y-72000000D03*
X155000000Y-80500000D03*
X155000000Y-64500000D03*
X120000000Y-60500000D03*
X136000000Y-41500000D03*
%TO.N,I2C_SDA*%
X152000000Y-67000000D03*
%TO.N,LCD_CS*%
X139500000Y-62000000D03*
X148000000Y-69500000D03*
%TO.N,LCD_RST*%
X139500000Y-58000000D03*
X149500000Y-58000000D03*
X132500000Y-57500000D03*
%TO.N,LCD_DC*%
X139500000Y-61000000D03*
X149000000Y-69000000D03*
%TO.N,SPI_SCL*%
X139500000Y-59000000D03*
X149500000Y-59000000D03*
X129500000Y-57000000D03*
%TO.N,SPI_MOSI*%
X139500000Y-60000000D03*
X149500000Y-60000000D03*
%TD*%
D18*
%TO.N,+5V*%
X122000000Y-42750000D02*
X122000000Y-45250000D01*
D19*
%TO.N,UART_1_RX*%
X158369999Y-72030001D02*
X152920000Y-77480000D01*
X164190001Y-72030001D02*
X158369999Y-72030001D01*
%TO.N,UART_1_TX*%
X158369999Y-74570001D02*
X164190001Y-74570001D01*
X155460000Y-77480000D02*
X158369999Y-74570001D01*
%TO.N,I2C_SDA*%
X153535997Y-69490001D02*
X164190001Y-69490001D01*
X146289999Y-76735999D02*
X153535997Y-69490001D01*
X146289999Y-80769999D02*
X146289999Y-76735999D01*
X154320000Y-88800000D02*
X146289999Y-80769999D01*
X152000000Y-51500000D02*
X150500000Y-50000000D01*
X152000000Y-67000000D02*
X152000000Y-51500000D01*
X150500000Y-50000000D02*
X148500000Y-50000000D01*
X148500000Y-50000000D02*
X146000000Y-47500000D01*
X146000000Y-47500000D02*
X146000000Y-45500000D01*
X145500000Y-45000000D02*
X142500000Y-45000000D01*
X146000000Y-45500000D02*
X145500000Y-45000000D01*
%TO.N,I2C_SCL*%
X154378926Y-66950001D02*
X164190001Y-66950001D01*
X145089988Y-82109988D02*
X145089988Y-76238939D01*
X151780000Y-88800000D02*
X145089988Y-82109988D01*
X151050001Y-48550001D02*
X153500000Y-51000000D01*
X153500000Y-66071075D02*
X154378926Y-66950001D01*
X153500000Y-51000000D02*
X153500000Y-66071075D01*
X153500000Y-67500000D02*
X153664463Y-67664463D01*
X153500000Y-66071075D02*
X153500000Y-67500000D01*
X153664463Y-67664463D02*
X154378926Y-66950001D01*
X145089988Y-76238939D02*
X153664463Y-67664463D01*
X151050001Y-48550001D02*
X149050001Y-48550001D01*
X149050001Y-48550001D02*
X147500000Y-47000000D01*
X147500000Y-47000000D02*
X147500000Y-44500000D01*
X146500000Y-43500000D02*
X142500000Y-43500000D01*
X147500000Y-44500000D02*
X146500000Y-43500000D01*
D20*
%TO.N,LCD_CS*%
X148000000Y-69500000D02*
X148000000Y-62500000D01*
X148000000Y-62500000D02*
X147500000Y-62000000D01*
X147500000Y-62000000D02*
X139500000Y-62000000D01*
X139500000Y-62000000D02*
X119500000Y-62000000D01*
X116500000Y-59000000D02*
X116500000Y-51500000D01*
X119500000Y-62000000D02*
X116500000Y-59000000D01*
%TO.N,LCD_RST*%
X149500000Y-58000000D02*
X139500000Y-58000000D01*
X133000000Y-58000000D02*
X132500000Y-57500000D01*
X139500000Y-58000000D02*
X133000000Y-58000000D01*
%TO.N,LCD_DC*%
X149000000Y-69000000D02*
X149000000Y-61500000D01*
X148500000Y-61000000D02*
X139500000Y-61000000D01*
X149000000Y-61500000D02*
X148500000Y-61000000D01*
X139500000Y-61000000D02*
X123000000Y-61000000D01*
X121580000Y-59580000D02*
X121580000Y-51500000D01*
X123000000Y-61000000D02*
X121580000Y-59580000D01*
%TO.N,SPI_SCL*%
X149500000Y-59000000D02*
X139500000Y-59000000D01*
X131500000Y-59000000D02*
X129500000Y-57000000D01*
X139500000Y-59000000D02*
X131500000Y-59000000D01*
%TO.N,SPI_MOSI*%
X149500000Y-60000000D02*
X139500000Y-60000000D01*
X139500000Y-60000000D02*
X128500000Y-60000000D01*
X126660000Y-58160000D02*
X126660000Y-51500000D01*
X128500000Y-60000000D02*
X126660000Y-58160000D01*
D19*
%TO.N,Net-(J4-Pad8)*%
X112160000Y-46500000D02*
X116000000Y-46500000D01*
X116000000Y-46500000D02*
X118500000Y-49000000D01*
X118500000Y-49000000D02*
X133500000Y-49000000D01*
X134280000Y-49780000D02*
X134280000Y-51500000D01*
X133500000Y-49000000D02*
X134280000Y-49780000D01*
D18*
%TO.N,Net-(SW1-Pad1)*%
X130000000Y-42750000D02*
X130000000Y-45250000D01*
%TO.N,Net-(R3-Pad2)*%
X126000000Y-42750000D02*
X126000000Y-45250000D01*
D19*
X112160000Y-43000000D02*
X116000000Y-43000000D01*
X116000000Y-43000000D02*
X118500000Y-40500000D01*
X118500000Y-40500000D02*
X124500000Y-40500000D01*
X126000000Y-42000000D02*
X126000000Y-42750000D01*
X124500000Y-40500000D02*
X126000000Y-42000000D01*
%TD*%
D21*
%TO.N,GND*%
X150883708Y-39196397D02*
X150758486Y-39263329D01*
X150686903Y-39507298D01*
X151500000Y-40320395D01*
X152313097Y-39507298D01*
X152241514Y-39263329D01*
X152023139Y-39160000D01*
X159985485Y-39160000D01*
X159883708Y-39196397D01*
X159758486Y-39263329D01*
X159686903Y-39507298D01*
X160500000Y-40320395D01*
X161313097Y-39507298D01*
X161241514Y-39263329D01*
X161023139Y-39160000D01*
X165340001Y-39160000D01*
X165340001Y-63459894D01*
X165136633Y-63256526D01*
X164893412Y-63094011D01*
X164623159Y-62982069D01*
X164336261Y-62925001D01*
X164043741Y-62925001D01*
X163756843Y-62982069D01*
X163486590Y-63094011D01*
X163243369Y-63256526D01*
X163036526Y-63463369D01*
X162874011Y-63706590D01*
X162762069Y-63976843D01*
X162705001Y-64263741D01*
X162705001Y-64556261D01*
X162762069Y-64843159D01*
X162874011Y-65113412D01*
X163036526Y-65356633D01*
X163243369Y-65563476D01*
X163417761Y-65680001D01*
X163243369Y-65796526D01*
X163224894Y-65815001D01*
X154849058Y-65815001D01*
X154635000Y-65600944D01*
X154635000Y-51055752D01*
X154640491Y-51000000D01*
X154632337Y-50917205D01*
X154618577Y-50777501D01*
X154553676Y-50563553D01*
X154448284Y-50366377D01*
X154306449Y-50193551D01*
X154263141Y-50158009D01*
X152544540Y-48439409D01*
X152773740Y-48485000D01*
X153066260Y-48485000D01*
X153353158Y-48427932D01*
X153623411Y-48315990D01*
X153866632Y-48153475D01*
X153991710Y-48028397D01*
X154611208Y-48028397D01*
X154688843Y-48277472D01*
X154952883Y-48403371D01*
X155236411Y-48475339D01*
X155528531Y-48490611D01*
X155818019Y-48448599D01*
X156093747Y-48350919D01*
X156231157Y-48277472D01*
X156308792Y-48028397D01*
X155460000Y-47179605D01*
X154611208Y-48028397D01*
X153991710Y-48028397D01*
X154073475Y-47946632D01*
X154189311Y-47773271D01*
X154431603Y-47848792D01*
X155280395Y-47000000D01*
X155639605Y-47000000D01*
X156488397Y-47848792D01*
X156511928Y-47841458D01*
X156511928Y-47850000D01*
X156524188Y-47974482D01*
X156560498Y-48094180D01*
X156619463Y-48204494D01*
X156698815Y-48301185D01*
X156795506Y-48380537D01*
X156905820Y-48439502D01*
X157025518Y-48475812D01*
X157150000Y-48488072D01*
X158850000Y-48488072D01*
X158974482Y-48475812D01*
X159094180Y-48439502D01*
X159204494Y-48380537D01*
X159301185Y-48301185D01*
X159380537Y-48204494D01*
X159439502Y-48094180D01*
X159475812Y-47974482D01*
X159488072Y-47850000D01*
X159488072Y-46150000D01*
X159475812Y-46025518D01*
X159439502Y-45905820D01*
X159380537Y-45795506D01*
X159301185Y-45698815D01*
X159204494Y-45619463D01*
X159094180Y-45560498D01*
X158974482Y-45524188D01*
X158850000Y-45511928D01*
X157150000Y-45511928D01*
X157025518Y-45524188D01*
X156905820Y-45560498D01*
X156795506Y-45619463D01*
X156698815Y-45698815D01*
X156619463Y-45795506D01*
X156560498Y-45905820D01*
X156524188Y-46025518D01*
X156511928Y-46150000D01*
X156511928Y-46158542D01*
X156488397Y-46151208D01*
X155639605Y-47000000D01*
X155280395Y-47000000D01*
X154431603Y-46151208D01*
X154189311Y-46226729D01*
X154073475Y-46053368D01*
X153991710Y-45971603D01*
X154611208Y-45971603D01*
X155460000Y-46820395D01*
X156308792Y-45971603D01*
X156231157Y-45722528D01*
X155967117Y-45596629D01*
X155683589Y-45524661D01*
X155391469Y-45509389D01*
X155101981Y-45551401D01*
X154826253Y-45649081D01*
X154688843Y-45722528D01*
X154611208Y-45971603D01*
X153991710Y-45971603D01*
X153866632Y-45846525D01*
X153623411Y-45684010D01*
X153353158Y-45572068D01*
X153066260Y-45515000D01*
X152773740Y-45515000D01*
X152486842Y-45572068D01*
X152216589Y-45684010D01*
X151973368Y-45846525D01*
X151766525Y-46053368D01*
X151650000Y-46227760D01*
X151533475Y-46053368D01*
X151326632Y-45846525D01*
X151083411Y-45684010D01*
X150813158Y-45572068D01*
X150526260Y-45515000D01*
X150233740Y-45515000D01*
X149946842Y-45572068D01*
X149676589Y-45684010D01*
X149433368Y-45846525D01*
X149226525Y-46053368D01*
X149064010Y-46296589D01*
X148952068Y-46566842D01*
X148905597Y-46800466D01*
X148635000Y-46529869D01*
X148635000Y-44555752D01*
X148640491Y-44500000D01*
X148618577Y-44277501D01*
X148553676Y-44063553D01*
X148448284Y-43866377D01*
X148341989Y-43736856D01*
X148341987Y-43736854D01*
X148306449Y-43693551D01*
X148263145Y-43658013D01*
X147341995Y-42736864D01*
X147306449Y-42693551D01*
X147133623Y-42551716D01*
X146936447Y-42446324D01*
X146722499Y-42381423D01*
X146555752Y-42365000D01*
X146555751Y-42365000D01*
X146500000Y-42359509D01*
X146444249Y-42365000D01*
X143708351Y-42365000D01*
X143747562Y-42200000D01*
X150061928Y-42200000D01*
X150061928Y-43800000D01*
X150074188Y-43924482D01*
X150110498Y-44044180D01*
X150169463Y-44154494D01*
X150248815Y-44251185D01*
X150345506Y-44330537D01*
X150455820Y-44389502D01*
X150575518Y-44425812D01*
X150700000Y-44438072D01*
X152300000Y-44438072D01*
X152424482Y-44425812D01*
X152544180Y-44389502D01*
X152654494Y-44330537D01*
X152751185Y-44251185D01*
X152830537Y-44154494D01*
X152889502Y-44044180D01*
X152925812Y-43924482D01*
X152938072Y-43800000D01*
X152938072Y-42200000D01*
X159061928Y-42200000D01*
X159061928Y-43800000D01*
X159074188Y-43924482D01*
X159110498Y-44044180D01*
X159169463Y-44154494D01*
X159248815Y-44251185D01*
X159345506Y-44330537D01*
X159455820Y-44389502D01*
X159575518Y-44425812D01*
X159700000Y-44438072D01*
X161300000Y-44438072D01*
X161424482Y-44425812D01*
X161544180Y-44389502D01*
X161654494Y-44330537D01*
X161751185Y-44251185D01*
X161830537Y-44154494D01*
X161889502Y-44044180D01*
X161925812Y-43924482D01*
X161938072Y-43800000D01*
X161938072Y-42200000D01*
X161925812Y-42075518D01*
X161889502Y-41955820D01*
X161830537Y-41845506D01*
X161751185Y-41748815D01*
X161654494Y-41669463D01*
X161544180Y-41610498D01*
X161424482Y-41574188D01*
X161300000Y-41561928D01*
X161292785Y-41561928D01*
X161313097Y-41492702D01*
X160500000Y-40679605D01*
X159686903Y-41492702D01*
X159707215Y-41561928D01*
X159700000Y-41561928D01*
X159575518Y-41574188D01*
X159455820Y-41610498D01*
X159345506Y-41669463D01*
X159248815Y-41748815D01*
X159169463Y-41845506D01*
X159110498Y-41955820D01*
X159074188Y-42075518D01*
X159061928Y-42200000D01*
X152938072Y-42200000D01*
X152925812Y-42075518D01*
X152889502Y-41955820D01*
X152830537Y-41845506D01*
X152751185Y-41748815D01*
X152654494Y-41669463D01*
X152544180Y-41610498D01*
X152424482Y-41574188D01*
X152300000Y-41561928D01*
X152292785Y-41561928D01*
X152313097Y-41492702D01*
X151500000Y-40679605D01*
X150686903Y-41492702D01*
X150707215Y-41561928D01*
X150700000Y-41561928D01*
X150575518Y-41574188D01*
X150455820Y-41610498D01*
X150345506Y-41669463D01*
X150248815Y-41748815D01*
X150169463Y-41845506D01*
X150110498Y-41955820D01*
X150074188Y-42075518D01*
X150061928Y-42200000D01*
X143747562Y-42200000D01*
X143754553Y-42170582D01*
X143763726Y-41922553D01*
X143724335Y-41677501D01*
X143637893Y-41444842D01*
X143593777Y-41362306D01*
X143457663Y-41331999D01*
X143484635Y-41305027D01*
X143429608Y-41250000D01*
X143484635Y-41194973D01*
X143457663Y-41168001D01*
X143593777Y-41137694D01*
X143697168Y-40912056D01*
X143754553Y-40670582D01*
X143758253Y-40570512D01*
X150059783Y-40570512D01*
X150101213Y-40850130D01*
X150196397Y-41116292D01*
X150263329Y-41241514D01*
X150507298Y-41313097D01*
X151320395Y-40500000D01*
X151679605Y-40500000D01*
X152492702Y-41313097D01*
X152736671Y-41241514D01*
X152857571Y-40986004D01*
X152926300Y-40711816D01*
X152933265Y-40570512D01*
X159059783Y-40570512D01*
X159101213Y-40850130D01*
X159196397Y-41116292D01*
X159263329Y-41241514D01*
X159507298Y-41313097D01*
X160320395Y-40500000D01*
X160679605Y-40500000D01*
X161492702Y-41313097D01*
X161736671Y-41241514D01*
X161857571Y-40986004D01*
X161926300Y-40711816D01*
X161940217Y-40429488D01*
X161898787Y-40149870D01*
X161803603Y-39883708D01*
X161736671Y-39758486D01*
X161492702Y-39686903D01*
X160679605Y-40500000D01*
X160320395Y-40500000D01*
X159507298Y-39686903D01*
X159263329Y-39758486D01*
X159142429Y-40013996D01*
X159073700Y-40288184D01*
X159059783Y-40570512D01*
X152933265Y-40570512D01*
X152940217Y-40429488D01*
X152898787Y-40149870D01*
X152803603Y-39883708D01*
X152736671Y-39758486D01*
X152492702Y-39686903D01*
X151679605Y-40500000D01*
X151320395Y-40500000D01*
X150507298Y-39686903D01*
X150263329Y-39758486D01*
X150142429Y-40013996D01*
X150073700Y-40288184D01*
X150059783Y-40570512D01*
X143758253Y-40570512D01*
X143763726Y-40422553D01*
X143724335Y-40177501D01*
X143637893Y-39944842D01*
X143593777Y-39862306D01*
X143367648Y-39811957D01*
X142679605Y-40500000D01*
X142693748Y-40514143D01*
X142514143Y-40693748D01*
X142500000Y-40679605D01*
X142485858Y-40693748D01*
X142306253Y-40514143D01*
X142320395Y-40500000D01*
X141632352Y-39811957D01*
X141406223Y-39862306D01*
X141302832Y-40087944D01*
X141245447Y-40329418D01*
X141236274Y-40577447D01*
X141275665Y-40822499D01*
X141362107Y-41055158D01*
X141406223Y-41137694D01*
X141542337Y-41168001D01*
X141515365Y-41194973D01*
X141570392Y-41250000D01*
X141515365Y-41305027D01*
X141542337Y-41331999D01*
X141406223Y-41362306D01*
X141302832Y-41587944D01*
X141245447Y-41829418D01*
X141236274Y-42077447D01*
X141275665Y-42322499D01*
X141362107Y-42555158D01*
X141406223Y-42637694D01*
X141548678Y-42669413D01*
X141521294Y-42696797D01*
X141383402Y-42903166D01*
X141288421Y-43132471D01*
X141240000Y-43375901D01*
X141240000Y-43624099D01*
X141288421Y-43867529D01*
X141383402Y-44096834D01*
X141485745Y-44250000D01*
X141383402Y-44403166D01*
X141288421Y-44632471D01*
X141240000Y-44875901D01*
X141240000Y-45124099D01*
X141288421Y-45367529D01*
X141383402Y-45596834D01*
X141485745Y-45750000D01*
X141383402Y-45903166D01*
X141288421Y-46132471D01*
X141240000Y-46375901D01*
X141240000Y-46624099D01*
X141288421Y-46867529D01*
X141383402Y-47096834D01*
X141521294Y-47303203D01*
X141696797Y-47478706D01*
X141903166Y-47616598D01*
X142132471Y-47711579D01*
X142375901Y-47760000D01*
X142624099Y-47760000D01*
X142867529Y-47711579D01*
X143096834Y-47616598D01*
X143303203Y-47478706D01*
X143478706Y-47303203D01*
X143616598Y-47096834D01*
X143711579Y-46867529D01*
X143760000Y-46624099D01*
X143760000Y-46375901D01*
X143712082Y-46135000D01*
X144865001Y-46135000D01*
X144865000Y-47444248D01*
X144859509Y-47500000D01*
X144865000Y-47555751D01*
X144881423Y-47722498D01*
X144946324Y-47936446D01*
X145051716Y-48133623D01*
X145193551Y-48306449D01*
X145236865Y-48341996D01*
X147658009Y-50763141D01*
X147693551Y-50806449D01*
X147805809Y-50898577D01*
X147866377Y-50948284D01*
X148063553Y-51053676D01*
X148277501Y-51118577D01*
X148500000Y-51140491D01*
X148555751Y-51135000D01*
X150029869Y-51135000D01*
X150865001Y-51970133D01*
X150865000Y-67055751D01*
X150881423Y-67222498D01*
X150946324Y-67436446D01*
X151051716Y-67633623D01*
X151193551Y-67806449D01*
X151366377Y-67948284D01*
X151563553Y-68053676D01*
X151645315Y-68078478D01*
X144326848Y-75396948D01*
X144283540Y-75432490D01*
X144141705Y-75605316D01*
X144100680Y-75682069D01*
X144036312Y-75802493D01*
X143971411Y-76016441D01*
X143949497Y-76238939D01*
X143954989Y-76294700D01*
X143954988Y-82054236D01*
X143949497Y-82109988D01*
X143954988Y-82165739D01*
X143971411Y-82332486D01*
X144036312Y-82546434D01*
X144141704Y-82743611D01*
X144283539Y-82916437D01*
X144326853Y-82951984D01*
X148768235Y-87393367D01*
X148735901Y-87403175D01*
X148473080Y-87528359D01*
X148239731Y-87702412D01*
X148044822Y-87918645D01*
X147975195Y-88035534D01*
X147853475Y-87853368D01*
X147646632Y-87646525D01*
X147403411Y-87484010D01*
X147133158Y-87372068D01*
X146846260Y-87315000D01*
X146553740Y-87315000D01*
X146266842Y-87372068D01*
X145996589Y-87484010D01*
X145753368Y-87646525D01*
X145546525Y-87853368D01*
X145384010Y-88096589D01*
X145272068Y-88366842D01*
X145215000Y-88653740D01*
X145215000Y-88946260D01*
X145272068Y-89233158D01*
X145384010Y-89503411D01*
X145546525Y-89746632D01*
X145753368Y-89953475D01*
X145996589Y-90115990D01*
X146266842Y-90227932D01*
X146553740Y-90285000D01*
X146846260Y-90285000D01*
X147133158Y-90227932D01*
X147403411Y-90115990D01*
X147646632Y-89953475D01*
X147853475Y-89746632D01*
X147975195Y-89564466D01*
X148044822Y-89681355D01*
X148239731Y-89897588D01*
X148473080Y-90071641D01*
X148735901Y-90196825D01*
X148883110Y-90241476D01*
X149113000Y-90120155D01*
X149113000Y-88927000D01*
X149093000Y-88927000D01*
X149093000Y-88673000D01*
X149113000Y-88673000D01*
X149113000Y-88653000D01*
X149367000Y-88653000D01*
X149367000Y-88673000D01*
X149387000Y-88673000D01*
X149387000Y-88927000D01*
X149367000Y-88927000D01*
X149367000Y-90120155D01*
X149596890Y-90241476D01*
X149744099Y-90196825D01*
X150006920Y-90071641D01*
X150240269Y-89897588D01*
X150435178Y-89681355D01*
X150504805Y-89564466D01*
X150626525Y-89746632D01*
X150833368Y-89953475D01*
X151076589Y-90115990D01*
X151346842Y-90227932D01*
X151633740Y-90285000D01*
X151926260Y-90285000D01*
X152213158Y-90227932D01*
X152483411Y-90115990D01*
X152726632Y-89953475D01*
X152933475Y-89746632D01*
X153050000Y-89572240D01*
X153166525Y-89746632D01*
X153373368Y-89953475D01*
X153616589Y-90115990D01*
X153886842Y-90227932D01*
X154173740Y-90285000D01*
X154466260Y-90285000D01*
X154753158Y-90227932D01*
X155023411Y-90115990D01*
X155266632Y-89953475D01*
X155473475Y-89746632D01*
X155590000Y-89572240D01*
X155706525Y-89746632D01*
X155913368Y-89953475D01*
X156156589Y-90115990D01*
X156426842Y-90227932D01*
X156713740Y-90285000D01*
X157006260Y-90285000D01*
X157293158Y-90227932D01*
X157563411Y-90115990D01*
X157806632Y-89953475D01*
X157938487Y-89821620D01*
X157960498Y-89894180D01*
X158019463Y-90004494D01*
X158098815Y-90101185D01*
X158195506Y-90180537D01*
X158305820Y-90239502D01*
X158425518Y-90275812D01*
X158550000Y-90288072D01*
X160250000Y-90288072D01*
X160374482Y-90275812D01*
X160494180Y-90239502D01*
X160604494Y-90180537D01*
X160701185Y-90101185D01*
X160780537Y-90004494D01*
X160839502Y-89894180D01*
X160875812Y-89774482D01*
X160888072Y-89650000D01*
X160888072Y-87950000D01*
X160875812Y-87825518D01*
X160839502Y-87705820D01*
X160780537Y-87595506D01*
X160701185Y-87498815D01*
X160604494Y-87419463D01*
X160494180Y-87360498D01*
X160374482Y-87324188D01*
X160250000Y-87311928D01*
X158550000Y-87311928D01*
X158425518Y-87324188D01*
X158305820Y-87360498D01*
X158195506Y-87419463D01*
X158098815Y-87498815D01*
X158019463Y-87595506D01*
X157960498Y-87705820D01*
X157938487Y-87778380D01*
X157806632Y-87646525D01*
X157563411Y-87484010D01*
X157293158Y-87372068D01*
X157006260Y-87315000D01*
X156713740Y-87315000D01*
X156426842Y-87372068D01*
X156156589Y-87484010D01*
X155913368Y-87646525D01*
X155706525Y-87853368D01*
X155590000Y-88027760D01*
X155473475Y-87853368D01*
X155266632Y-87646525D01*
X155023411Y-87484010D01*
X154753158Y-87372068D01*
X154466260Y-87315000D01*
X154440132Y-87315000D01*
X147424999Y-80299868D01*
X147424999Y-79718532D01*
X162699390Y-79718532D01*
X162741402Y-80008020D01*
X162839082Y-80283748D01*
X162912529Y-80421158D01*
X163161604Y-80498793D01*
X164010396Y-79650001D01*
X163161604Y-78801209D01*
X162912529Y-78878844D01*
X162786630Y-79142884D01*
X162714662Y-79426412D01*
X162699390Y-79718532D01*
X147424999Y-79718532D01*
X147424999Y-78911544D01*
X147693740Y-78965000D01*
X147986260Y-78965000D01*
X148273158Y-78907932D01*
X148543411Y-78795990D01*
X148786632Y-78633475D01*
X148993475Y-78426632D01*
X149110000Y-78252240D01*
X149226525Y-78426632D01*
X149433368Y-78633475D01*
X149676589Y-78795990D01*
X149946842Y-78907932D01*
X150233740Y-78965000D01*
X150526260Y-78965000D01*
X150813158Y-78907932D01*
X151083411Y-78795990D01*
X151326632Y-78633475D01*
X151533475Y-78426632D01*
X151650000Y-78252240D01*
X151766525Y-78426632D01*
X151973368Y-78633475D01*
X152216589Y-78795990D01*
X152486842Y-78907932D01*
X152773740Y-78965000D01*
X153066260Y-78965000D01*
X153353158Y-78907932D01*
X153623411Y-78795990D01*
X153866632Y-78633475D01*
X154073475Y-78426632D01*
X154190000Y-78252240D01*
X154306525Y-78426632D01*
X154513368Y-78633475D01*
X154756589Y-78795990D01*
X155026842Y-78907932D01*
X155313740Y-78965000D01*
X155606260Y-78965000D01*
X155893158Y-78907932D01*
X156163411Y-78795990D01*
X156406632Y-78633475D01*
X156613475Y-78426632D01*
X156730000Y-78252240D01*
X156846525Y-78426632D01*
X157053368Y-78633475D01*
X157296589Y-78795990D01*
X157566842Y-78907932D01*
X157853740Y-78965000D01*
X158146260Y-78965000D01*
X158433158Y-78907932D01*
X158703411Y-78795990D01*
X158946632Y-78633475D01*
X159153475Y-78426632D01*
X159315990Y-78183411D01*
X159427932Y-77913158D01*
X159485000Y-77626260D01*
X159485000Y-77333740D01*
X159427932Y-77046842D01*
X159315990Y-76776589D01*
X159153475Y-76533368D01*
X158946632Y-76326525D01*
X158703411Y-76164010D01*
X158475518Y-76069614D01*
X158840131Y-75705001D01*
X163224894Y-75705001D01*
X163243369Y-75723476D01*
X163417761Y-75840001D01*
X163243369Y-75956526D01*
X163036526Y-76163369D01*
X162874011Y-76406590D01*
X162762069Y-76676843D01*
X162705001Y-76963741D01*
X162705001Y-77256261D01*
X162762069Y-77543159D01*
X162874011Y-77813412D01*
X163036526Y-78056633D01*
X163243369Y-78263476D01*
X163416730Y-78379312D01*
X163341209Y-78621604D01*
X164190001Y-79470396D01*
X165038793Y-78621604D01*
X164963272Y-78379312D01*
X165136633Y-78263476D01*
X165340000Y-78060109D01*
X165340000Y-78839112D01*
X165218398Y-78801209D01*
X164369606Y-79650001D01*
X165218398Y-80498793D01*
X165340000Y-80460890D01*
X165340000Y-81239893D01*
X165136633Y-81036526D01*
X164963272Y-80920690D01*
X165038793Y-80678398D01*
X164190001Y-79829606D01*
X163341209Y-80678398D01*
X163416730Y-80920690D01*
X163243369Y-81036526D01*
X163036526Y-81243369D01*
X162874011Y-81486590D01*
X162762069Y-81756843D01*
X162705001Y-82043741D01*
X162705001Y-82336261D01*
X162762069Y-82623159D01*
X162874011Y-82893412D01*
X163036526Y-83136633D01*
X163243369Y-83343476D01*
X163417761Y-83460001D01*
X163243369Y-83576526D01*
X163036526Y-83783369D01*
X162874011Y-84026590D01*
X162762069Y-84296843D01*
X162705001Y-84583741D01*
X162705001Y-84876261D01*
X162762069Y-85163159D01*
X162874011Y-85433412D01*
X163036526Y-85676633D01*
X163243369Y-85883476D01*
X163417761Y-86000001D01*
X163243369Y-86116526D01*
X163036526Y-86323369D01*
X162874011Y-86566590D01*
X162762069Y-86836843D01*
X162705001Y-87123741D01*
X162705001Y-87416261D01*
X162762069Y-87703159D01*
X162874011Y-87973412D01*
X163036526Y-88216633D01*
X163243369Y-88423476D01*
X163417761Y-88540001D01*
X163243369Y-88656526D01*
X163036526Y-88863369D01*
X162874011Y-89106590D01*
X162762069Y-89376843D01*
X162705001Y-89663741D01*
X162705001Y-89956261D01*
X162762069Y-90243159D01*
X162874011Y-90513412D01*
X163036526Y-90756633D01*
X163243369Y-90963476D01*
X163417761Y-91080001D01*
X163243369Y-91196526D01*
X163036526Y-91403369D01*
X162874011Y-91646590D01*
X162762069Y-91916843D01*
X162705001Y-92203741D01*
X162705001Y-92496261D01*
X162762069Y-92783159D01*
X162874011Y-93053412D01*
X163036526Y-93296633D01*
X163243369Y-93503476D01*
X163417761Y-93620001D01*
X163243369Y-93736526D01*
X163036526Y-93943369D01*
X162874011Y-94186590D01*
X162762069Y-94456843D01*
X162705001Y-94743741D01*
X162705001Y-95036261D01*
X162762069Y-95323159D01*
X162874011Y-95593412D01*
X163036526Y-95836633D01*
X163243369Y-96043476D01*
X163416730Y-96159312D01*
X163341209Y-96401604D01*
X164190001Y-97250396D01*
X165038793Y-96401604D01*
X164963272Y-96159312D01*
X165136633Y-96043476D01*
X165340000Y-95840109D01*
X165340000Y-96619112D01*
X165218398Y-96581209D01*
X164369606Y-97430001D01*
X165218398Y-98278793D01*
X165340000Y-98240890D01*
X165340000Y-99019893D01*
X165136633Y-98816526D01*
X164963272Y-98700690D01*
X165038793Y-98458398D01*
X164190001Y-97609606D01*
X163341209Y-98458398D01*
X163416730Y-98700690D01*
X163243369Y-98816526D01*
X163036526Y-99023369D01*
X162874011Y-99266590D01*
X162762069Y-99536843D01*
X162705001Y-99823741D01*
X162705001Y-100116261D01*
X162762069Y-100403159D01*
X162874011Y-100673412D01*
X163036526Y-100916633D01*
X163243369Y-101123476D01*
X163486590Y-101285991D01*
X163756843Y-101397933D01*
X164043741Y-101455001D01*
X164336261Y-101455001D01*
X164623159Y-101397933D01*
X164893412Y-101285991D01*
X165136633Y-101123476D01*
X165340000Y-100920109D01*
X165340000Y-105840000D01*
X140160000Y-105840000D01*
X140160000Y-102858665D01*
X149065000Y-102858665D01*
X149065000Y-103141335D01*
X149120147Y-103418574D01*
X149228320Y-103679727D01*
X149385363Y-103914759D01*
X149585241Y-104114637D01*
X149820273Y-104271680D01*
X150081426Y-104379853D01*
X150358665Y-104435000D01*
X150641335Y-104435000D01*
X150918574Y-104379853D01*
X151179727Y-104271680D01*
X151414759Y-104114637D01*
X151614637Y-103914759D01*
X151771680Y-103679727D01*
X151879853Y-103418574D01*
X151935000Y-103141335D01*
X151935000Y-102858665D01*
X154565000Y-102858665D01*
X154565000Y-103141335D01*
X154620147Y-103418574D01*
X154728320Y-103679727D01*
X154885363Y-103914759D01*
X155085241Y-104114637D01*
X155320273Y-104271680D01*
X155581426Y-104379853D01*
X155858665Y-104435000D01*
X156141335Y-104435000D01*
X156418574Y-104379853D01*
X156679727Y-104271680D01*
X156914759Y-104114637D01*
X157114637Y-103914759D01*
X157271680Y-103679727D01*
X157379853Y-103418574D01*
X157435000Y-103141335D01*
X157435000Y-102858665D01*
X157379853Y-102581426D01*
X157271680Y-102320273D01*
X157114637Y-102085241D01*
X156914759Y-101885363D01*
X156679727Y-101728320D01*
X156418574Y-101620147D01*
X156141335Y-101565000D01*
X155858665Y-101565000D01*
X155581426Y-101620147D01*
X155320273Y-101728320D01*
X155085241Y-101885363D01*
X154885363Y-102085241D01*
X154728320Y-102320273D01*
X154620147Y-102581426D01*
X154565000Y-102858665D01*
X151935000Y-102858665D01*
X151879853Y-102581426D01*
X151771680Y-102320273D01*
X151614637Y-102085241D01*
X151414759Y-101885363D01*
X151179727Y-101728320D01*
X150918574Y-101620147D01*
X150641335Y-101565000D01*
X150358665Y-101565000D01*
X150081426Y-101620147D01*
X149820273Y-101728320D01*
X149585241Y-101885363D01*
X149385363Y-102085241D01*
X149228320Y-102320273D01*
X149120147Y-102581426D01*
X149065000Y-102858665D01*
X140160000Y-102858665D01*
X140160000Y-100891900D01*
X140176526Y-100916633D01*
X140383369Y-101123476D01*
X140626590Y-101285991D01*
X140896843Y-101397933D01*
X141183741Y-101455001D01*
X141476261Y-101455001D01*
X141763159Y-101397933D01*
X142033412Y-101285991D01*
X142276633Y-101123476D01*
X142483476Y-100916633D01*
X142645991Y-100673412D01*
X142757933Y-100403159D01*
X142815001Y-100116261D01*
X142815001Y-99823741D01*
X142757933Y-99536843D01*
X142645991Y-99266590D01*
X142483476Y-99023369D01*
X142276633Y-98816526D01*
X142103272Y-98700690D01*
X142178793Y-98458398D01*
X141330001Y-97609606D01*
X140481209Y-98458398D01*
X140556730Y-98700690D01*
X140383369Y-98816526D01*
X140176526Y-99023369D01*
X140160000Y-99048102D01*
X140160000Y-98234656D01*
X140301604Y-98278793D01*
X141150396Y-97430001D01*
X141509606Y-97430001D01*
X142358398Y-98278793D01*
X142607473Y-98201158D01*
X142733372Y-97937118D01*
X142805340Y-97653590D01*
X142813446Y-97498532D01*
X162699390Y-97498532D01*
X162741402Y-97788020D01*
X162839082Y-98063748D01*
X162912529Y-98201158D01*
X163161604Y-98278793D01*
X164010396Y-97430001D01*
X163161604Y-96581209D01*
X162912529Y-96658844D01*
X162786630Y-96922884D01*
X162714662Y-97206412D01*
X162699390Y-97498532D01*
X142813446Y-97498532D01*
X142820612Y-97361470D01*
X142778600Y-97071982D01*
X142680920Y-96796254D01*
X142607473Y-96658844D01*
X142358398Y-96581209D01*
X141509606Y-97430001D01*
X141150396Y-97430001D01*
X140301604Y-96581209D01*
X140160000Y-96625346D01*
X140160000Y-95811900D01*
X140176526Y-95836633D01*
X140383369Y-96043476D01*
X140556730Y-96159312D01*
X140481209Y-96401604D01*
X141330001Y-97250396D01*
X142178793Y-96401604D01*
X142103272Y-96159312D01*
X142276633Y-96043476D01*
X142483476Y-95836633D01*
X142645991Y-95593412D01*
X142757933Y-95323159D01*
X142815001Y-95036261D01*
X142815001Y-94743741D01*
X142757933Y-94456843D01*
X142645991Y-94186590D01*
X142483476Y-93943369D01*
X142276633Y-93736526D01*
X142102241Y-93620001D01*
X142276633Y-93503476D01*
X142483476Y-93296633D01*
X142645991Y-93053412D01*
X142757933Y-92783159D01*
X142774740Y-92698665D01*
X149065000Y-92698665D01*
X149065000Y-92981335D01*
X149120147Y-93258574D01*
X149228320Y-93519727D01*
X149385363Y-93754759D01*
X149585241Y-93954637D01*
X149820273Y-94111680D01*
X150081426Y-94219853D01*
X150358665Y-94275000D01*
X150641335Y-94275000D01*
X150918574Y-94219853D01*
X151179727Y-94111680D01*
X151414759Y-93954637D01*
X151614637Y-93754759D01*
X151771680Y-93519727D01*
X151879853Y-93258574D01*
X151935000Y-92981335D01*
X151935000Y-92698665D01*
X154565000Y-92698665D01*
X154565000Y-92981335D01*
X154620147Y-93258574D01*
X154728320Y-93519727D01*
X154885363Y-93754759D01*
X155085241Y-93954637D01*
X155320273Y-94111680D01*
X155581426Y-94219853D01*
X155858665Y-94275000D01*
X156141335Y-94275000D01*
X156418574Y-94219853D01*
X156679727Y-94111680D01*
X156914759Y-93954637D01*
X157114637Y-93754759D01*
X157271680Y-93519727D01*
X157379853Y-93258574D01*
X157435000Y-92981335D01*
X157435000Y-92698665D01*
X157379853Y-92421426D01*
X157271680Y-92160273D01*
X157114637Y-91925241D01*
X156914759Y-91725363D01*
X156679727Y-91568320D01*
X156418574Y-91460147D01*
X156141335Y-91405000D01*
X155858665Y-91405000D01*
X155581426Y-91460147D01*
X155320273Y-91568320D01*
X155085241Y-91725363D01*
X154885363Y-91925241D01*
X154728320Y-92160273D01*
X154620147Y-92421426D01*
X154565000Y-92698665D01*
X151935000Y-92698665D01*
X151879853Y-92421426D01*
X151771680Y-92160273D01*
X151614637Y-91925241D01*
X151414759Y-91725363D01*
X151179727Y-91568320D01*
X150918574Y-91460147D01*
X150641335Y-91405000D01*
X150358665Y-91405000D01*
X150081426Y-91460147D01*
X149820273Y-91568320D01*
X149585241Y-91725363D01*
X149385363Y-91925241D01*
X149228320Y-92160273D01*
X149120147Y-92421426D01*
X149065000Y-92698665D01*
X142774740Y-92698665D01*
X142815001Y-92496261D01*
X142815001Y-92203741D01*
X142757933Y-91916843D01*
X142645991Y-91646590D01*
X142483476Y-91403369D01*
X142276633Y-91196526D01*
X142102241Y-91080001D01*
X142276633Y-90963476D01*
X142483476Y-90756633D01*
X142645991Y-90513412D01*
X142757933Y-90243159D01*
X142815001Y-89956261D01*
X142815001Y-89663741D01*
X142757933Y-89376843D01*
X142645991Y-89106590D01*
X142483476Y-88863369D01*
X142276633Y-88656526D01*
X142103272Y-88540690D01*
X142178793Y-88298398D01*
X141330001Y-87449606D01*
X140481209Y-88298398D01*
X140556730Y-88540690D01*
X140383369Y-88656526D01*
X140176526Y-88863369D01*
X140160000Y-88888102D01*
X140160000Y-88074656D01*
X140301604Y-88118793D01*
X141150396Y-87270001D01*
X141509606Y-87270001D01*
X142358398Y-88118793D01*
X142607473Y-88041158D01*
X142733372Y-87777118D01*
X142805340Y-87493590D01*
X142820612Y-87201470D01*
X142778600Y-86911982D01*
X142680920Y-86636254D01*
X142607473Y-86498844D01*
X142358398Y-86421209D01*
X141509606Y-87270001D01*
X141150396Y-87270001D01*
X140301604Y-86421209D01*
X140160000Y-86465346D01*
X140160000Y-85651900D01*
X140176526Y-85676633D01*
X140383369Y-85883476D01*
X140556730Y-85999312D01*
X140481209Y-86241604D01*
X141330001Y-87090396D01*
X142178793Y-86241604D01*
X142103272Y-85999312D01*
X142276633Y-85883476D01*
X142483476Y-85676633D01*
X142645991Y-85433412D01*
X142757933Y-85163159D01*
X142815001Y-84876261D01*
X142815001Y-84583741D01*
X142757933Y-84296843D01*
X142645991Y-84026590D01*
X142483476Y-83783369D01*
X142276633Y-83576526D01*
X142102241Y-83460001D01*
X142276633Y-83343476D01*
X142483476Y-83136633D01*
X142645991Y-82893412D01*
X142757933Y-82623159D01*
X142815001Y-82336261D01*
X142815001Y-82043741D01*
X142757933Y-81756843D01*
X142645991Y-81486590D01*
X142483476Y-81243369D01*
X142276633Y-81036526D01*
X142102241Y-80920001D01*
X142276633Y-80803476D01*
X142483476Y-80596633D01*
X142645991Y-80353412D01*
X142757933Y-80083159D01*
X142815001Y-79796261D01*
X142815001Y-79503741D01*
X142757933Y-79216843D01*
X142645991Y-78946590D01*
X142483476Y-78703369D01*
X142276633Y-78496526D01*
X142102241Y-78380001D01*
X142276633Y-78263476D01*
X142483476Y-78056633D01*
X142645991Y-77813412D01*
X142757933Y-77543159D01*
X142815001Y-77256261D01*
X142815001Y-76963741D01*
X142757933Y-76676843D01*
X142645991Y-76406590D01*
X142483476Y-76163369D01*
X142276633Y-75956526D01*
X142102241Y-75840001D01*
X142276633Y-75723476D01*
X142483476Y-75516633D01*
X142645991Y-75273412D01*
X142757933Y-75003159D01*
X142815001Y-74716261D01*
X142815001Y-74423741D01*
X142757933Y-74136843D01*
X142645991Y-73866590D01*
X142483476Y-73623369D01*
X142276633Y-73416526D01*
X142102241Y-73300001D01*
X142276633Y-73183476D01*
X142483476Y-72976633D01*
X142645991Y-72733412D01*
X142757933Y-72463159D01*
X142815001Y-72176261D01*
X142815001Y-71883741D01*
X142757933Y-71596843D01*
X142645991Y-71326590D01*
X142483476Y-71083369D01*
X142276633Y-70876526D01*
X142102241Y-70760001D01*
X142276633Y-70643476D01*
X142483476Y-70436633D01*
X142645991Y-70193412D01*
X142757933Y-69923159D01*
X142815001Y-69636261D01*
X142815001Y-69343741D01*
X142757933Y-69056843D01*
X142645991Y-68786590D01*
X142483476Y-68543369D01*
X142276633Y-68336526D01*
X142102241Y-68220001D01*
X142276633Y-68103476D01*
X142483476Y-67896633D01*
X142645991Y-67653412D01*
X142757933Y-67383159D01*
X142815001Y-67096261D01*
X142815001Y-66803741D01*
X142757933Y-66516843D01*
X142645991Y-66246590D01*
X142483476Y-66003369D01*
X142351621Y-65871514D01*
X142424181Y-65849503D01*
X142534495Y-65790538D01*
X142631186Y-65711186D01*
X142710538Y-65614495D01*
X142769503Y-65504181D01*
X142805813Y-65384483D01*
X142818073Y-65260001D01*
X142818073Y-63560001D01*
X142805813Y-63435519D01*
X142769503Y-63315821D01*
X142710538Y-63205507D01*
X142631186Y-63108816D01*
X142534495Y-63029464D01*
X142424181Y-62970499D01*
X142304483Y-62934189D01*
X142180001Y-62921929D01*
X140627000Y-62921929D01*
X140627000Y-62885000D01*
X147115001Y-62885000D01*
X147115000Y-68961546D01*
X147082795Y-69009744D01*
X147004774Y-69198102D01*
X146965000Y-69398061D01*
X146965000Y-69601939D01*
X147004774Y-69801898D01*
X147082795Y-69990256D01*
X147196063Y-70159774D01*
X147340226Y-70303937D01*
X147509744Y-70417205D01*
X147698102Y-70495226D01*
X147898061Y-70535000D01*
X148101939Y-70535000D01*
X148301898Y-70495226D01*
X148490256Y-70417205D01*
X148659774Y-70303937D01*
X148803937Y-70159774D01*
X148888570Y-70033112D01*
X148898061Y-70035000D01*
X149101939Y-70035000D01*
X149301898Y-69995226D01*
X149490256Y-69917205D01*
X149659774Y-69803937D01*
X149803937Y-69659774D01*
X149917205Y-69490256D01*
X149995226Y-69301898D01*
X150035000Y-69101939D01*
X150035000Y-68898061D01*
X149995226Y-68698102D01*
X149917205Y-68509744D01*
X149885000Y-68461546D01*
X149885000Y-61543469D01*
X149889281Y-61500000D01*
X149885000Y-61456531D01*
X149885000Y-61456523D01*
X149872195Y-61326510D01*
X149821589Y-61159687D01*
X149740239Y-61007491D01*
X149801898Y-60995226D01*
X149990256Y-60917205D01*
X150159774Y-60803937D01*
X150303937Y-60659774D01*
X150417205Y-60490256D01*
X150495226Y-60301898D01*
X150535000Y-60101939D01*
X150535000Y-59898061D01*
X150495226Y-59698102D01*
X150417205Y-59509744D01*
X150410694Y-59500000D01*
X150417205Y-59490256D01*
X150495226Y-59301898D01*
X150535000Y-59101939D01*
X150535000Y-58898061D01*
X150495226Y-58698102D01*
X150417205Y-58509744D01*
X150410694Y-58500000D01*
X150417205Y-58490256D01*
X150495226Y-58301898D01*
X150535000Y-58101939D01*
X150535000Y-57898061D01*
X150495226Y-57698102D01*
X150417205Y-57509744D01*
X150303937Y-57340226D01*
X150159774Y-57196063D01*
X149990256Y-57082795D01*
X149801898Y-57004774D01*
X149601939Y-56965000D01*
X149398061Y-56965000D01*
X149198102Y-57004774D01*
X149009744Y-57082795D01*
X148961546Y-57115000D01*
X140627000Y-57115000D01*
X140627000Y-54398061D01*
X141965000Y-54398061D01*
X141965000Y-54601939D01*
X142004774Y-54801898D01*
X142082795Y-54990256D01*
X142196063Y-55159774D01*
X142340226Y-55303937D01*
X142509744Y-55417205D01*
X142698102Y-55495226D01*
X142898061Y-55535000D01*
X143101939Y-55535000D01*
X143301898Y-55495226D01*
X143490256Y-55417205D01*
X143659774Y-55303937D01*
X143803937Y-55159774D01*
X143917205Y-54990256D01*
X143995226Y-54801898D01*
X144035000Y-54601939D01*
X144035000Y-54398061D01*
X143995226Y-54198102D01*
X143917205Y-54009744D01*
X143803937Y-53840226D01*
X143659774Y-53696063D01*
X143490256Y-53582795D01*
X143301898Y-53504774D01*
X143101939Y-53465000D01*
X142898061Y-53465000D01*
X142698102Y-53504774D01*
X142509744Y-53582795D01*
X142340226Y-53696063D01*
X142196063Y-53840226D01*
X142082795Y-54009744D01*
X142004774Y-54198102D01*
X141965000Y-54398061D01*
X140627000Y-54398061D01*
X140627000Y-39632352D01*
X141811957Y-39632352D01*
X142500000Y-40320395D01*
X143188043Y-39632352D01*
X143137694Y-39406223D01*
X142912056Y-39302832D01*
X142670582Y-39245447D01*
X142422553Y-39236274D01*
X142177501Y-39275665D01*
X141944842Y-39362107D01*
X141862306Y-39406223D01*
X141811957Y-39632352D01*
X140627000Y-39632352D01*
X140627000Y-39160000D01*
X150985485Y-39160000D01*
X150883708Y-39196397D01*
%TA.AperFunction,Conductor*%
D22*
G36*
X150883708Y-39196397D02*
G01*
X150758486Y-39263329D01*
X150686903Y-39507298D01*
X151500000Y-40320395D01*
X152313097Y-39507298D01*
X152241514Y-39263329D01*
X152023139Y-39160000D01*
X159985485Y-39160000D01*
X159883708Y-39196397D01*
X159758486Y-39263329D01*
X159686903Y-39507298D01*
X160500000Y-40320395D01*
X161313097Y-39507298D01*
X161241514Y-39263329D01*
X161023139Y-39160000D01*
X165340001Y-39160000D01*
X165340001Y-63459894D01*
X165136633Y-63256526D01*
X164893412Y-63094011D01*
X164623159Y-62982069D01*
X164336261Y-62925001D01*
X164043741Y-62925001D01*
X163756843Y-62982069D01*
X163486590Y-63094011D01*
X163243369Y-63256526D01*
X163036526Y-63463369D01*
X162874011Y-63706590D01*
X162762069Y-63976843D01*
X162705001Y-64263741D01*
X162705001Y-64556261D01*
X162762069Y-64843159D01*
X162874011Y-65113412D01*
X163036526Y-65356633D01*
X163243369Y-65563476D01*
X163417761Y-65680001D01*
X163243369Y-65796526D01*
X163224894Y-65815001D01*
X154849058Y-65815001D01*
X154635000Y-65600944D01*
X154635000Y-51055752D01*
X154640491Y-51000000D01*
X154632337Y-50917205D01*
X154618577Y-50777501D01*
X154553676Y-50563553D01*
X154448284Y-50366377D01*
X154306449Y-50193551D01*
X154263141Y-50158009D01*
X152544540Y-48439409D01*
X152773740Y-48485000D01*
X153066260Y-48485000D01*
X153353158Y-48427932D01*
X153623411Y-48315990D01*
X153866632Y-48153475D01*
X153991710Y-48028397D01*
X154611208Y-48028397D01*
X154688843Y-48277472D01*
X154952883Y-48403371D01*
X155236411Y-48475339D01*
X155528531Y-48490611D01*
X155818019Y-48448599D01*
X156093747Y-48350919D01*
X156231157Y-48277472D01*
X156308792Y-48028397D01*
X155460000Y-47179605D01*
X154611208Y-48028397D01*
X153991710Y-48028397D01*
X154073475Y-47946632D01*
X154189311Y-47773271D01*
X154431603Y-47848792D01*
X155280395Y-47000000D01*
X155639605Y-47000000D01*
X156488397Y-47848792D01*
X156511928Y-47841458D01*
X156511928Y-47850000D01*
X156524188Y-47974482D01*
X156560498Y-48094180D01*
X156619463Y-48204494D01*
X156698815Y-48301185D01*
X156795506Y-48380537D01*
X156905820Y-48439502D01*
X157025518Y-48475812D01*
X157150000Y-48488072D01*
X158850000Y-48488072D01*
X158974482Y-48475812D01*
X159094180Y-48439502D01*
X159204494Y-48380537D01*
X159301185Y-48301185D01*
X159380537Y-48204494D01*
X159439502Y-48094180D01*
X159475812Y-47974482D01*
X159488072Y-47850000D01*
X159488072Y-46150000D01*
X159475812Y-46025518D01*
X159439502Y-45905820D01*
X159380537Y-45795506D01*
X159301185Y-45698815D01*
X159204494Y-45619463D01*
X159094180Y-45560498D01*
X158974482Y-45524188D01*
X158850000Y-45511928D01*
X157150000Y-45511928D01*
X157025518Y-45524188D01*
X156905820Y-45560498D01*
X156795506Y-45619463D01*
X156698815Y-45698815D01*
X156619463Y-45795506D01*
X156560498Y-45905820D01*
X156524188Y-46025518D01*
X156511928Y-46150000D01*
X156511928Y-46158542D01*
X156488397Y-46151208D01*
X155639605Y-47000000D01*
X155280395Y-47000000D01*
X154431603Y-46151208D01*
X154189311Y-46226729D01*
X154073475Y-46053368D01*
X153991710Y-45971603D01*
X154611208Y-45971603D01*
X155460000Y-46820395D01*
X156308792Y-45971603D01*
X156231157Y-45722528D01*
X155967117Y-45596629D01*
X155683589Y-45524661D01*
X155391469Y-45509389D01*
X155101981Y-45551401D01*
X154826253Y-45649081D01*
X154688843Y-45722528D01*
X154611208Y-45971603D01*
X153991710Y-45971603D01*
X153866632Y-45846525D01*
X153623411Y-45684010D01*
X153353158Y-45572068D01*
X153066260Y-45515000D01*
X152773740Y-45515000D01*
X152486842Y-45572068D01*
X152216589Y-45684010D01*
X151973368Y-45846525D01*
X151766525Y-46053368D01*
X151650000Y-46227760D01*
X151533475Y-46053368D01*
X151326632Y-45846525D01*
X151083411Y-45684010D01*
X150813158Y-45572068D01*
X150526260Y-45515000D01*
X150233740Y-45515000D01*
X149946842Y-45572068D01*
X149676589Y-45684010D01*
X149433368Y-45846525D01*
X149226525Y-46053368D01*
X149064010Y-46296589D01*
X148952068Y-46566842D01*
X148905597Y-46800466D01*
X148635000Y-46529869D01*
X148635000Y-44555752D01*
X148640491Y-44500000D01*
X148618577Y-44277501D01*
X148553676Y-44063553D01*
X148448284Y-43866377D01*
X148341989Y-43736856D01*
X148341987Y-43736854D01*
X148306449Y-43693551D01*
X148263145Y-43658013D01*
X147341995Y-42736864D01*
X147306449Y-42693551D01*
X147133623Y-42551716D01*
X146936447Y-42446324D01*
X146722499Y-42381423D01*
X146555752Y-42365000D01*
X146555751Y-42365000D01*
X146500000Y-42359509D01*
X146444249Y-42365000D01*
X143708351Y-42365000D01*
X143747562Y-42200000D01*
X150061928Y-42200000D01*
X150061928Y-43800000D01*
X150074188Y-43924482D01*
X150110498Y-44044180D01*
X150169463Y-44154494D01*
X150248815Y-44251185D01*
X150345506Y-44330537D01*
X150455820Y-44389502D01*
X150575518Y-44425812D01*
X150700000Y-44438072D01*
X152300000Y-44438072D01*
X152424482Y-44425812D01*
X152544180Y-44389502D01*
X152654494Y-44330537D01*
X152751185Y-44251185D01*
X152830537Y-44154494D01*
X152889502Y-44044180D01*
X152925812Y-43924482D01*
X152938072Y-43800000D01*
X152938072Y-42200000D01*
X159061928Y-42200000D01*
X159061928Y-43800000D01*
X159074188Y-43924482D01*
X159110498Y-44044180D01*
X159169463Y-44154494D01*
X159248815Y-44251185D01*
X159345506Y-44330537D01*
X159455820Y-44389502D01*
X159575518Y-44425812D01*
X159700000Y-44438072D01*
X161300000Y-44438072D01*
X161424482Y-44425812D01*
X161544180Y-44389502D01*
X161654494Y-44330537D01*
X161751185Y-44251185D01*
X161830537Y-44154494D01*
X161889502Y-44044180D01*
X161925812Y-43924482D01*
X161938072Y-43800000D01*
X161938072Y-42200000D01*
X161925812Y-42075518D01*
X161889502Y-41955820D01*
X161830537Y-41845506D01*
X161751185Y-41748815D01*
X161654494Y-41669463D01*
X161544180Y-41610498D01*
X161424482Y-41574188D01*
X161300000Y-41561928D01*
X161292785Y-41561928D01*
X161313097Y-41492702D01*
X160500000Y-40679605D01*
X159686903Y-41492702D01*
X159707215Y-41561928D01*
X159700000Y-41561928D01*
X159575518Y-41574188D01*
X159455820Y-41610498D01*
X159345506Y-41669463D01*
X159248815Y-41748815D01*
X159169463Y-41845506D01*
X159110498Y-41955820D01*
X159074188Y-42075518D01*
X159061928Y-42200000D01*
X152938072Y-42200000D01*
X152925812Y-42075518D01*
X152889502Y-41955820D01*
X152830537Y-41845506D01*
X152751185Y-41748815D01*
X152654494Y-41669463D01*
X152544180Y-41610498D01*
X152424482Y-41574188D01*
X152300000Y-41561928D01*
X152292785Y-41561928D01*
X152313097Y-41492702D01*
X151500000Y-40679605D01*
X150686903Y-41492702D01*
X150707215Y-41561928D01*
X150700000Y-41561928D01*
X150575518Y-41574188D01*
X150455820Y-41610498D01*
X150345506Y-41669463D01*
X150248815Y-41748815D01*
X150169463Y-41845506D01*
X150110498Y-41955820D01*
X150074188Y-42075518D01*
X150061928Y-42200000D01*
X143747562Y-42200000D01*
X143754553Y-42170582D01*
X143763726Y-41922553D01*
X143724335Y-41677501D01*
X143637893Y-41444842D01*
X143593777Y-41362306D01*
X143457663Y-41331999D01*
X143484635Y-41305027D01*
X143429608Y-41250000D01*
X143484635Y-41194973D01*
X143457663Y-41168001D01*
X143593777Y-41137694D01*
X143697168Y-40912056D01*
X143754553Y-40670582D01*
X143758253Y-40570512D01*
X150059783Y-40570512D01*
X150101213Y-40850130D01*
X150196397Y-41116292D01*
X150263329Y-41241514D01*
X150507298Y-41313097D01*
X151320395Y-40500000D01*
X151679605Y-40500000D01*
X152492702Y-41313097D01*
X152736671Y-41241514D01*
X152857571Y-40986004D01*
X152926300Y-40711816D01*
X152933265Y-40570512D01*
X159059783Y-40570512D01*
X159101213Y-40850130D01*
X159196397Y-41116292D01*
X159263329Y-41241514D01*
X159507298Y-41313097D01*
X160320395Y-40500000D01*
X160679605Y-40500000D01*
X161492702Y-41313097D01*
X161736671Y-41241514D01*
X161857571Y-40986004D01*
X161926300Y-40711816D01*
X161940217Y-40429488D01*
X161898787Y-40149870D01*
X161803603Y-39883708D01*
X161736671Y-39758486D01*
X161492702Y-39686903D01*
X160679605Y-40500000D01*
X160320395Y-40500000D01*
X159507298Y-39686903D01*
X159263329Y-39758486D01*
X159142429Y-40013996D01*
X159073700Y-40288184D01*
X159059783Y-40570512D01*
X152933265Y-40570512D01*
X152940217Y-40429488D01*
X152898787Y-40149870D01*
X152803603Y-39883708D01*
X152736671Y-39758486D01*
X152492702Y-39686903D01*
X151679605Y-40500000D01*
X151320395Y-40500000D01*
X150507298Y-39686903D01*
X150263329Y-39758486D01*
X150142429Y-40013996D01*
X150073700Y-40288184D01*
X150059783Y-40570512D01*
X143758253Y-40570512D01*
X143763726Y-40422553D01*
X143724335Y-40177501D01*
X143637893Y-39944842D01*
X143593777Y-39862306D01*
X143367648Y-39811957D01*
X142679605Y-40500000D01*
X142693748Y-40514143D01*
X142514143Y-40693748D01*
X142500000Y-40679605D01*
X142485858Y-40693748D01*
X142306253Y-40514143D01*
X142320395Y-40500000D01*
X141632352Y-39811957D01*
X141406223Y-39862306D01*
X141302832Y-40087944D01*
X141245447Y-40329418D01*
X141236274Y-40577447D01*
X141275665Y-40822499D01*
X141362107Y-41055158D01*
X141406223Y-41137694D01*
X141542337Y-41168001D01*
X141515365Y-41194973D01*
X141570392Y-41250000D01*
X141515365Y-41305027D01*
X141542337Y-41331999D01*
X141406223Y-41362306D01*
X141302832Y-41587944D01*
X141245447Y-41829418D01*
X141236274Y-42077447D01*
X141275665Y-42322499D01*
X141362107Y-42555158D01*
X141406223Y-42637694D01*
X141548678Y-42669413D01*
X141521294Y-42696797D01*
X141383402Y-42903166D01*
X141288421Y-43132471D01*
X141240000Y-43375901D01*
X141240000Y-43624099D01*
X141288421Y-43867529D01*
X141383402Y-44096834D01*
X141485745Y-44250000D01*
X141383402Y-44403166D01*
X141288421Y-44632471D01*
X141240000Y-44875901D01*
X141240000Y-45124099D01*
X141288421Y-45367529D01*
X141383402Y-45596834D01*
X141485745Y-45750000D01*
X141383402Y-45903166D01*
X141288421Y-46132471D01*
X141240000Y-46375901D01*
X141240000Y-46624099D01*
X141288421Y-46867529D01*
X141383402Y-47096834D01*
X141521294Y-47303203D01*
X141696797Y-47478706D01*
X141903166Y-47616598D01*
X142132471Y-47711579D01*
X142375901Y-47760000D01*
X142624099Y-47760000D01*
X142867529Y-47711579D01*
X143096834Y-47616598D01*
X143303203Y-47478706D01*
X143478706Y-47303203D01*
X143616598Y-47096834D01*
X143711579Y-46867529D01*
X143760000Y-46624099D01*
X143760000Y-46375901D01*
X143712082Y-46135000D01*
X144865001Y-46135000D01*
X144865000Y-47444248D01*
X144859509Y-47500000D01*
X144865000Y-47555751D01*
X144881423Y-47722498D01*
X144946324Y-47936446D01*
X145051716Y-48133623D01*
X145193551Y-48306449D01*
X145236865Y-48341996D01*
X147658009Y-50763141D01*
X147693551Y-50806449D01*
X147805809Y-50898577D01*
X147866377Y-50948284D01*
X148063553Y-51053676D01*
X148277501Y-51118577D01*
X148500000Y-51140491D01*
X148555751Y-51135000D01*
X150029869Y-51135000D01*
X150865001Y-51970133D01*
X150865000Y-67055751D01*
X150881423Y-67222498D01*
X150946324Y-67436446D01*
X151051716Y-67633623D01*
X151193551Y-67806449D01*
X151366377Y-67948284D01*
X151563553Y-68053676D01*
X151645315Y-68078478D01*
X144326848Y-75396948D01*
X144283540Y-75432490D01*
X144141705Y-75605316D01*
X144100680Y-75682069D01*
X144036312Y-75802493D01*
X143971411Y-76016441D01*
X143949497Y-76238939D01*
X143954989Y-76294700D01*
X143954988Y-82054236D01*
X143949497Y-82109988D01*
X143954988Y-82165739D01*
X143971411Y-82332486D01*
X144036312Y-82546434D01*
X144141704Y-82743611D01*
X144283539Y-82916437D01*
X144326853Y-82951984D01*
X148768235Y-87393367D01*
X148735901Y-87403175D01*
X148473080Y-87528359D01*
X148239731Y-87702412D01*
X148044822Y-87918645D01*
X147975195Y-88035534D01*
X147853475Y-87853368D01*
X147646632Y-87646525D01*
X147403411Y-87484010D01*
X147133158Y-87372068D01*
X146846260Y-87315000D01*
X146553740Y-87315000D01*
X146266842Y-87372068D01*
X145996589Y-87484010D01*
X145753368Y-87646525D01*
X145546525Y-87853368D01*
X145384010Y-88096589D01*
X145272068Y-88366842D01*
X145215000Y-88653740D01*
X145215000Y-88946260D01*
X145272068Y-89233158D01*
X145384010Y-89503411D01*
X145546525Y-89746632D01*
X145753368Y-89953475D01*
X145996589Y-90115990D01*
X146266842Y-90227932D01*
X146553740Y-90285000D01*
X146846260Y-90285000D01*
X147133158Y-90227932D01*
X147403411Y-90115990D01*
X147646632Y-89953475D01*
X147853475Y-89746632D01*
X147975195Y-89564466D01*
X148044822Y-89681355D01*
X148239731Y-89897588D01*
X148473080Y-90071641D01*
X148735901Y-90196825D01*
X148883110Y-90241476D01*
X149113000Y-90120155D01*
X149113000Y-88927000D01*
X149093000Y-88927000D01*
X149093000Y-88673000D01*
X149113000Y-88673000D01*
X149113000Y-88653000D01*
X149367000Y-88653000D01*
X149367000Y-88673000D01*
X149387000Y-88673000D01*
X149387000Y-88927000D01*
X149367000Y-88927000D01*
X149367000Y-90120155D01*
X149596890Y-90241476D01*
X149744099Y-90196825D01*
X150006920Y-90071641D01*
X150240269Y-89897588D01*
X150435178Y-89681355D01*
X150504805Y-89564466D01*
X150626525Y-89746632D01*
X150833368Y-89953475D01*
X151076589Y-90115990D01*
X151346842Y-90227932D01*
X151633740Y-90285000D01*
X151926260Y-90285000D01*
X152213158Y-90227932D01*
X152483411Y-90115990D01*
X152726632Y-89953475D01*
X152933475Y-89746632D01*
X153050000Y-89572240D01*
X153166525Y-89746632D01*
X153373368Y-89953475D01*
X153616589Y-90115990D01*
X153886842Y-90227932D01*
X154173740Y-90285000D01*
X154466260Y-90285000D01*
X154753158Y-90227932D01*
X155023411Y-90115990D01*
X155266632Y-89953475D01*
X155473475Y-89746632D01*
X155590000Y-89572240D01*
X155706525Y-89746632D01*
X155913368Y-89953475D01*
X156156589Y-90115990D01*
X156426842Y-90227932D01*
X156713740Y-90285000D01*
X157006260Y-90285000D01*
X157293158Y-90227932D01*
X157563411Y-90115990D01*
X157806632Y-89953475D01*
X157938487Y-89821620D01*
X157960498Y-89894180D01*
X158019463Y-90004494D01*
X158098815Y-90101185D01*
X158195506Y-90180537D01*
X158305820Y-90239502D01*
X158425518Y-90275812D01*
X158550000Y-90288072D01*
X160250000Y-90288072D01*
X160374482Y-90275812D01*
X160494180Y-90239502D01*
X160604494Y-90180537D01*
X160701185Y-90101185D01*
X160780537Y-90004494D01*
X160839502Y-89894180D01*
X160875812Y-89774482D01*
X160888072Y-89650000D01*
X160888072Y-87950000D01*
X160875812Y-87825518D01*
X160839502Y-87705820D01*
X160780537Y-87595506D01*
X160701185Y-87498815D01*
X160604494Y-87419463D01*
X160494180Y-87360498D01*
X160374482Y-87324188D01*
X160250000Y-87311928D01*
X158550000Y-87311928D01*
X158425518Y-87324188D01*
X158305820Y-87360498D01*
X158195506Y-87419463D01*
X158098815Y-87498815D01*
X158019463Y-87595506D01*
X157960498Y-87705820D01*
X157938487Y-87778380D01*
X157806632Y-87646525D01*
X157563411Y-87484010D01*
X157293158Y-87372068D01*
X157006260Y-87315000D01*
X156713740Y-87315000D01*
X156426842Y-87372068D01*
X156156589Y-87484010D01*
X155913368Y-87646525D01*
X155706525Y-87853368D01*
X155590000Y-88027760D01*
X155473475Y-87853368D01*
X155266632Y-87646525D01*
X155023411Y-87484010D01*
X154753158Y-87372068D01*
X154466260Y-87315000D01*
X154440132Y-87315000D01*
X147424999Y-80299868D01*
X147424999Y-79718532D01*
X162699390Y-79718532D01*
X162741402Y-80008020D01*
X162839082Y-80283748D01*
X162912529Y-80421158D01*
X163161604Y-80498793D01*
X164010396Y-79650001D01*
X163161604Y-78801209D01*
X162912529Y-78878844D01*
X162786630Y-79142884D01*
X162714662Y-79426412D01*
X162699390Y-79718532D01*
X147424999Y-79718532D01*
X147424999Y-78911544D01*
X147693740Y-78965000D01*
X147986260Y-78965000D01*
X148273158Y-78907932D01*
X148543411Y-78795990D01*
X148786632Y-78633475D01*
X148993475Y-78426632D01*
X149110000Y-78252240D01*
X149226525Y-78426632D01*
X149433368Y-78633475D01*
X149676589Y-78795990D01*
X149946842Y-78907932D01*
X150233740Y-78965000D01*
X150526260Y-78965000D01*
X150813158Y-78907932D01*
X151083411Y-78795990D01*
X151326632Y-78633475D01*
X151533475Y-78426632D01*
X151650000Y-78252240D01*
X151766525Y-78426632D01*
X151973368Y-78633475D01*
X152216589Y-78795990D01*
X152486842Y-78907932D01*
X152773740Y-78965000D01*
X153066260Y-78965000D01*
X153353158Y-78907932D01*
X153623411Y-78795990D01*
X153866632Y-78633475D01*
X154073475Y-78426632D01*
X154190000Y-78252240D01*
X154306525Y-78426632D01*
X154513368Y-78633475D01*
X154756589Y-78795990D01*
X155026842Y-78907932D01*
X155313740Y-78965000D01*
X155606260Y-78965000D01*
X155893158Y-78907932D01*
X156163411Y-78795990D01*
X156406632Y-78633475D01*
X156613475Y-78426632D01*
X156730000Y-78252240D01*
X156846525Y-78426632D01*
X157053368Y-78633475D01*
X157296589Y-78795990D01*
X157566842Y-78907932D01*
X157853740Y-78965000D01*
X158146260Y-78965000D01*
X158433158Y-78907932D01*
X158703411Y-78795990D01*
X158946632Y-78633475D01*
X159153475Y-78426632D01*
X159315990Y-78183411D01*
X159427932Y-77913158D01*
X159485000Y-77626260D01*
X159485000Y-77333740D01*
X159427932Y-77046842D01*
X159315990Y-76776589D01*
X159153475Y-76533368D01*
X158946632Y-76326525D01*
X158703411Y-76164010D01*
X158475518Y-76069614D01*
X158840131Y-75705001D01*
X163224894Y-75705001D01*
X163243369Y-75723476D01*
X163417761Y-75840001D01*
X163243369Y-75956526D01*
X163036526Y-76163369D01*
X162874011Y-76406590D01*
X162762069Y-76676843D01*
X162705001Y-76963741D01*
X162705001Y-77256261D01*
X162762069Y-77543159D01*
X162874011Y-77813412D01*
X163036526Y-78056633D01*
X163243369Y-78263476D01*
X163416730Y-78379312D01*
X163341209Y-78621604D01*
X164190001Y-79470396D01*
X165038793Y-78621604D01*
X164963272Y-78379312D01*
X165136633Y-78263476D01*
X165340000Y-78060109D01*
X165340000Y-78839112D01*
X165218398Y-78801209D01*
X164369606Y-79650001D01*
X165218398Y-80498793D01*
X165340000Y-80460890D01*
X165340000Y-81239893D01*
X165136633Y-81036526D01*
X164963272Y-80920690D01*
X165038793Y-80678398D01*
X164190001Y-79829606D01*
X163341209Y-80678398D01*
X163416730Y-80920690D01*
X163243369Y-81036526D01*
X163036526Y-81243369D01*
X162874011Y-81486590D01*
X162762069Y-81756843D01*
X162705001Y-82043741D01*
X162705001Y-82336261D01*
X162762069Y-82623159D01*
X162874011Y-82893412D01*
X163036526Y-83136633D01*
X163243369Y-83343476D01*
X163417761Y-83460001D01*
X163243369Y-83576526D01*
X163036526Y-83783369D01*
X162874011Y-84026590D01*
X162762069Y-84296843D01*
X162705001Y-84583741D01*
X162705001Y-84876261D01*
X162762069Y-85163159D01*
X162874011Y-85433412D01*
X163036526Y-85676633D01*
X163243369Y-85883476D01*
X163417761Y-86000001D01*
X163243369Y-86116526D01*
X163036526Y-86323369D01*
X162874011Y-86566590D01*
X162762069Y-86836843D01*
X162705001Y-87123741D01*
X162705001Y-87416261D01*
X162762069Y-87703159D01*
X162874011Y-87973412D01*
X163036526Y-88216633D01*
X163243369Y-88423476D01*
X163417761Y-88540001D01*
X163243369Y-88656526D01*
X163036526Y-88863369D01*
X162874011Y-89106590D01*
X162762069Y-89376843D01*
X162705001Y-89663741D01*
X162705001Y-89956261D01*
X162762069Y-90243159D01*
X162874011Y-90513412D01*
X163036526Y-90756633D01*
X163243369Y-90963476D01*
X163417761Y-91080001D01*
X163243369Y-91196526D01*
X163036526Y-91403369D01*
X162874011Y-91646590D01*
X162762069Y-91916843D01*
X162705001Y-92203741D01*
X162705001Y-92496261D01*
X162762069Y-92783159D01*
X162874011Y-93053412D01*
X163036526Y-93296633D01*
X163243369Y-93503476D01*
X163417761Y-93620001D01*
X163243369Y-93736526D01*
X163036526Y-93943369D01*
X162874011Y-94186590D01*
X162762069Y-94456843D01*
X162705001Y-94743741D01*
X162705001Y-95036261D01*
X162762069Y-95323159D01*
X162874011Y-95593412D01*
X163036526Y-95836633D01*
X163243369Y-96043476D01*
X163416730Y-96159312D01*
X163341209Y-96401604D01*
X164190001Y-97250396D01*
X165038793Y-96401604D01*
X164963272Y-96159312D01*
X165136633Y-96043476D01*
X165340000Y-95840109D01*
X165340000Y-96619112D01*
X165218398Y-96581209D01*
X164369606Y-97430001D01*
X165218398Y-98278793D01*
X165340000Y-98240890D01*
X165340000Y-99019893D01*
X165136633Y-98816526D01*
X164963272Y-98700690D01*
X165038793Y-98458398D01*
X164190001Y-97609606D01*
X163341209Y-98458398D01*
X163416730Y-98700690D01*
X163243369Y-98816526D01*
X163036526Y-99023369D01*
X162874011Y-99266590D01*
X162762069Y-99536843D01*
X162705001Y-99823741D01*
X162705001Y-100116261D01*
X162762069Y-100403159D01*
X162874011Y-100673412D01*
X163036526Y-100916633D01*
X163243369Y-101123476D01*
X163486590Y-101285991D01*
X163756843Y-101397933D01*
X164043741Y-101455001D01*
X164336261Y-101455001D01*
X164623159Y-101397933D01*
X164893412Y-101285991D01*
X165136633Y-101123476D01*
X165340000Y-100920109D01*
X165340000Y-105840000D01*
X140160000Y-105840000D01*
X140160000Y-102858665D01*
X149065000Y-102858665D01*
X149065000Y-103141335D01*
X149120147Y-103418574D01*
X149228320Y-103679727D01*
X149385363Y-103914759D01*
X149585241Y-104114637D01*
X149820273Y-104271680D01*
X150081426Y-104379853D01*
X150358665Y-104435000D01*
X150641335Y-104435000D01*
X150918574Y-104379853D01*
X151179727Y-104271680D01*
X151414759Y-104114637D01*
X151614637Y-103914759D01*
X151771680Y-103679727D01*
X151879853Y-103418574D01*
X151935000Y-103141335D01*
X151935000Y-102858665D01*
X154565000Y-102858665D01*
X154565000Y-103141335D01*
X154620147Y-103418574D01*
X154728320Y-103679727D01*
X154885363Y-103914759D01*
X155085241Y-104114637D01*
X155320273Y-104271680D01*
X155581426Y-104379853D01*
X155858665Y-104435000D01*
X156141335Y-104435000D01*
X156418574Y-104379853D01*
X156679727Y-104271680D01*
X156914759Y-104114637D01*
X157114637Y-103914759D01*
X157271680Y-103679727D01*
X157379853Y-103418574D01*
X157435000Y-103141335D01*
X157435000Y-102858665D01*
X157379853Y-102581426D01*
X157271680Y-102320273D01*
X157114637Y-102085241D01*
X156914759Y-101885363D01*
X156679727Y-101728320D01*
X156418574Y-101620147D01*
X156141335Y-101565000D01*
X155858665Y-101565000D01*
X155581426Y-101620147D01*
X155320273Y-101728320D01*
X155085241Y-101885363D01*
X154885363Y-102085241D01*
X154728320Y-102320273D01*
X154620147Y-102581426D01*
X154565000Y-102858665D01*
X151935000Y-102858665D01*
X151879853Y-102581426D01*
X151771680Y-102320273D01*
X151614637Y-102085241D01*
X151414759Y-101885363D01*
X151179727Y-101728320D01*
X150918574Y-101620147D01*
X150641335Y-101565000D01*
X150358665Y-101565000D01*
X150081426Y-101620147D01*
X149820273Y-101728320D01*
X149585241Y-101885363D01*
X149385363Y-102085241D01*
X149228320Y-102320273D01*
X149120147Y-102581426D01*
X149065000Y-102858665D01*
X140160000Y-102858665D01*
X140160000Y-100891900D01*
X140176526Y-100916633D01*
X140383369Y-101123476D01*
X140626590Y-101285991D01*
X140896843Y-101397933D01*
X141183741Y-101455001D01*
X141476261Y-101455001D01*
X141763159Y-101397933D01*
X142033412Y-101285991D01*
X142276633Y-101123476D01*
X142483476Y-100916633D01*
X142645991Y-100673412D01*
X142757933Y-100403159D01*
X142815001Y-100116261D01*
X142815001Y-99823741D01*
X142757933Y-99536843D01*
X142645991Y-99266590D01*
X142483476Y-99023369D01*
X142276633Y-98816526D01*
X142103272Y-98700690D01*
X142178793Y-98458398D01*
X141330001Y-97609606D01*
X140481209Y-98458398D01*
X140556730Y-98700690D01*
X140383369Y-98816526D01*
X140176526Y-99023369D01*
X140160000Y-99048102D01*
X140160000Y-98234656D01*
X140301604Y-98278793D01*
X141150396Y-97430001D01*
X141509606Y-97430001D01*
X142358398Y-98278793D01*
X142607473Y-98201158D01*
X142733372Y-97937118D01*
X142805340Y-97653590D01*
X142813446Y-97498532D01*
X162699390Y-97498532D01*
X162741402Y-97788020D01*
X162839082Y-98063748D01*
X162912529Y-98201158D01*
X163161604Y-98278793D01*
X164010396Y-97430001D01*
X163161604Y-96581209D01*
X162912529Y-96658844D01*
X162786630Y-96922884D01*
X162714662Y-97206412D01*
X162699390Y-97498532D01*
X142813446Y-97498532D01*
X142820612Y-97361470D01*
X142778600Y-97071982D01*
X142680920Y-96796254D01*
X142607473Y-96658844D01*
X142358398Y-96581209D01*
X141509606Y-97430001D01*
X141150396Y-97430001D01*
X140301604Y-96581209D01*
X140160000Y-96625346D01*
X140160000Y-95811900D01*
X140176526Y-95836633D01*
X140383369Y-96043476D01*
X140556730Y-96159312D01*
X140481209Y-96401604D01*
X141330001Y-97250396D01*
X142178793Y-96401604D01*
X142103272Y-96159312D01*
X142276633Y-96043476D01*
X142483476Y-95836633D01*
X142645991Y-95593412D01*
X142757933Y-95323159D01*
X142815001Y-95036261D01*
X142815001Y-94743741D01*
X142757933Y-94456843D01*
X142645991Y-94186590D01*
X142483476Y-93943369D01*
X142276633Y-93736526D01*
X142102241Y-93620001D01*
X142276633Y-93503476D01*
X142483476Y-93296633D01*
X142645991Y-93053412D01*
X142757933Y-92783159D01*
X142774740Y-92698665D01*
X149065000Y-92698665D01*
X149065000Y-92981335D01*
X149120147Y-93258574D01*
X149228320Y-93519727D01*
X149385363Y-93754759D01*
X149585241Y-93954637D01*
X149820273Y-94111680D01*
X150081426Y-94219853D01*
X150358665Y-94275000D01*
X150641335Y-94275000D01*
X150918574Y-94219853D01*
X151179727Y-94111680D01*
X151414759Y-93954637D01*
X151614637Y-93754759D01*
X151771680Y-93519727D01*
X151879853Y-93258574D01*
X151935000Y-92981335D01*
X151935000Y-92698665D01*
X154565000Y-92698665D01*
X154565000Y-92981335D01*
X154620147Y-93258574D01*
X154728320Y-93519727D01*
X154885363Y-93754759D01*
X155085241Y-93954637D01*
X155320273Y-94111680D01*
X155581426Y-94219853D01*
X155858665Y-94275000D01*
X156141335Y-94275000D01*
X156418574Y-94219853D01*
X156679727Y-94111680D01*
X156914759Y-93954637D01*
X157114637Y-93754759D01*
X157271680Y-93519727D01*
X157379853Y-93258574D01*
X157435000Y-92981335D01*
X157435000Y-92698665D01*
X157379853Y-92421426D01*
X157271680Y-92160273D01*
X157114637Y-91925241D01*
X156914759Y-91725363D01*
X156679727Y-91568320D01*
X156418574Y-91460147D01*
X156141335Y-91405000D01*
X155858665Y-91405000D01*
X155581426Y-91460147D01*
X155320273Y-91568320D01*
X155085241Y-91725363D01*
X154885363Y-91925241D01*
X154728320Y-92160273D01*
X154620147Y-92421426D01*
X154565000Y-92698665D01*
X151935000Y-92698665D01*
X151879853Y-92421426D01*
X151771680Y-92160273D01*
X151614637Y-91925241D01*
X151414759Y-91725363D01*
X151179727Y-91568320D01*
X150918574Y-91460147D01*
X150641335Y-91405000D01*
X150358665Y-91405000D01*
X150081426Y-91460147D01*
X149820273Y-91568320D01*
X149585241Y-91725363D01*
X149385363Y-91925241D01*
X149228320Y-92160273D01*
X149120147Y-92421426D01*
X149065000Y-92698665D01*
X142774740Y-92698665D01*
X142815001Y-92496261D01*
X142815001Y-92203741D01*
X142757933Y-91916843D01*
X142645991Y-91646590D01*
X142483476Y-91403369D01*
X142276633Y-91196526D01*
X142102241Y-91080001D01*
X142276633Y-90963476D01*
X142483476Y-90756633D01*
X142645991Y-90513412D01*
X142757933Y-90243159D01*
X142815001Y-89956261D01*
X142815001Y-89663741D01*
X142757933Y-89376843D01*
X142645991Y-89106590D01*
X142483476Y-88863369D01*
X142276633Y-88656526D01*
X142103272Y-88540690D01*
X142178793Y-88298398D01*
X141330001Y-87449606D01*
X140481209Y-88298398D01*
X140556730Y-88540690D01*
X140383369Y-88656526D01*
X140176526Y-88863369D01*
X140160000Y-88888102D01*
X140160000Y-88074656D01*
X140301604Y-88118793D01*
X141150396Y-87270001D01*
X141509606Y-87270001D01*
X142358398Y-88118793D01*
X142607473Y-88041158D01*
X142733372Y-87777118D01*
X142805340Y-87493590D01*
X142820612Y-87201470D01*
X142778600Y-86911982D01*
X142680920Y-86636254D01*
X142607473Y-86498844D01*
X142358398Y-86421209D01*
X141509606Y-87270001D01*
X141150396Y-87270001D01*
X140301604Y-86421209D01*
X140160000Y-86465346D01*
X140160000Y-85651900D01*
X140176526Y-85676633D01*
X140383369Y-85883476D01*
X140556730Y-85999312D01*
X140481209Y-86241604D01*
X141330001Y-87090396D01*
X142178793Y-86241604D01*
X142103272Y-85999312D01*
X142276633Y-85883476D01*
X142483476Y-85676633D01*
X142645991Y-85433412D01*
X142757933Y-85163159D01*
X142815001Y-84876261D01*
X142815001Y-84583741D01*
X142757933Y-84296843D01*
X142645991Y-84026590D01*
X142483476Y-83783369D01*
X142276633Y-83576526D01*
X142102241Y-83460001D01*
X142276633Y-83343476D01*
X142483476Y-83136633D01*
X142645991Y-82893412D01*
X142757933Y-82623159D01*
X142815001Y-82336261D01*
X142815001Y-82043741D01*
X142757933Y-81756843D01*
X142645991Y-81486590D01*
X142483476Y-81243369D01*
X142276633Y-81036526D01*
X142102241Y-80920001D01*
X142276633Y-80803476D01*
X142483476Y-80596633D01*
X142645991Y-80353412D01*
X142757933Y-80083159D01*
X142815001Y-79796261D01*
X142815001Y-79503741D01*
X142757933Y-79216843D01*
X142645991Y-78946590D01*
X142483476Y-78703369D01*
X142276633Y-78496526D01*
X142102241Y-78380001D01*
X142276633Y-78263476D01*
X142483476Y-78056633D01*
X142645991Y-77813412D01*
X142757933Y-77543159D01*
X142815001Y-77256261D01*
X142815001Y-76963741D01*
X142757933Y-76676843D01*
X142645991Y-76406590D01*
X142483476Y-76163369D01*
X142276633Y-75956526D01*
X142102241Y-75840001D01*
X142276633Y-75723476D01*
X142483476Y-75516633D01*
X142645991Y-75273412D01*
X142757933Y-75003159D01*
X142815001Y-74716261D01*
X142815001Y-74423741D01*
X142757933Y-74136843D01*
X142645991Y-73866590D01*
X142483476Y-73623369D01*
X142276633Y-73416526D01*
X142102241Y-73300001D01*
X142276633Y-73183476D01*
X142483476Y-72976633D01*
X142645991Y-72733412D01*
X142757933Y-72463159D01*
X142815001Y-72176261D01*
X142815001Y-71883741D01*
X142757933Y-71596843D01*
X142645991Y-71326590D01*
X142483476Y-71083369D01*
X142276633Y-70876526D01*
X142102241Y-70760001D01*
X142276633Y-70643476D01*
X142483476Y-70436633D01*
X142645991Y-70193412D01*
X142757933Y-69923159D01*
X142815001Y-69636261D01*
X142815001Y-69343741D01*
X142757933Y-69056843D01*
X142645991Y-68786590D01*
X142483476Y-68543369D01*
X142276633Y-68336526D01*
X142102241Y-68220001D01*
X142276633Y-68103476D01*
X142483476Y-67896633D01*
X142645991Y-67653412D01*
X142757933Y-67383159D01*
X142815001Y-67096261D01*
X142815001Y-66803741D01*
X142757933Y-66516843D01*
X142645991Y-66246590D01*
X142483476Y-66003369D01*
X142351621Y-65871514D01*
X142424181Y-65849503D01*
X142534495Y-65790538D01*
X142631186Y-65711186D01*
X142710538Y-65614495D01*
X142769503Y-65504181D01*
X142805813Y-65384483D01*
X142818073Y-65260001D01*
X142818073Y-63560001D01*
X142805813Y-63435519D01*
X142769503Y-63315821D01*
X142710538Y-63205507D01*
X142631186Y-63108816D01*
X142534495Y-63029464D01*
X142424181Y-62970499D01*
X142304483Y-62934189D01*
X142180001Y-62921929D01*
X140627000Y-62921929D01*
X140627000Y-62885000D01*
X147115001Y-62885000D01*
X147115000Y-68961546D01*
X147082795Y-69009744D01*
X147004774Y-69198102D01*
X146965000Y-69398061D01*
X146965000Y-69601939D01*
X147004774Y-69801898D01*
X147082795Y-69990256D01*
X147196063Y-70159774D01*
X147340226Y-70303937D01*
X147509744Y-70417205D01*
X147698102Y-70495226D01*
X147898061Y-70535000D01*
X148101939Y-70535000D01*
X148301898Y-70495226D01*
X148490256Y-70417205D01*
X148659774Y-70303937D01*
X148803937Y-70159774D01*
X148888570Y-70033112D01*
X148898061Y-70035000D01*
X149101939Y-70035000D01*
X149301898Y-69995226D01*
X149490256Y-69917205D01*
X149659774Y-69803937D01*
X149803937Y-69659774D01*
X149917205Y-69490256D01*
X149995226Y-69301898D01*
X150035000Y-69101939D01*
X150035000Y-68898061D01*
X149995226Y-68698102D01*
X149917205Y-68509744D01*
X149885000Y-68461546D01*
X149885000Y-61543469D01*
X149889281Y-61500000D01*
X149885000Y-61456531D01*
X149885000Y-61456523D01*
X149872195Y-61326510D01*
X149821589Y-61159687D01*
X149740239Y-61007491D01*
X149801898Y-60995226D01*
X149990256Y-60917205D01*
X150159774Y-60803937D01*
X150303937Y-60659774D01*
X150417205Y-60490256D01*
X150495226Y-60301898D01*
X150535000Y-60101939D01*
X150535000Y-59898061D01*
X150495226Y-59698102D01*
X150417205Y-59509744D01*
X150410694Y-59500000D01*
X150417205Y-59490256D01*
X150495226Y-59301898D01*
X150535000Y-59101939D01*
X150535000Y-58898061D01*
X150495226Y-58698102D01*
X150417205Y-58509744D01*
X150410694Y-58500000D01*
X150417205Y-58490256D01*
X150495226Y-58301898D01*
X150535000Y-58101939D01*
X150535000Y-57898061D01*
X150495226Y-57698102D01*
X150417205Y-57509744D01*
X150303937Y-57340226D01*
X150159774Y-57196063D01*
X149990256Y-57082795D01*
X149801898Y-57004774D01*
X149601939Y-56965000D01*
X149398061Y-56965000D01*
X149198102Y-57004774D01*
X149009744Y-57082795D01*
X148961546Y-57115000D01*
X140627000Y-57115000D01*
X140627000Y-54398061D01*
X141965000Y-54398061D01*
X141965000Y-54601939D01*
X142004774Y-54801898D01*
X142082795Y-54990256D01*
X142196063Y-55159774D01*
X142340226Y-55303937D01*
X142509744Y-55417205D01*
X142698102Y-55495226D01*
X142898061Y-55535000D01*
X143101939Y-55535000D01*
X143301898Y-55495226D01*
X143490256Y-55417205D01*
X143659774Y-55303937D01*
X143803937Y-55159774D01*
X143917205Y-54990256D01*
X143995226Y-54801898D01*
X144035000Y-54601939D01*
X144035000Y-54398061D01*
X143995226Y-54198102D01*
X143917205Y-54009744D01*
X143803937Y-53840226D01*
X143659774Y-53696063D01*
X143490256Y-53582795D01*
X143301898Y-53504774D01*
X143101939Y-53465000D01*
X142898061Y-53465000D01*
X142698102Y-53504774D01*
X142509744Y-53582795D01*
X142340226Y-53696063D01*
X142196063Y-53840226D01*
X142082795Y-54009744D01*
X142004774Y-54198102D01*
X141965000Y-54398061D01*
X140627000Y-54398061D01*
X140627000Y-39632352D01*
X141811957Y-39632352D01*
X142500000Y-40320395D01*
X143188043Y-39632352D01*
X143137694Y-39406223D01*
X142912056Y-39302832D01*
X142670582Y-39245447D01*
X142422553Y-39236274D01*
X142177501Y-39275665D01*
X141944842Y-39362107D01*
X141862306Y-39406223D01*
X141811957Y-39632352D01*
X140627000Y-39632352D01*
X140627000Y-39160000D01*
X150985485Y-39160000D01*
X150883708Y-39196397D01*
G37*
%TD.AperFunction*%
D21*
X163243369Y-70643476D02*
X163417761Y-70760001D01*
X163243369Y-70876526D01*
X163224894Y-70895001D01*
X158425751Y-70895001D01*
X158369999Y-70889510D01*
X158147500Y-70911424D01*
X157933552Y-70976325D01*
X157736376Y-71081717D01*
X157606855Y-71188012D01*
X157606853Y-71188014D01*
X157563550Y-71223552D01*
X157528012Y-71266855D01*
X152799869Y-75995000D01*
X152773740Y-75995000D01*
X152486842Y-76052068D01*
X152216589Y-76164010D01*
X151973368Y-76326525D01*
X151766525Y-76533368D01*
X151650000Y-76707760D01*
X151533475Y-76533368D01*
X151326632Y-76326525D01*
X151083411Y-76164010D01*
X150813158Y-76052068D01*
X150526260Y-75995000D01*
X150233740Y-75995000D01*
X149946842Y-76052068D01*
X149676589Y-76164010D01*
X149433368Y-76326525D01*
X149226525Y-76533368D01*
X149110000Y-76707760D01*
X148993475Y-76533368D01*
X148786632Y-76326525D01*
X148543411Y-76164010D01*
X148489465Y-76141665D01*
X154006130Y-70625001D01*
X163224894Y-70625001D01*
X163243369Y-70643476D01*
%TA.AperFunction,Conductor*%
D22*
G36*
X163243369Y-70643476D02*
G01*
X163417761Y-70760001D01*
X163243369Y-70876526D01*
X163224894Y-70895001D01*
X158425751Y-70895001D01*
X158369999Y-70889510D01*
X158147500Y-70911424D01*
X157933552Y-70976325D01*
X157736376Y-71081717D01*
X157606855Y-71188012D01*
X157606853Y-71188014D01*
X157563550Y-71223552D01*
X157528012Y-71266855D01*
X152799869Y-75995000D01*
X152773740Y-75995000D01*
X152486842Y-76052068D01*
X152216589Y-76164010D01*
X151973368Y-76326525D01*
X151766525Y-76533368D01*
X151650000Y-76707760D01*
X151533475Y-76533368D01*
X151326632Y-76326525D01*
X151083411Y-76164010D01*
X150813158Y-76052068D01*
X150526260Y-75995000D01*
X150233740Y-75995000D01*
X149946842Y-76052068D01*
X149676589Y-76164010D01*
X149433368Y-76326525D01*
X149226525Y-76533368D01*
X149110000Y-76707760D01*
X148993475Y-76533368D01*
X148786632Y-76326525D01*
X148543411Y-76164010D01*
X148489465Y-76141665D01*
X154006130Y-70625001D01*
X163224894Y-70625001D01*
X163243369Y-70643476D01*
G37*
%TD.AperFunction*%
D21*
X138373000Y-57115000D02*
X133460804Y-57115000D01*
X133417205Y-57009744D01*
X133303937Y-56840226D01*
X133159774Y-56696063D01*
X132990256Y-56582795D01*
X132801898Y-56504774D01*
X132601939Y-56465000D01*
X132398061Y-56465000D01*
X132198102Y-56504774D01*
X132009744Y-56582795D01*
X131840226Y-56696063D01*
X131696063Y-56840226D01*
X131582795Y-57009744D01*
X131504774Y-57198102D01*
X131465000Y-57398061D01*
X131465000Y-57601939D01*
X131492681Y-57741102D01*
X130506535Y-56754957D01*
X130495226Y-56698102D01*
X130417205Y-56509744D01*
X130303937Y-56340226D01*
X130159774Y-56196063D01*
X129990256Y-56082795D01*
X129801898Y-56004774D01*
X129601939Y-55965000D01*
X129398061Y-55965000D01*
X129198102Y-56004774D01*
X129009744Y-56082795D01*
X128840226Y-56196063D01*
X128696063Y-56340226D01*
X128582795Y-56509744D01*
X128504774Y-56698102D01*
X128465000Y-56898061D01*
X128465000Y-57101939D01*
X128504774Y-57301898D01*
X128582795Y-57490256D01*
X128696063Y-57659774D01*
X128840226Y-57803937D01*
X129009744Y-57917205D01*
X129198102Y-57995226D01*
X129254957Y-58006535D01*
X130363421Y-59115000D01*
X128866579Y-59115000D01*
X127545000Y-57793422D01*
X127545000Y-54398061D01*
X135465000Y-54398061D01*
X135465000Y-54601939D01*
X135504774Y-54801898D01*
X135582795Y-54990256D01*
X135696063Y-55159774D01*
X135840226Y-55303937D01*
X136009744Y-55417205D01*
X136198102Y-55495226D01*
X136398061Y-55535000D01*
X136601939Y-55535000D01*
X136801898Y-55495226D01*
X136990256Y-55417205D01*
X137159774Y-55303937D01*
X137303937Y-55159774D01*
X137417205Y-54990256D01*
X137495226Y-54801898D01*
X137535000Y-54601939D01*
X137535000Y-54398061D01*
X137495226Y-54198102D01*
X137417205Y-54009744D01*
X137303937Y-53840226D01*
X137159774Y-53696063D01*
X136990256Y-53582795D01*
X136801898Y-53504774D01*
X136601939Y-53465000D01*
X136398061Y-53465000D01*
X136198102Y-53504774D01*
X136009744Y-53582795D01*
X135840226Y-53696063D01*
X135696063Y-53840226D01*
X135582795Y-54009744D01*
X135504774Y-54198102D01*
X135465000Y-54398061D01*
X127545000Y-54398061D01*
X127545000Y-52694656D01*
X127606632Y-52653475D01*
X127813475Y-52446632D01*
X127930000Y-52272240D01*
X128046525Y-52446632D01*
X128253368Y-52653475D01*
X128496589Y-52815990D01*
X128766842Y-52927932D01*
X129053740Y-52985000D01*
X129346260Y-52985000D01*
X129633158Y-52927932D01*
X129903411Y-52815990D01*
X130146632Y-52653475D01*
X130353475Y-52446632D01*
X130475195Y-52264466D01*
X130544822Y-52381355D01*
X130739731Y-52597588D01*
X130973080Y-52771641D01*
X131235901Y-52896825D01*
X131383110Y-52941476D01*
X131613000Y-52820155D01*
X131613000Y-51627000D01*
X131593000Y-51627000D01*
X131593000Y-51373000D01*
X131613000Y-51373000D01*
X131613000Y-51353000D01*
X131867000Y-51353000D01*
X131867000Y-51373000D01*
X131887000Y-51373000D01*
X131887000Y-51627000D01*
X131867000Y-51627000D01*
X131867000Y-52820155D01*
X132096890Y-52941476D01*
X132244099Y-52896825D01*
X132506920Y-52771641D01*
X132740269Y-52597588D01*
X132935178Y-52381355D01*
X133004805Y-52264466D01*
X133126525Y-52446632D01*
X133333368Y-52653475D01*
X133576589Y-52815990D01*
X133846842Y-52927932D01*
X134133740Y-52985000D01*
X134426260Y-52985000D01*
X134713158Y-52927932D01*
X134983411Y-52815990D01*
X135226632Y-52653475D01*
X135433475Y-52446632D01*
X135555195Y-52264466D01*
X135624822Y-52381355D01*
X135819731Y-52597588D01*
X136053080Y-52771641D01*
X136315901Y-52896825D01*
X136463110Y-52941476D01*
X136693000Y-52820155D01*
X136693000Y-51627000D01*
X136947000Y-51627000D01*
X136947000Y-52820155D01*
X137176890Y-52941476D01*
X137324099Y-52896825D01*
X137586920Y-52771641D01*
X137820269Y-52597588D01*
X138015178Y-52381355D01*
X138164157Y-52131252D01*
X138261481Y-51856891D01*
X138140814Y-51627000D01*
X136947000Y-51627000D01*
X136693000Y-51627000D01*
X136673000Y-51627000D01*
X136673000Y-51373000D01*
X136693000Y-51373000D01*
X136693000Y-50179845D01*
X136947000Y-50179845D01*
X136947000Y-51373000D01*
X138140814Y-51373000D01*
X138261481Y-51143109D01*
X138164157Y-50868748D01*
X138015178Y-50618645D01*
X137820269Y-50402412D01*
X137586920Y-50228359D01*
X137324099Y-50103175D01*
X137176890Y-50058524D01*
X136947000Y-50179845D01*
X136693000Y-50179845D01*
X136463110Y-50058524D01*
X136315901Y-50103175D01*
X136053080Y-50228359D01*
X135819731Y-50402412D01*
X135624822Y-50618645D01*
X135555195Y-50735534D01*
X135433475Y-50553368D01*
X135415000Y-50534893D01*
X135415000Y-49835752D01*
X135420491Y-49780000D01*
X135398577Y-49557501D01*
X135333676Y-49343553D01*
X135228284Y-49146377D01*
X135121989Y-49016856D01*
X135121987Y-49016854D01*
X135086449Y-48973551D01*
X135043145Y-48938012D01*
X134341995Y-48236864D01*
X134306449Y-48193551D01*
X134133623Y-48051716D01*
X133936447Y-47946324D01*
X133722499Y-47881423D01*
X133555752Y-47865000D01*
X133555751Y-47865000D01*
X133500000Y-47859509D01*
X133444249Y-47865000D01*
X118970132Y-47865000D01*
X116841996Y-45736865D01*
X116806449Y-45693551D01*
X116633623Y-45551716D01*
X116436447Y-45446324D01*
X116222499Y-45381423D01*
X116055752Y-45365000D01*
X116055751Y-45365000D01*
X116000000Y-45359509D01*
X115944249Y-45365000D01*
X113044284Y-45365000D01*
X112839727Y-45228320D01*
X112578574Y-45120147D01*
X112301335Y-45065000D01*
X112018665Y-45065000D01*
X111741426Y-45120147D01*
X111480273Y-45228320D01*
X111245241Y-45385363D01*
X111045363Y-45585241D01*
X110888320Y-45820273D01*
X110780147Y-46081426D01*
X110725000Y-46358665D01*
X110725000Y-46641335D01*
X110780147Y-46918574D01*
X110888320Y-47179727D01*
X111045363Y-47414759D01*
X111245241Y-47614637D01*
X111480273Y-47771680D01*
X111741426Y-47879853D01*
X112018665Y-47935000D01*
X112301335Y-47935000D01*
X112578574Y-47879853D01*
X112839727Y-47771680D01*
X113044284Y-47635000D01*
X115529869Y-47635000D01*
X117658009Y-49763141D01*
X117693551Y-49806449D01*
X117828507Y-49917205D01*
X117866377Y-49948284D01*
X118063553Y-50053676D01*
X118277501Y-50118577D01*
X118452862Y-50135848D01*
X118336589Y-50184010D01*
X118093368Y-50346525D01*
X117961513Y-50478380D01*
X117939502Y-50405820D01*
X117880537Y-50295506D01*
X117801185Y-50198815D01*
X117704494Y-50119463D01*
X117594180Y-50060498D01*
X117474482Y-50024188D01*
X117350000Y-50011928D01*
X115650000Y-50011928D01*
X115525518Y-50024188D01*
X115405820Y-50060498D01*
X115295506Y-50119463D01*
X115198815Y-50198815D01*
X115119463Y-50295506D01*
X115060498Y-50405820D01*
X115024188Y-50525518D01*
X115011928Y-50650000D01*
X115011928Y-52350000D01*
X115024188Y-52474482D01*
X115060498Y-52594180D01*
X115119463Y-52704494D01*
X115198815Y-52801185D01*
X115295506Y-52880537D01*
X115405820Y-52939502D01*
X115525518Y-52975812D01*
X115615001Y-52984625D01*
X115615000Y-58956531D01*
X115610719Y-59000000D01*
X115615000Y-59043469D01*
X115615000Y-59043476D01*
X115627805Y-59173489D01*
X115678411Y-59340312D01*
X115760589Y-59494058D01*
X115871183Y-59628817D01*
X115904954Y-59656532D01*
X118843470Y-62595049D01*
X118871183Y-62628817D01*
X118904951Y-62656530D01*
X118904953Y-62656532D01*
X119005941Y-62739411D01*
X119159686Y-62821589D01*
X119326510Y-62872195D01*
X119456523Y-62885000D01*
X119456531Y-62885000D01*
X119500000Y-62889281D01*
X119543469Y-62885000D01*
X138373000Y-62885000D01*
X138373000Y-63840000D01*
X99160000Y-63840000D01*
X99160000Y-46358665D01*
X100565000Y-46358665D01*
X100565000Y-46641335D01*
X100620147Y-46918574D01*
X100728320Y-47179727D01*
X100885363Y-47414759D01*
X101085241Y-47614637D01*
X101320273Y-47771680D01*
X101581426Y-47879853D01*
X101858665Y-47935000D01*
X102141335Y-47935000D01*
X102418574Y-47879853D01*
X102679727Y-47771680D01*
X102914759Y-47614637D01*
X103114637Y-47414759D01*
X103271680Y-47179727D01*
X103379853Y-46918574D01*
X103435000Y-46641335D01*
X103435000Y-46358665D01*
X103379853Y-46081426D01*
X103271680Y-45820273D01*
X103114637Y-45585241D01*
X102914759Y-45385363D01*
X102679727Y-45228320D01*
X102418574Y-45120147D01*
X102141335Y-45065000D01*
X101858665Y-45065000D01*
X101581426Y-45120147D01*
X101320273Y-45228320D01*
X101085241Y-45385363D01*
X100885363Y-45585241D01*
X100728320Y-45820273D01*
X100620147Y-46081426D01*
X100565000Y-46358665D01*
X99160000Y-46358665D01*
X99160000Y-42858665D01*
X100565000Y-42858665D01*
X100565000Y-43141335D01*
X100620147Y-43418574D01*
X100728320Y-43679727D01*
X100885363Y-43914759D01*
X101085241Y-44114637D01*
X101320273Y-44271680D01*
X101581426Y-44379853D01*
X101858665Y-44435000D01*
X102141335Y-44435000D01*
X102418574Y-44379853D01*
X102679727Y-44271680D01*
X102914759Y-44114637D01*
X103114637Y-43914759D01*
X103271680Y-43679727D01*
X103379853Y-43418574D01*
X103435000Y-43141335D01*
X103435000Y-42858665D01*
X110725000Y-42858665D01*
X110725000Y-43141335D01*
X110780147Y-43418574D01*
X110888320Y-43679727D01*
X111045363Y-43914759D01*
X111245241Y-44114637D01*
X111480273Y-44271680D01*
X111741426Y-44379853D01*
X112018665Y-44435000D01*
X112301335Y-44435000D01*
X112578574Y-44379853D01*
X112839727Y-44271680D01*
X113044284Y-44135000D01*
X115944249Y-44135000D01*
X116000000Y-44140491D01*
X116055751Y-44135000D01*
X116055752Y-44135000D01*
X116222499Y-44118577D01*
X116436447Y-44053676D01*
X116633623Y-43948284D01*
X116806449Y-43806449D01*
X116841996Y-43763135D01*
X118970132Y-41635000D01*
X119937467Y-41635000D01*
X119908650Y-41658650D01*
X119782661Y-41812167D01*
X119689044Y-41987314D01*
X119631394Y-42177359D01*
X119611928Y-42375000D01*
X119611928Y-43125000D01*
X119631394Y-43322641D01*
X119689044Y-43512686D01*
X119782661Y-43687833D01*
X119908650Y-43841350D01*
X120062167Y-43967339D01*
X120123272Y-44000000D01*
X120062167Y-44032661D01*
X119908650Y-44158650D01*
X119782661Y-44312167D01*
X119689044Y-44487314D01*
X119631394Y-44677359D01*
X119611928Y-44875000D01*
X119611928Y-45625000D01*
X119631394Y-45822641D01*
X119689044Y-46012686D01*
X119782661Y-46187833D01*
X119908650Y-46341350D01*
X120062167Y-46467339D01*
X120237314Y-46560956D01*
X120427359Y-46618606D01*
X120625000Y-46638072D01*
X121128485Y-46638072D01*
X121371286Y-46767852D01*
X121679485Y-46861343D01*
X122000000Y-46892911D01*
X122320516Y-46861343D01*
X122628715Y-46767852D01*
X122871516Y-46638072D01*
X123375000Y-46638072D01*
X123572641Y-46618606D01*
X123762686Y-46560956D01*
X123937833Y-46467339D01*
X124000000Y-46416320D01*
X124062167Y-46467339D01*
X124237314Y-46560956D01*
X124427359Y-46618606D01*
X124625000Y-46638072D01*
X125128485Y-46638072D01*
X125371286Y-46767852D01*
X125679485Y-46861343D01*
X126000000Y-46892911D01*
X126320516Y-46861343D01*
X126628715Y-46767852D01*
X126871516Y-46638072D01*
X127375000Y-46638072D01*
X127572641Y-46618606D01*
X127762686Y-46560956D01*
X127937833Y-46467339D01*
X128000000Y-46416320D01*
X128062167Y-46467339D01*
X128237314Y-46560956D01*
X128427359Y-46618606D01*
X128625000Y-46638072D01*
X129128485Y-46638072D01*
X129371286Y-46767852D01*
X129679485Y-46861343D01*
X130000000Y-46892911D01*
X130320516Y-46861343D01*
X130628715Y-46767852D01*
X130871516Y-46638072D01*
X131375000Y-46638072D01*
X131572641Y-46618606D01*
X131762686Y-46560956D01*
X131937833Y-46467339D01*
X132091350Y-46341350D01*
X132217339Y-46187833D01*
X132310956Y-46012686D01*
X132368606Y-45822641D01*
X132388072Y-45625000D01*
X132388072Y-44875000D01*
X132368606Y-44677359D01*
X132310956Y-44487314D01*
X132217339Y-44312167D01*
X132091350Y-44158650D01*
X131937833Y-44032661D01*
X131876728Y-44000000D01*
X131937833Y-43967339D01*
X132091350Y-43841350D01*
X132217339Y-43687833D01*
X132310956Y-43512686D01*
X132368606Y-43322641D01*
X132388072Y-43125000D01*
X132388072Y-42375000D01*
X132368606Y-42177359D01*
X132310956Y-41987314D01*
X132217339Y-41812167D01*
X132091350Y-41658650D01*
X131937833Y-41532661D01*
X131762686Y-41439044D01*
X131572641Y-41381394D01*
X131375000Y-41361928D01*
X130871515Y-41361928D01*
X130628714Y-41232148D01*
X130320515Y-41138657D01*
X130000000Y-41107089D01*
X129679484Y-41138657D01*
X129371285Y-41232148D01*
X129128484Y-41361928D01*
X128625000Y-41361928D01*
X128427359Y-41381394D01*
X128237314Y-41439044D01*
X128062167Y-41532661D01*
X128000000Y-41583680D01*
X127937833Y-41532661D01*
X127762686Y-41439044D01*
X127572641Y-41381394D01*
X127375000Y-41361928D01*
X126944633Y-41361928D01*
X126806449Y-41193551D01*
X126763140Y-41158008D01*
X125341996Y-39736865D01*
X125306449Y-39693551D01*
X125133623Y-39551716D01*
X124936447Y-39446324D01*
X124722499Y-39381423D01*
X124555752Y-39365000D01*
X124555751Y-39365000D01*
X124500000Y-39359509D01*
X124444249Y-39365000D01*
X118555751Y-39365000D01*
X118500000Y-39359509D01*
X118444248Y-39365000D01*
X118277501Y-39381423D01*
X118063553Y-39446324D01*
X117866377Y-39551716D01*
X117693551Y-39693551D01*
X117658009Y-39736859D01*
X115529869Y-41865000D01*
X113044284Y-41865000D01*
X112839727Y-41728320D01*
X112578574Y-41620147D01*
X112301335Y-41565000D01*
X112018665Y-41565000D01*
X111741426Y-41620147D01*
X111480273Y-41728320D01*
X111245241Y-41885363D01*
X111045363Y-42085241D01*
X110888320Y-42320273D01*
X110780147Y-42581426D01*
X110725000Y-42858665D01*
X103435000Y-42858665D01*
X103379853Y-42581426D01*
X103271680Y-42320273D01*
X103114637Y-42085241D01*
X102914759Y-41885363D01*
X102679727Y-41728320D01*
X102418574Y-41620147D01*
X102141335Y-41565000D01*
X101858665Y-41565000D01*
X101581426Y-41620147D01*
X101320273Y-41728320D01*
X101085241Y-41885363D01*
X100885363Y-42085241D01*
X100728320Y-42320273D01*
X100620147Y-42581426D01*
X100565000Y-42858665D01*
X99160000Y-42858665D01*
X99160000Y-39160000D01*
X138373000Y-39160000D01*
X138373000Y-57115000D01*
%TA.AperFunction,Conductor*%
D22*
G36*
X138373000Y-57115000D02*
G01*
X133460804Y-57115000D01*
X133417205Y-57009744D01*
X133303937Y-56840226D01*
X133159774Y-56696063D01*
X132990256Y-56582795D01*
X132801898Y-56504774D01*
X132601939Y-56465000D01*
X132398061Y-56465000D01*
X132198102Y-56504774D01*
X132009744Y-56582795D01*
X131840226Y-56696063D01*
X131696063Y-56840226D01*
X131582795Y-57009744D01*
X131504774Y-57198102D01*
X131465000Y-57398061D01*
X131465000Y-57601939D01*
X131492681Y-57741102D01*
X130506535Y-56754957D01*
X130495226Y-56698102D01*
X130417205Y-56509744D01*
X130303937Y-56340226D01*
X130159774Y-56196063D01*
X129990256Y-56082795D01*
X129801898Y-56004774D01*
X129601939Y-55965000D01*
X129398061Y-55965000D01*
X129198102Y-56004774D01*
X129009744Y-56082795D01*
X128840226Y-56196063D01*
X128696063Y-56340226D01*
X128582795Y-56509744D01*
X128504774Y-56698102D01*
X128465000Y-56898061D01*
X128465000Y-57101939D01*
X128504774Y-57301898D01*
X128582795Y-57490256D01*
X128696063Y-57659774D01*
X128840226Y-57803937D01*
X129009744Y-57917205D01*
X129198102Y-57995226D01*
X129254957Y-58006535D01*
X130363421Y-59115000D01*
X128866579Y-59115000D01*
X127545000Y-57793422D01*
X127545000Y-54398061D01*
X135465000Y-54398061D01*
X135465000Y-54601939D01*
X135504774Y-54801898D01*
X135582795Y-54990256D01*
X135696063Y-55159774D01*
X135840226Y-55303937D01*
X136009744Y-55417205D01*
X136198102Y-55495226D01*
X136398061Y-55535000D01*
X136601939Y-55535000D01*
X136801898Y-55495226D01*
X136990256Y-55417205D01*
X137159774Y-55303937D01*
X137303937Y-55159774D01*
X137417205Y-54990256D01*
X137495226Y-54801898D01*
X137535000Y-54601939D01*
X137535000Y-54398061D01*
X137495226Y-54198102D01*
X137417205Y-54009744D01*
X137303937Y-53840226D01*
X137159774Y-53696063D01*
X136990256Y-53582795D01*
X136801898Y-53504774D01*
X136601939Y-53465000D01*
X136398061Y-53465000D01*
X136198102Y-53504774D01*
X136009744Y-53582795D01*
X135840226Y-53696063D01*
X135696063Y-53840226D01*
X135582795Y-54009744D01*
X135504774Y-54198102D01*
X135465000Y-54398061D01*
X127545000Y-54398061D01*
X127545000Y-52694656D01*
X127606632Y-52653475D01*
X127813475Y-52446632D01*
X127930000Y-52272240D01*
X128046525Y-52446632D01*
X128253368Y-52653475D01*
X128496589Y-52815990D01*
X128766842Y-52927932D01*
X129053740Y-52985000D01*
X129346260Y-52985000D01*
X129633158Y-52927932D01*
X129903411Y-52815990D01*
X130146632Y-52653475D01*
X130353475Y-52446632D01*
X130475195Y-52264466D01*
X130544822Y-52381355D01*
X130739731Y-52597588D01*
X130973080Y-52771641D01*
X131235901Y-52896825D01*
X131383110Y-52941476D01*
X131613000Y-52820155D01*
X131613000Y-51627000D01*
X131593000Y-51627000D01*
X131593000Y-51373000D01*
X131613000Y-51373000D01*
X131613000Y-51353000D01*
X131867000Y-51353000D01*
X131867000Y-51373000D01*
X131887000Y-51373000D01*
X131887000Y-51627000D01*
X131867000Y-51627000D01*
X131867000Y-52820155D01*
X132096890Y-52941476D01*
X132244099Y-52896825D01*
X132506920Y-52771641D01*
X132740269Y-52597588D01*
X132935178Y-52381355D01*
X133004805Y-52264466D01*
X133126525Y-52446632D01*
X133333368Y-52653475D01*
X133576589Y-52815990D01*
X133846842Y-52927932D01*
X134133740Y-52985000D01*
X134426260Y-52985000D01*
X134713158Y-52927932D01*
X134983411Y-52815990D01*
X135226632Y-52653475D01*
X135433475Y-52446632D01*
X135555195Y-52264466D01*
X135624822Y-52381355D01*
X135819731Y-52597588D01*
X136053080Y-52771641D01*
X136315901Y-52896825D01*
X136463110Y-52941476D01*
X136693000Y-52820155D01*
X136693000Y-51627000D01*
X136947000Y-51627000D01*
X136947000Y-52820155D01*
X137176890Y-52941476D01*
X137324099Y-52896825D01*
X137586920Y-52771641D01*
X137820269Y-52597588D01*
X138015178Y-52381355D01*
X138164157Y-52131252D01*
X138261481Y-51856891D01*
X138140814Y-51627000D01*
X136947000Y-51627000D01*
X136693000Y-51627000D01*
X136673000Y-51627000D01*
X136673000Y-51373000D01*
X136693000Y-51373000D01*
X136693000Y-50179845D01*
X136947000Y-50179845D01*
X136947000Y-51373000D01*
X138140814Y-51373000D01*
X138261481Y-51143109D01*
X138164157Y-50868748D01*
X138015178Y-50618645D01*
X137820269Y-50402412D01*
X137586920Y-50228359D01*
X137324099Y-50103175D01*
X137176890Y-50058524D01*
X136947000Y-50179845D01*
X136693000Y-50179845D01*
X136463110Y-50058524D01*
X136315901Y-50103175D01*
X136053080Y-50228359D01*
X135819731Y-50402412D01*
X135624822Y-50618645D01*
X135555195Y-50735534D01*
X135433475Y-50553368D01*
X135415000Y-50534893D01*
X135415000Y-49835752D01*
X135420491Y-49780000D01*
X135398577Y-49557501D01*
X135333676Y-49343553D01*
X135228284Y-49146377D01*
X135121989Y-49016856D01*
X135121987Y-49016854D01*
X135086449Y-48973551D01*
X135043145Y-48938012D01*
X134341995Y-48236864D01*
X134306449Y-48193551D01*
X134133623Y-48051716D01*
X133936447Y-47946324D01*
X133722499Y-47881423D01*
X133555752Y-47865000D01*
X133555751Y-47865000D01*
X133500000Y-47859509D01*
X133444249Y-47865000D01*
X118970132Y-47865000D01*
X116841996Y-45736865D01*
X116806449Y-45693551D01*
X116633623Y-45551716D01*
X116436447Y-45446324D01*
X116222499Y-45381423D01*
X116055752Y-45365000D01*
X116055751Y-45365000D01*
X116000000Y-45359509D01*
X115944249Y-45365000D01*
X113044284Y-45365000D01*
X112839727Y-45228320D01*
X112578574Y-45120147D01*
X112301335Y-45065000D01*
X112018665Y-45065000D01*
X111741426Y-45120147D01*
X111480273Y-45228320D01*
X111245241Y-45385363D01*
X111045363Y-45585241D01*
X110888320Y-45820273D01*
X110780147Y-46081426D01*
X110725000Y-46358665D01*
X110725000Y-46641335D01*
X110780147Y-46918574D01*
X110888320Y-47179727D01*
X111045363Y-47414759D01*
X111245241Y-47614637D01*
X111480273Y-47771680D01*
X111741426Y-47879853D01*
X112018665Y-47935000D01*
X112301335Y-47935000D01*
X112578574Y-47879853D01*
X112839727Y-47771680D01*
X113044284Y-47635000D01*
X115529869Y-47635000D01*
X117658009Y-49763141D01*
X117693551Y-49806449D01*
X117828507Y-49917205D01*
X117866377Y-49948284D01*
X118063553Y-50053676D01*
X118277501Y-50118577D01*
X118452862Y-50135848D01*
X118336589Y-50184010D01*
X118093368Y-50346525D01*
X117961513Y-50478380D01*
X117939502Y-50405820D01*
X117880537Y-50295506D01*
X117801185Y-50198815D01*
X117704494Y-50119463D01*
X117594180Y-50060498D01*
X117474482Y-50024188D01*
X117350000Y-50011928D01*
X115650000Y-50011928D01*
X115525518Y-50024188D01*
X115405820Y-50060498D01*
X115295506Y-50119463D01*
X115198815Y-50198815D01*
X115119463Y-50295506D01*
X115060498Y-50405820D01*
X115024188Y-50525518D01*
X115011928Y-50650000D01*
X115011928Y-52350000D01*
X115024188Y-52474482D01*
X115060498Y-52594180D01*
X115119463Y-52704494D01*
X115198815Y-52801185D01*
X115295506Y-52880537D01*
X115405820Y-52939502D01*
X115525518Y-52975812D01*
X115615001Y-52984625D01*
X115615000Y-58956531D01*
X115610719Y-59000000D01*
X115615000Y-59043469D01*
X115615000Y-59043476D01*
X115627805Y-59173489D01*
X115678411Y-59340312D01*
X115760589Y-59494058D01*
X115871183Y-59628817D01*
X115904954Y-59656532D01*
X118843470Y-62595049D01*
X118871183Y-62628817D01*
X118904951Y-62656530D01*
X118904953Y-62656532D01*
X119005941Y-62739411D01*
X119159686Y-62821589D01*
X119326510Y-62872195D01*
X119456523Y-62885000D01*
X119456531Y-62885000D01*
X119500000Y-62889281D01*
X119543469Y-62885000D01*
X138373000Y-62885000D01*
X138373000Y-63840000D01*
X99160000Y-63840000D01*
X99160000Y-46358665D01*
X100565000Y-46358665D01*
X100565000Y-46641335D01*
X100620147Y-46918574D01*
X100728320Y-47179727D01*
X100885363Y-47414759D01*
X101085241Y-47614637D01*
X101320273Y-47771680D01*
X101581426Y-47879853D01*
X101858665Y-47935000D01*
X102141335Y-47935000D01*
X102418574Y-47879853D01*
X102679727Y-47771680D01*
X102914759Y-47614637D01*
X103114637Y-47414759D01*
X103271680Y-47179727D01*
X103379853Y-46918574D01*
X103435000Y-46641335D01*
X103435000Y-46358665D01*
X103379853Y-46081426D01*
X103271680Y-45820273D01*
X103114637Y-45585241D01*
X102914759Y-45385363D01*
X102679727Y-45228320D01*
X102418574Y-45120147D01*
X102141335Y-45065000D01*
X101858665Y-45065000D01*
X101581426Y-45120147D01*
X101320273Y-45228320D01*
X101085241Y-45385363D01*
X100885363Y-45585241D01*
X100728320Y-45820273D01*
X100620147Y-46081426D01*
X100565000Y-46358665D01*
X99160000Y-46358665D01*
X99160000Y-42858665D01*
X100565000Y-42858665D01*
X100565000Y-43141335D01*
X100620147Y-43418574D01*
X100728320Y-43679727D01*
X100885363Y-43914759D01*
X101085241Y-44114637D01*
X101320273Y-44271680D01*
X101581426Y-44379853D01*
X101858665Y-44435000D01*
X102141335Y-44435000D01*
X102418574Y-44379853D01*
X102679727Y-44271680D01*
X102914759Y-44114637D01*
X103114637Y-43914759D01*
X103271680Y-43679727D01*
X103379853Y-43418574D01*
X103435000Y-43141335D01*
X103435000Y-42858665D01*
X110725000Y-42858665D01*
X110725000Y-43141335D01*
X110780147Y-43418574D01*
X110888320Y-43679727D01*
X111045363Y-43914759D01*
X111245241Y-44114637D01*
X111480273Y-44271680D01*
X111741426Y-44379853D01*
X112018665Y-44435000D01*
X112301335Y-44435000D01*
X112578574Y-44379853D01*
X112839727Y-44271680D01*
X113044284Y-44135000D01*
X115944249Y-44135000D01*
X116000000Y-44140491D01*
X116055751Y-44135000D01*
X116055752Y-44135000D01*
X116222499Y-44118577D01*
X116436447Y-44053676D01*
X116633623Y-43948284D01*
X116806449Y-43806449D01*
X116841996Y-43763135D01*
X118970132Y-41635000D01*
X119937467Y-41635000D01*
X119908650Y-41658650D01*
X119782661Y-41812167D01*
X119689044Y-41987314D01*
X119631394Y-42177359D01*
X119611928Y-42375000D01*
X119611928Y-43125000D01*
X119631394Y-43322641D01*
X119689044Y-43512686D01*
X119782661Y-43687833D01*
X119908650Y-43841350D01*
X120062167Y-43967339D01*
X120123272Y-44000000D01*
X120062167Y-44032661D01*
X119908650Y-44158650D01*
X119782661Y-44312167D01*
X119689044Y-44487314D01*
X119631394Y-44677359D01*
X119611928Y-44875000D01*
X119611928Y-45625000D01*
X119631394Y-45822641D01*
X119689044Y-46012686D01*
X119782661Y-46187833D01*
X119908650Y-46341350D01*
X120062167Y-46467339D01*
X120237314Y-46560956D01*
X120427359Y-46618606D01*
X120625000Y-46638072D01*
X121128485Y-46638072D01*
X121371286Y-46767852D01*
X121679485Y-46861343D01*
X122000000Y-46892911D01*
X122320516Y-46861343D01*
X122628715Y-46767852D01*
X122871516Y-46638072D01*
X123375000Y-46638072D01*
X123572641Y-46618606D01*
X123762686Y-46560956D01*
X123937833Y-46467339D01*
X124000000Y-46416320D01*
X124062167Y-46467339D01*
X124237314Y-46560956D01*
X124427359Y-46618606D01*
X124625000Y-46638072D01*
X125128485Y-46638072D01*
X125371286Y-46767852D01*
X125679485Y-46861343D01*
X126000000Y-46892911D01*
X126320516Y-46861343D01*
X126628715Y-46767852D01*
X126871516Y-46638072D01*
X127375000Y-46638072D01*
X127572641Y-46618606D01*
X127762686Y-46560956D01*
X127937833Y-46467339D01*
X128000000Y-46416320D01*
X128062167Y-46467339D01*
X128237314Y-46560956D01*
X128427359Y-46618606D01*
X128625000Y-46638072D01*
X129128485Y-46638072D01*
X129371286Y-46767852D01*
X129679485Y-46861343D01*
X130000000Y-46892911D01*
X130320516Y-46861343D01*
X130628715Y-46767852D01*
X130871516Y-46638072D01*
X131375000Y-46638072D01*
X131572641Y-46618606D01*
X131762686Y-46560956D01*
X131937833Y-46467339D01*
X132091350Y-46341350D01*
X132217339Y-46187833D01*
X132310956Y-46012686D01*
X132368606Y-45822641D01*
X132388072Y-45625000D01*
X132388072Y-44875000D01*
X132368606Y-44677359D01*
X132310956Y-44487314D01*
X132217339Y-44312167D01*
X132091350Y-44158650D01*
X131937833Y-44032661D01*
X131876728Y-44000000D01*
X131937833Y-43967339D01*
X132091350Y-43841350D01*
X132217339Y-43687833D01*
X132310956Y-43512686D01*
X132368606Y-43322641D01*
X132388072Y-43125000D01*
X132388072Y-42375000D01*
X132368606Y-42177359D01*
X132310956Y-41987314D01*
X132217339Y-41812167D01*
X132091350Y-41658650D01*
X131937833Y-41532661D01*
X131762686Y-41439044D01*
X131572641Y-41381394D01*
X131375000Y-41361928D01*
X130871515Y-41361928D01*
X130628714Y-41232148D01*
X130320515Y-41138657D01*
X130000000Y-41107089D01*
X129679484Y-41138657D01*
X129371285Y-41232148D01*
X129128484Y-41361928D01*
X128625000Y-41361928D01*
X128427359Y-41381394D01*
X128237314Y-41439044D01*
X128062167Y-41532661D01*
X128000000Y-41583680D01*
X127937833Y-41532661D01*
X127762686Y-41439044D01*
X127572641Y-41381394D01*
X127375000Y-41361928D01*
X126944633Y-41361928D01*
X126806449Y-41193551D01*
X126763140Y-41158008D01*
X125341996Y-39736865D01*
X125306449Y-39693551D01*
X125133623Y-39551716D01*
X124936447Y-39446324D01*
X124722499Y-39381423D01*
X124555752Y-39365000D01*
X124555751Y-39365000D01*
X124500000Y-39359509D01*
X124444249Y-39365000D01*
X118555751Y-39365000D01*
X118500000Y-39359509D01*
X118444248Y-39365000D01*
X118277501Y-39381423D01*
X118063553Y-39446324D01*
X117866377Y-39551716D01*
X117693551Y-39693551D01*
X117658009Y-39736859D01*
X115529869Y-41865000D01*
X113044284Y-41865000D01*
X112839727Y-41728320D01*
X112578574Y-41620147D01*
X112301335Y-41565000D01*
X112018665Y-41565000D01*
X111741426Y-41620147D01*
X111480273Y-41728320D01*
X111245241Y-41885363D01*
X111045363Y-42085241D01*
X110888320Y-42320273D01*
X110780147Y-42581426D01*
X110725000Y-42858665D01*
X103435000Y-42858665D01*
X103379853Y-42581426D01*
X103271680Y-42320273D01*
X103114637Y-42085241D01*
X102914759Y-41885363D01*
X102679727Y-41728320D01*
X102418574Y-41620147D01*
X102141335Y-41565000D01*
X101858665Y-41565000D01*
X101581426Y-41620147D01*
X101320273Y-41728320D01*
X101085241Y-41885363D01*
X100885363Y-42085241D01*
X100728320Y-42320273D01*
X100620147Y-42581426D01*
X100565000Y-42858665D01*
X99160000Y-42858665D01*
X99160000Y-39160000D01*
X138373000Y-39160000D01*
X138373000Y-57115000D01*
G37*
%TD.AperFunction*%
D21*
X120426525Y-52446632D02*
X120633368Y-52653475D01*
X120695001Y-52694657D01*
X120695000Y-59536531D01*
X120690719Y-59580000D01*
X120695000Y-59623469D01*
X120695000Y-59623476D01*
X120707805Y-59753489D01*
X120758411Y-59920312D01*
X120840589Y-60074058D01*
X120951183Y-60208817D01*
X120984956Y-60236534D01*
X121863421Y-61115000D01*
X119866579Y-61115000D01*
X117385000Y-58633422D01*
X117385000Y-52984625D01*
X117474482Y-52975812D01*
X117594180Y-52939502D01*
X117704494Y-52880537D01*
X117801185Y-52801185D01*
X117880537Y-52704494D01*
X117939502Y-52594180D01*
X117961513Y-52521620D01*
X118093368Y-52653475D01*
X118336589Y-52815990D01*
X118606842Y-52927932D01*
X118893740Y-52985000D01*
X119186260Y-52985000D01*
X119473158Y-52927932D01*
X119743411Y-52815990D01*
X119986632Y-52653475D01*
X120193475Y-52446632D01*
X120310000Y-52272240D01*
X120426525Y-52446632D01*
%TA.AperFunction,Conductor*%
D22*
G36*
X120426525Y-52446632D02*
G01*
X120633368Y-52653475D01*
X120695001Y-52694657D01*
X120695000Y-59536531D01*
X120690719Y-59580000D01*
X120695000Y-59623469D01*
X120695000Y-59623476D01*
X120707805Y-59753489D01*
X120758411Y-59920312D01*
X120840589Y-60074058D01*
X120951183Y-60208817D01*
X120984956Y-60236534D01*
X121863421Y-61115000D01*
X119866579Y-61115000D01*
X117385000Y-58633422D01*
X117385000Y-52984625D01*
X117474482Y-52975812D01*
X117594180Y-52939502D01*
X117704494Y-52880537D01*
X117801185Y-52801185D01*
X117880537Y-52704494D01*
X117939502Y-52594180D01*
X117961513Y-52521620D01*
X118093368Y-52653475D01*
X118336589Y-52815990D01*
X118606842Y-52927932D01*
X118893740Y-52985000D01*
X119186260Y-52985000D01*
X119473158Y-52927932D01*
X119743411Y-52815990D01*
X119986632Y-52653475D01*
X120193475Y-52446632D01*
X120310000Y-52272240D01*
X120426525Y-52446632D01*
G37*
%TD.AperFunction*%
D21*
X125506525Y-52446632D02*
X125713368Y-52653475D01*
X125775001Y-52694657D01*
X125775000Y-58116531D01*
X125770719Y-58160000D01*
X125775000Y-58203469D01*
X125775000Y-58203476D01*
X125786212Y-58317314D01*
X125787805Y-58333490D01*
X125803157Y-58384096D01*
X125838411Y-58500312D01*
X125920589Y-58654058D01*
X126031183Y-58788817D01*
X126064956Y-58816534D01*
X127363421Y-60115000D01*
X123366579Y-60115000D01*
X122465000Y-59213422D01*
X122465000Y-52694656D01*
X122526632Y-52653475D01*
X122733475Y-52446632D01*
X122850000Y-52272240D01*
X122966525Y-52446632D01*
X123173368Y-52653475D01*
X123416589Y-52815990D01*
X123686842Y-52927932D01*
X123973740Y-52985000D01*
X124266260Y-52985000D01*
X124553158Y-52927932D01*
X124823411Y-52815990D01*
X125066632Y-52653475D01*
X125273475Y-52446632D01*
X125390000Y-52272240D01*
X125506525Y-52446632D01*
%TA.AperFunction,Conductor*%
D22*
G36*
X125506525Y-52446632D02*
G01*
X125713368Y-52653475D01*
X125775001Y-52694657D01*
X125775000Y-58116531D01*
X125770719Y-58160000D01*
X125775000Y-58203469D01*
X125775000Y-58203476D01*
X125786212Y-58317314D01*
X125787805Y-58333490D01*
X125803157Y-58384096D01*
X125838411Y-58500312D01*
X125920589Y-58654058D01*
X126031183Y-58788817D01*
X126064956Y-58816534D01*
X127363421Y-60115000D01*
X123366579Y-60115000D01*
X122465000Y-59213422D01*
X122465000Y-52694656D01*
X122526632Y-52653475D01*
X122733475Y-52446632D01*
X122850000Y-52272240D01*
X122966525Y-52446632D01*
X123173368Y-52653475D01*
X123416589Y-52815990D01*
X123686842Y-52927932D01*
X123973740Y-52985000D01*
X124266260Y-52985000D01*
X124553158Y-52927932D01*
X124823411Y-52815990D01*
X125066632Y-52653475D01*
X125273475Y-52446632D01*
X125390000Y-52272240D01*
X125506525Y-52446632D01*
G37*
%TD.AperFunction*%
D21*
X142693748Y-41985858D02*
X142679605Y-42000000D01*
X142693748Y-42014143D01*
X142514143Y-42193748D01*
X142500000Y-42179605D01*
X142485858Y-42193748D01*
X142306253Y-42014143D01*
X142320395Y-42000000D01*
X142306253Y-41985858D01*
X142485858Y-41806253D01*
X142500000Y-41820395D01*
X142514143Y-41806253D01*
X142693748Y-41985858D01*
%TA.AperFunction,Conductor*%
D22*
G36*
X142693748Y-41985858D02*
G01*
X142679605Y-42000000D01*
X142693748Y-42014143D01*
X142514143Y-42193748D01*
X142500000Y-42179605D01*
X142485858Y-42193748D01*
X142306253Y-42014143D01*
X142320395Y-42000000D01*
X142306253Y-41985858D01*
X142485858Y-41806253D01*
X142500000Y-41820395D01*
X142514143Y-41806253D01*
X142693748Y-41985858D01*
G37*
%TD.AperFunction*%
%TD*%
M02*
